<?xml version="1.0" encoding="UTF-8" standalone="no"?>
<svg
   width="400"
   height="258"
   viewBox="0 0 400 258"
   fill="none"
   version="1.1"
   id="svg7"
   sodipodi:docname="post.svg"
   inkscape:version="1.3.2 (091e20e, 2023-11-25, custom)"
   xmlns:inkscape="http://www.inkscape.org/namespaces/inkscape"
   xmlns:sodipodi="http://sodipodi.sourceforge.net/DTD/sodipodi-0.dtd"
   xmlns="http://www.w3.org/2000/svg"
   xmlns:svg="http://www.w3.org/2000/svg">
  <sodipodi:namedview
     id="namedview7"
     pagecolor="#ffffff"
     bordercolor="#000000"
     borderopacity="0.25"
     inkscape:showpageshadow="2"
     inkscape:pageopacity="0.0"
     inkscape:pagecheckerboard="0"
     inkscape:deskcolor="#d1d1d1"
     inkscape:zoom="1.8245673"
     inkscape:cx="203.60992"
     inkscape:cy="153.73508"
     inkscape:window-width="1920"
     inkscape:window-height="1001"
     inkscape:window-x="-9"
     inkscape:window-y="-9"
     inkscape:window-maximized="1"
     inkscape:current-layer="g7" />
  <desc
     id="desc1">
			Created with Pixso.
	</desc>
  <defs
     id="defs1">
    <clipPath
       id="clip465_4133">
      <rect
         id="emojione-v1:open-mailbox-with-lowered-flag"
         width="400"
         height="305"
         fill="#ffffff"
         fill-opacity="0"
         x="0"
         y="0" />
    </clipPath>
  </defs>
  <rect
     id="rect1"
     width="400"
     height="258"
     fill="#ffffff"
     fill-opacity="0"
     x="0"
     y="0"
     style="display:inline;stroke-width:1" />
  <g
     clip-path="url(#clip465_4133)"
     id="g7"
     transform="translate(-1.5628959e-8,-47)"
     inkscape:label="g7"
     style="display:inline">
    <path
       id="Vector"
       d="m 157.25,306.05831 h 82.21 c 0.67,0 1.24,-1.31669 1.24,-2.84434 V 120.18706 c 0,-1.53492 -0.57,-2.83706 -1.24,-2.83706 h -82.21 c -0.38,0 -0.65,0.29098 -0.86,0.76382 l -0.01,0.0946 c 0,0 -0.03,0.007 -0.04,0.0946 -0.25,0.61106 -0.36,1.25122 -0.33,1.89138 v 183.02691 c 0,1.52037 0.55,2.83706 1.24,2.83706 z"
       fill="#dfad92"
       fill-opacity="1"
       fill-rule="nonzero"
       style="stroke-width:1" />
    <path
       id="path1"
       d="m 194.43,306.05831 h 45.56 c 0.39,0 0.69,-1.31668 0.69,-2.84433 V 120.18706 c 0,-1.53492 -0.31,-2.83705 -0.69,-2.83705 h -45.55 c -0.21,0 -0.36,0.29096 -0.46,0.76381 l -0.02,0.0945 c 0,0 -0.01,0.007 -0.02,0.0945 -0.14,0.62562 -0.2,1.25848 -0.18,1.89137 v 183.02692 c 0,1.52038 0.3,2.83706 0.67,2.83706 z"
       fill="#a4806d"
       fill-opacity="1"
       fill-rule="nonzero"
       style="stroke-width:1" />
    <path
       id="path2"
       d="m 157.25,268.23 h 82.18 c 0.69,0 1.26,-0.39 1.26,-0.85 v -54.95 c 0,-0.46 -0.57,-0.86 -1.26,-0.86 h -82.2 c -0.29,-0.01 -0.58,0.07 -0.83,0.23 l -0.04,0.03 -0.05,0.03 c -0.09,0.06 -0.17,0.15 -0.23,0.24 -0.05,0.1 -0.08,0.21 -0.08,0.33 v 54.95 c 0,0.47 0.54,0.85 1.23,0.85 z"
       fill="#a4806d"
       fill-opacity="1"
       fill-rule="nonzero" />
    <path
       id="path3"
       d="M 133.68,47 H 63.01 C 28.22,47 0,85.57 0,133.14 V 238.15 H 70.66 V 133.14 C 70.66,85.57 98.87,47 133.68,47 Z"
       fill="#7c9c9f"
       fill-opacity="1"
       fill-rule="nonzero"
       inkscape:label="path3" />
    <path
       id="path4"
       d="M 298.26,47 H 133.68 c -34.81,0 -63,38.57 -63,86.14 V 238.15 H 361.29 V 133.14 C 361.29,85.57 333.08,47 298.29,47 Z"
       fill="#112211"
       fill-opacity="1"
       fill-rule="nonzero" />
    <path
       id="path5"
       d="M 145.31,47 H 63.03 c -34.8,0 -63,38.57 -63,86.14 V 238.15 H 208.35 V 133.14 C 208.35,85.57 180.14,47 145.35,47 Z"
       fill="#65b599"
       fill-opacity="1"
       fill-rule="nonzero" />
    <path
       id="path6"
       d="m 399.39,154.98 c 0.02,0.04 0.17,0.05 0.17,0.09 v 75.39 c 0.01,0.27 -0.05,0.54 -0.17,0.77 0,0 -0.03,0 -0.03,0.02 h -0.02 c -0.08,0.15 -0.23,0.29 -0.41,0.29 h -40.82 c -0.36,0 -0.64,-0.51 -0.64,-1.14 V 189.35 H 233.5 c -1.36,0 -2.54,-0.24 -2.54,-0.51 V 155 c 0,-0.29 1.18,-0.52 2.54,-0.52 h 165.43 c 0.19,0 0.36,0.18 0.46,0.44 z"
       fill="#ff8682"
       fill-opacity="1"
       fill-rule="nonzero" />
    <path
       id="path7"
       d="M 140.42,59 H 66.56 C 35.34,59 10,95.11 10,139.66 V 238 H 197 V 139.66 C 197,95.11 171.68,59 140.42,59 Z"
       fill="#546869"
       fill-opacity="1"
       fill-rule="nonzero" />
  </g>
</svg>
