<svg width="399.569824" height="258.000000" viewBox="0 0 399.57 258" fill="none" xmlns="http://www.w3.org/2000/svg" xmlns:xlink="http://www.w3.org/1999/xlink">
	<desc>
			Created with Pixso.
	</desc>
	<defs/>
	<path id="Vector" d="M157.24 258L239.75 258C240.42 258 241 257.53 241 256.99L241 192C241 191.46 240.42 191 239.75 191L157.24 191C156.87 191 156.59 191.1 156.38 191.27L156.37 191.3C156.37 191.3 156.35 191.3 156.33 191.33C156.08 191.55 155.97 191.78 156 192.01L156 256.99C156 257.53 156.56 258 157.24 258Z" fill="#DFAD92" fill-opacity="1.000000" fill-rule="nonzero"/>
	<path id="Vector" d="M194.68 258L240.3 258C240.69 258 241 257.53 241 256.99L241 192C241 191.46 240.68 191 240.3 191L194.68 191C194.47 191 194.32 191.1 194.22 191.27L194.21 191.3C194.21 191.3 194.19 191.3 194.18 191.33C194.04 191.56 193.98 191.78 194 192.01L194 256.99C194 257.53 194.3 258 194.68 258Z" fill="#A4806D" fill-opacity="1.000000" fill-rule="nonzero"/>
	<path id="Vector" d="M157.25 221.23L239.43 221.23C240.12 221.23 240.69 220.84 240.69 220.38L240.69 165.43C240.69 164.97 240.12 164.57 239.43 164.57L157.23 164.57C156.94 164.56 156.65 164.64 156.4 164.8L156.36 164.83L156.31 164.86C156.22 164.92 156.14 165.01 156.08 165.11C156.03 165.2 156 165.31 156 165.43L156 220.38C156 220.85 156.54 221.23 157.23 221.23L157.25 221.23Z" fill="#A4806D" fill-opacity="1.000000" fill-rule="nonzero"/>
	<path id="Vector" d="M133.68 0L63.01 0C28.22 0 0 38.57 0 86.14L0 191.15L70.66 191.15L70.66 86.14C70.66 38.57 98.87 0 133.68 0Z" fill="#7C9C9F" fill-opacity="1.000000" fill-rule="nonzero"/>
	<path id="Vector" d="M298.26 0L133.68 0C98.87 0 70.68 38.57 70.68 86.14L70.68 191.15L361.29 191.15L361.29 86.14C361.29 38.57 333.08 0 298.29 0L298.26 0Z" fill="#112211" fill-opacity="1.000000" fill-rule="nonzero"/>
	<path id="Vector" d="M145.31 0L63.03 0C28.23 0 0.03 38.57 0.03 86.14L0.03 191.15L208.35 191.15L208.35 86.14C208.35 38.57 180.14 0 145.35 0L145.31 0Z" fill="#65B599" fill-opacity="1.000000" fill-rule="nonzero"/>
	<path id="Vector" d="M399.39 107.98C399.41 108.02 399.56 108.03 399.56 108.07L399.56 183.46C399.57 183.73 399.51 184 399.39 184.23C399.39 184.23 399.36 184.23 399.36 184.25L399.34 184.25C399.26 184.4 399.11 184.54 398.93 184.54L358.11 184.54C357.75 184.54 357.47 184.03 357.47 183.4L357.47 142.35L233.5 142.35C232.14 142.35 230.96 142.11 230.96 141.84L230.96 108C230.96 107.71 232.14 107.48 233.5 107.48L398.93 107.48C399.12 107.48 399.29 107.66 399.39 107.92L399.39 107.98Z" fill="#FF8682" fill-opacity="1.000000" fill-rule="nonzero"/>
	<path id="Vector" d="M140.42 12L66.56 12C35.34 12 10 48.11 10 92.66L10 191L197 191L197 92.66C197 48.11 171.68 12 140.42 12Z" fill="#546869" fill-opacity="1.000000" fill-rule="nonzero"/>
</svg>
