<svg width="16.000000" height="16.000000" viewBox="0 0 16 16" fill="none" xmlns="http://www.w3.org/2000/svg" xmlns:xlink="http://www.w3.org/1999/xlink">
	<desc>
			Created with Pixso.
	</desc>
	<defs>
		<clipPath id="clip104_1030">
			<rect id="Filled=True" width="16.000000" height="16.000000" fill="white" fill-opacity="0"/>
		</clipPath>
	</defs>
	<rect id="Filled=True" width="16.000000" height="16.000000" fill="#FFFFFF" fill-opacity="0"/>
	<g clip-path="url(#clip104_1030)">
		<path id="Vector" d="M13.5 5.5L10 5.5L10 2C10 1.6 9.84 1.22 9.56 0.93C9.27 0.65 8.89 0.5 8.5 0.5L2.5 0.5C2.1 0.5 1.72 0.65 1.43 0.93C1.15 1.22 1 1.6 1 2L1 15C1 15.13 1.05 15.25 1.14 15.35C1.24 15.44 1.36 15.5 1.5 15.5L4.75 15.5C4.81 15.5 4.87 15.47 4.92 15.42C4.97 15.37 5 15.31 5 15.25L5 13.01C5 12.74 5.2 12.51 5.47 12.5C5.54 12.49 5.61 12.5 5.67 12.53C5.73 12.55 5.79 12.59 5.84 12.63C5.89 12.68 5.93 12.74 5.95 12.8C5.98 12.86 6 12.93 6 13L6 15.25C6 15.31 6.02 15.37 6.07 15.42C6.12 15.47 6.18 15.5 6.25 15.5L14.5 15.5C14.63 15.5 14.75 15.44 14.85 15.35C14.94 15.25 15 15.13 15 15L15 7C15 6.6 14.84 6.22 14.56 5.93C14.27 5.65 13.89 5.5 13.5 5.5ZM3.06 13.49C2.96 13.5 2.85 13.49 2.76 13.44C2.67 13.39 2.59 13.31 2.55 13.22C2.5 13.12 2.49 13.02 2.5 12.91C2.52 12.81 2.57 12.72 2.64 12.64C2.72 12.57 2.81 12.52 2.91 12.5C3.02 12.48 3.12 12.5 3.22 12.55C3.31 12.59 3.39 12.67 3.44 12.76C3.49 12.85 3.5 12.96 3.49 13.06C3.48 13.17 3.43 13.27 3.35 13.35C3.27 13.43 3.17 13.48 3.06 13.49ZM3.06 10.99C2.96 11 2.85 10.99 2.76 10.94C2.67 10.89 2.59 10.81 2.55 10.72C2.5 10.62 2.49 10.52 2.5 10.41C2.52 10.31 2.57 10.22 2.64 10.14C2.72 10.07 2.81 10.02 2.91 10C3.02 9.98 3.12 10 3.22 10.05C3.31 10.09 3.39 10.17 3.44 10.26C3.49 10.35 3.5 10.46 3.49 10.56C3.48 10.67 3.43 10.77 3.35 10.85C3.27 10.93 3.17 10.98 3.06 10.99ZM3.06 8.49C2.96 8.5 2.85 8.49 2.76 8.44C2.67 8.39 2.59 8.31 2.55 8.22C2.5 8.12 2.49 8.02 2.5 7.91C2.52 7.81 2.57 7.72 2.64 7.64C2.72 7.57 2.81 7.52 2.91 7.5C3.02 7.48 3.12 7.5 3.22 7.55C3.31 7.59 3.39 7.67 3.44 7.76C3.49 7.85 3.5 7.96 3.49 8.06C3.48 8.17 3.43 8.27 3.35 8.35C3.27 8.43 3.17 8.48 3.06 8.49ZM3.06 5.99C2.96 6 2.85 5.99 2.76 5.94C2.67 5.89 2.59 5.81 2.55 5.72C2.5 5.62 2.49 5.52 2.5 5.41C2.52 5.31 2.57 5.22 2.64 5.14C2.72 5.07 2.81 5.02 2.91 5C3.02 4.98 3.12 5 3.22 5.05C3.31 5.09 3.39 5.17 3.44 5.26C3.49 5.35 3.5 5.46 3.49 5.56C3.48 5.67 3.43 5.77 3.35 5.85C3.27 5.93 3.17 5.98 3.06 5.99ZM3.06 3.49C2.96 3.5 2.85 3.49 2.76 3.44C2.67 3.39 2.59 3.31 2.55 3.22C2.5 3.12 2.49 3.02 2.5 2.91C2.52 2.81 2.57 2.72 2.64 2.64C2.72 2.57 2.81 2.52 2.91 2.5C3.02 2.48 3.12 2.5 3.22 2.55C3.31 2.59 3.39 2.67 3.44 2.76C3.49 2.85 3.5 2.96 3.49 3.06C3.48 3.17 3.43 3.27 3.35 3.35C3.27 3.43 3.17 3.48 3.06 3.49ZM5.56 10.99C5.46 11 5.35 10.99 5.26 10.94C5.17 10.89 5.09 10.81 5.05 10.72C5 10.62 4.99 10.52 5 10.41C5.02 10.31 5.07 10.22 5.14 10.14C5.22 10.07 5.31 10.02 5.41 10C5.52 9.98 5.62 10 5.72 10.05C5.81 10.09 5.89 10.17 5.94 10.26C5.99 10.35 6 10.46 5.99 10.56C5.98 10.67 5.93 10.77 5.85 10.85C5.77 10.93 5.67 10.98 5.56 10.99ZM5.56 8.49C5.46 8.5 5.35 8.49 5.26 8.44C5.17 8.39 5.09 8.31 5.05 8.22C5 8.12 4.99 8.02 5 7.91C5.02 7.81 5.07 7.72 5.14 7.64C5.22 7.57 5.31 7.52 5.41 7.5C5.52 7.48 5.62 7.5 5.72 7.55C5.81 7.59 5.89 7.67 5.94 7.76C5.99 7.85 6 7.96 5.99 8.06C5.98 8.17 5.93 8.27 5.85 8.35C5.77 8.43 5.67 8.48 5.56 8.49ZM5.56 5.99C5.46 6 5.35 5.99 5.26 5.94C5.17 5.89 5.09 5.81 5.05 5.72C5 5.62 4.99 5.52 5 5.41C5.02 5.31 5.07 5.22 5.14 5.14C5.22 5.07 5.31 5.02 5.41 5C5.52 4.98 5.62 5 5.72 5.05C5.81 5.09 5.89 5.17 5.94 5.26C5.99 5.35 6 5.46 5.99 5.56C5.98 5.67 5.93 5.77 5.85 5.85C5.77 5.93 5.67 5.98 5.56 5.99ZM5.56 3.49C5.46 3.5 5.35 3.49 5.26 3.44C5.17 3.39 5.09 3.31 5.05 3.22C5 3.12 4.99 3.02 5 2.91C5.02 2.81 5.07 2.72 5.14 2.64C5.22 2.57 5.31 2.52 5.41 2.5C5.52 2.48 5.62 2.5 5.72 2.55C5.81 2.59 5.89 2.67 5.94 2.76C5.99 2.85 6 2.96 5.99 3.06C5.98 3.17 5.93 3.27 5.85 3.35C5.77 3.43 5.67 3.48 5.56 3.49ZM8.06 13.49C7.96 13.5 7.85 13.49 7.76 13.44C7.67 13.39 7.59 13.31 7.55 13.22C7.5 13.12 7.49 13.02 7.5 12.91C7.52 12.81 7.57 12.72 7.64 12.64C7.72 12.57 7.81 12.52 7.91 12.5C8.02 12.48 8.12 12.5 8.22 12.55C8.31 12.59 8.39 12.67 8.44 12.76C8.49 12.85 8.5 12.96 8.49 13.06C8.48 13.17 8.43 13.27 8.35 13.35C8.27 13.43 8.17 13.48 8.06 13.49ZM8.06 10.99C7.96 11 7.85 10.99 7.76 10.94C7.67 10.89 7.59 10.81 7.55 10.72C7.5 10.62 7.49 10.52 7.5 10.41C7.52 10.31 7.57 10.22 7.64 10.14C7.72 10.07 7.81 10.02 7.91 10C8.02 9.98 8.12 10 8.22 10.05C8.31 10.09 8.39 10.17 8.44 10.26C8.49 10.35 8.5 10.46 8.49 10.56C8.48 10.67 8.43 10.77 8.35 10.85C8.27 10.93 8.17 10.98 8.06 10.99ZM8.06 8.49C7.96 8.5 7.85 8.49 7.76 8.44C7.67 8.39 7.59 8.31 7.55 8.22C7.5 8.12 7.49 8.02 7.5 7.91C7.52 7.81 7.57 7.72 7.64 7.64C7.72 7.57 7.81 7.52 7.91 7.5C8.02 7.48 8.12 7.5 8.22 7.55C8.31 7.59 8.39 7.67 8.44 7.76C8.49 7.85 8.5 7.96 8.49 8.06C8.48 8.17 8.43 8.27 8.35 8.35C8.27 8.43 8.17 8.48 8.06 8.49ZM8.06 5.99C7.96 6 7.85 5.99 7.76 5.94C7.67 5.89 7.59 5.81 7.55 5.72C7.5 5.62 7.49 5.52 7.5 5.41C7.52 5.31 7.57 5.22 7.64 5.14C7.72 5.07 7.81 5.02 7.91 5C8.02 4.98 8.12 5 8.22 5.05C8.31 5.09 8.39 5.17 8.44 5.26C8.49 5.35 8.5 5.46 8.49 5.56C8.48 5.67 8.43 5.77 8.35 5.85C8.27 5.93 8.17 5.98 8.06 5.99ZM8.06 3.49C7.96 3.5 7.85 3.49 7.76 3.44C7.67 3.39 7.59 3.31 7.55 3.22C7.5 3.12 7.49 3.02 7.5 2.91C7.52 2.81 7.57 2.72 7.64 2.64C7.72 2.57 7.81 2.52 7.91 2.5C8.02 2.48 8.12 2.5 8.22 2.55C8.31 2.59 8.39 2.67 8.44 2.76C8.49 2.85 8.5 2.96 8.49 3.06C8.48 3.17 8.43 3.27 8.35 3.35C8.27 3.43 8.17 3.48 8.06 3.49ZM13.87 14.5L10 14.5L10 6.5L13.5 6.5C13.63 6.5 13.75 6.55 13.85 6.64C13.94 6.74 14 6.86 14 7L14 14.37C14 14.4 13.98 14.43 13.96 14.46C13.94 14.48 13.9 14.5 13.87 14.5Z" fill="#000000" fill-opacity="1.000000" fill-rule="nonzero"/>
		<path id="Vector" d="" fill="#112211" fill-opacity="1.000000" fill-rule="evenodd"/>
		<path id="Vector" d="M12.5 12.5C12.4 12.5 12.3 12.52 12.22 12.58C12.13 12.63 12.07 12.71 12.03 12.8C12 12.9 11.99 13 12 13.09C12.02 13.19 12.07 13.28 12.14 13.35C12.21 13.42 12.3 13.47 12.4 13.49C12.49 13.5 12.59 13.49 12.69 13.46C12.78 13.42 12.86 13.36 12.91 13.27C12.97 13.19 13 13.09 13 13C13 12.86 12.94 12.74 12.85 12.64C12.75 12.55 12.63 12.5 12.5 12.5ZM12.5 10C12.4 10 12.3 10.02 12.22 10.08C12.13 10.13 12.07 10.21 12.03 10.3C12 10.4 11.99 10.5 12 10.59C12.02 10.69 12.07 10.78 12.14 10.85C12.21 10.92 12.3 10.97 12.4 10.99C12.49 11 12.59 10.99 12.69 10.96C12.78 10.92 12.86 10.86 12.91 10.77C12.97 10.69 13 10.59 13 10.5C13 10.36 12.94 10.24 12.85 10.14C12.75 10.05 12.63 10 12.5 10ZM12.5 7.5C12.4 7.5 12.3 7.52 12.22 7.58C12.13 7.63 12.07 7.71 12.03 7.8C12 7.9 11.99 8 12 8.09C12.02 8.19 12.07 8.28 12.14 8.35C12.21 8.42 12.3 8.47 12.4 8.49C12.49 8.5 12.59 8.49 12.69 8.46C12.78 8.42 12.86 8.36 12.91 8.27C12.97 8.19 13 8.09 13 8C13 7.86 12.94 7.74 12.85 7.64C12.75 7.55 12.63 7.5 12.5 7.5ZM10.5 12.5C10.4 12.5 10.3 12.52 10.22 12.58C10.13 12.63 10.07 12.71 10.03 12.8C10 12.9 9.99 13 10 13.09C10.02 13.19 10.07 13.28 10.14 13.35C10.21 13.42 10.3 13.47 10.4 13.49C10.49 13.5 10.59 13.49 10.69 13.46C10.78 13.42 10.86 13.36 10.91 13.27C10.97 13.19 11 13.09 11 13C11 12.86 10.94 12.74 10.85 12.64C10.75 12.55 10.63 12.5 10.5 12.5ZM10.5 10C10.4 10 10.3 10.02 10.22 10.08C10.13 10.13 10.07 10.21 10.03 10.3C10 10.4 9.99 10.5 10 10.59C10.02 10.69 10.07 10.78 10.14 10.85C10.21 10.92 10.3 10.97 10.4 10.99C10.49 11 10.59 10.99 10.69 10.96C10.78 10.92 10.86 10.86 10.91 10.77C10.97 10.69 11 10.59 11 10.5C11 10.36 10.94 10.24 10.85 10.14C10.75 10.05 10.63 10 10.5 10ZM10.5 7.5C10.4 7.5 10.3 7.52 10.22 7.58C10.13 7.63 10.07 7.71 10.03 7.8C10 7.9 9.99 8 10 8.09C10.02 8.19 10.07 8.28 10.14 8.35C10.21 8.42 10.3 8.47 10.4 8.49C10.49 8.5 10.59 8.49 10.69 8.46C10.78 8.42 10.86 8.36 10.91 8.27C10.97 8.19 11 8.09 11 8C11 7.86 10.94 7.74 10.85 7.64C10.75 7.55 10.63 7.5 10.5 7.5Z" fill="#000000" fill-opacity="1.000000" fill-rule="nonzero"/>
	</g>
</svg>
