<svg width="15.001953" height="18.000000" viewBox="0 0 15.002 18" fill="none" xmlns="http://www.w3.org/2000/svg" xmlns:xlink="http://www.w3.org/1999/xlink">
	<desc>
			Created with Pixso.
	</desc>
	<defs/>
	<path id="Vector" d="M14.93 1.44L14.93 0.75C14.93 0.55 14.85 0.36 14.71 0.21C14.57 0.07 14.38 0 14.18 0L0.81 0C0.61 0 0.42 0.07 0.28 0.21C0.14 0.36 0.06 0.55 0.06 0.75L0.06 1.44C0 1.98 -0.39 5.7 1.8 8.23C2.96 9.58 4.62 10.33 6.75 10.47L6.75 16.5L3 16.5C2.8 16.5 2.61 16.57 2.47 16.71C2.33 16.86 2.25 17.05 2.25 17.25C2.25 17.44 2.33 17.63 2.47 17.78C2.61 17.92 2.8 18 3 18L12 18C12.2 18 12.39 17.92 12.53 17.78C12.67 17.63 12.75 17.44 12.75 17.25C12.75 17.05 12.67 16.86 12.53 16.71C12.39 16.57 12.2 16.5 12 16.5L8.25 16.5L8.25 10.47C10.37 10.33 12.03 9.58 13.2 8.23C15.38 5.7 15 1.98 14.93 1.44ZM1.56 1.6C1.56 1.57 1.56 1.53 1.56 1.5L13.43 1.5C13.43 1.53 13.43 1.57 13.44 1.6C13.52 2.32 13.52 3.03 13.44 3.75L1.56 3.75C1.48 3.03 1.48 2.32 1.56 1.6Z" fill="#112211" fill-opacity="1.000000" fill-rule="nonzero"/>
</svg>
