<svg width="18.000000" height="19.500000" viewBox="0 0 18 19.5" fill="none" xmlns="http://www.w3.org/2000/svg" xmlns:xlink="http://www.w3.org/1999/xlink">
	<desc>
			Created with Pixso.
	</desc>
	<defs/>
	<path id="Vector" d="M10.12 1.57L10.12 1.12C10.12 0.82 10 0.54 9.79 0.32C9.58 0.11 9.29 0 9 0C8.7 0 8.41 0.11 8.2 0.32C7.99 0.54 7.87 0.82 7.87 1.12L7.87 1.57C6.45 1.74 5.09 2.26 3.91 3.07L3.42 2.57C3.21 2.36 2.92 2.24 2.62 2.24C2.32 2.24 2.03 2.36 1.82 2.57C1.61 2.78 1.49 3.07 1.49 3.37C1.49 3.67 1.61 3.96 1.82 4.17L2.23 4.57C0.79 6.21 -0.01 8.31 0 10.5C0 15.46 4.03 19.5 9 19.5C13.96 19.5 18 15.46 18 10.5C18 5.91 14.55 2.12 10.12 1.57ZM9 12.75C8.46 12.74 7.95 12.56 7.54 12.22C7.14 11.87 6.87 11.4 6.78 10.88C6.69 10.35 6.79 9.81 7.05 9.36C7.32 8.9 7.75 8.55 8.25 8.37L8.25 4.87C8.25 4.67 8.32 4.48 8.46 4.34C8.61 4.2 8.8 4.12 9 4.12C9.19 4.12 9.38 4.2 9.53 4.34C9.67 4.48 9.75 4.67 9.75 4.87L9.75 8.37C10.25 8.55 10.67 8.9 10.94 9.36C11.2 9.81 11.3 10.35 11.21 10.88C11.12 11.4 10.85 11.87 10.45 12.22C10.04 12.56 9.53 12.74 9 12.75Z" fill="#112211" fill-opacity="1.000000" fill-rule="nonzero"/>
</svg>
