<svg width="18.000000" height="18.000000" viewBox="0 0 18 18" fill="none" xmlns="http://www.w3.org/2000/svg" xmlns:xlink="http://www.w3.org/1999/xlink">
	<desc>
			Created with Pixso.
	</desc>
	<defs/>
	<path id="Vector" d="M0 9.05C0 13.52 3.24 17.24 7.5 18L7.5 11.49L5.25 11.49L5.25 9L7.5 9L7.5 6.99C7.5 4.74 8.94 3.5 11 3.5C11.64 3.5 12.35 3.6 12.99 3.69L12.99 6L11.85 6C10.74 6 10.5 6.54 10.5 7.25L10.5 9L12.89 9L12.5 11.49L10.5 11.49L10.5 18C14.75 17.24 18 13.52 18 9.05C18 4.07 13.95 0 9 0C4.04 0 0 4.07 0 9.05Z" fill="#112211" fill-opacity="1.000000" fill-rule="evenodd"/>
</svg>
