<?xml version="1.0" encoding="UTF-8" standalone="no"?>
<svg
   width="16.500000"
   height="15.250061"
   viewBox="0 0 16.5 15.2501"
   fill="none"
   version="1.1"
   id="svg1"
   sodipodi:docname="favourites_transparent.svg"
   inkscape:version="1.3.2 (091e20e, 2023-11-25, custom)"
   xmlns:inkscape="http://www.inkscape.org/namespaces/inkscape"
   xmlns:sodipodi="http://sodipodi.sourceforge.net/DTD/sodipodi-0.dtd"
   xmlns="http://www.w3.org/2000/svg"
   xmlns:svg="http://www.w3.org/2000/svg">
  <sodipodi:namedview
     id="namedview1"
     pagecolor="#ffffff"
     bordercolor="#000000"
     borderopacity="0.25"
     inkscape:showpageshadow="2"
     inkscape:pageopacity="0.0"
     inkscape:pagecheckerboard="0"
     inkscape:deskcolor="#d1d1d1"
     inkscape:zoom="51.606351"
     inkscape:cx="8.254798"
     inkscape:cy="7.6250305"
     inkscape:window-width="1920"
     inkscape:window-height="1001"
     inkscape:window-x="-9"
     inkscape:window-y="-9"
     inkscape:window-maximized="1"
     inkscape:current-layer="svg1" />
  <desc
     id="desc1">
			Created with Pixso.
	</desc>
  <defs
     id="defs1" />
  <path
     style="color:#000000;fill:#000000;stroke-linejoin:round;-inkscape-stroke:none"
     d="M 4.4609375,0 C 1.9841303,0 0.0248347,2.0708279 0,4.5214844 -0.02737533,6.8593373 0.91264295,8.8714433 2.3105469,10.576172 3.7084508,12.2809 5.562665,13.712006 7.46875,15.009766 a 0.750075,0.750075 0 0 0 0.019531,0.01367 C 7.6975353,15.156599 7.9661541,15.25 8.25,15.25 c 0.2866664,0 0.542699,-0.0934 0.7519531,-0.226562 a 0.750075,0.750075 0 0 0 0.019531,-0.01367 C 10.927569,13.712006 12.780676,12.280638 14.179688,10.576172 15.578699,8.8717053 16.521897,6.86089 16.5,4.5234375 a 0.750075,0.750075 0 0 0 0,-0.00391 C 16.464329,2.0701063 14.50677,0 12.029297,0 9.9339377,0 8.8683474,1.1600649 8.25,2.0195313 7.6307817,1.1601279 6.5624764,0 4.4609375,0 Z m 0,1.5 c 2.047872,0 3.1191406,2.0859375 3.1191406,2.0859375 a 0.750075,0.750075 0 0 0 1.3398438,0 c 0,0 1.0734482,-2.0859375 3.1093751,-2.0859375 1.641883,0 2.945388,1.3693765 2.970703,3.0390625 10e-6,6.508e-4 -9e-6,0.0013 0,0.00195 0.01702,1.930783 -0.735353,3.567014 -1.980469,5.0839844 -1.229932,1.498472 -2.94631,2.845169 -4.7734372,4.09375 C 6.418476,12.469918 4.6995557,11.123572 3.4707031,9.625 2.2261097,8.1072318 1.4773754,6.4712053 1.5,4.5390625 a 0.750075,0.750075 0 0 0 0,-0.00195 C 1.5161988,2.8686336 2.8184149,1.5 4.4609375,1.5 Z"
     id="Vector" />
</svg>
