<svg width="24.000000" height="24.000000" viewBox="0 0 24 24" fill="none" xmlns="http://www.w3.org/2000/svg" xmlns:xlink="http://www.w3.org/1999/xlink">
	<desc>
			Created with Pixso.
	</desc>
	<defs>
		<clipPath id="clip69_5695">
			<rect id="ion:fast-food" width="24.000000" height="24.000000" fill="white" fill-opacity="0"/>
		</clipPath>
	</defs>
	<rect id="ion:fast-food" width="24.000000" height="24.000000" fill="#FFFFFF" fill-opacity="0"/>
	<g clip-path="url(#clip69_5695)">
		<path id="Vector" d="M17.25 6L17.25 6L17.25 6ZM22.47 4.5L18.2 4.5L18.62 2.82L20.42 2.21C20.8 2.08 21.03 1.68 20.92 1.29C20.89 1.19 20.84 1.1 20.78 1.02C20.71 0.94 20.64 0.88 20.55 0.83C20.45 0.78 20.36 0.75 20.26 0.75C20.15 0.74 20.05 0.75 19.96 0.78L17.75 1.53C17.63 1.58 17.53 1.64 17.44 1.74C17.36 1.83 17.3 1.94 17.27 2.06L16.66 4.5L10.52 4.5C10.11 4.5 9.77 4.81 9.75 5.21C9.74 5.31 9.76 5.41 9.79 5.51C9.83 5.6 9.88 5.69 9.95 5.76C10.02 5.84 10.11 5.89 10.2 5.93C10.29 5.97 10.39 6 10.5 6L10.62 6L10.67 6.4C10.68 6.5 10.73 6.58 10.8 6.65C10.87 6.71 10.96 6.75 11.06 6.75C12.89 6.75 14.51 7.26 15.75 8.22C16.44 8.75 17 9.44 17.39 10.22C17.6 10.66 17.76 11.12 17.86 11.6C17.88 11.69 17.94 11.78 18.01 11.83C18.65 12.26 19.12 12.9 19.35 13.64C19.57 14.37 19.54 15.17 19.25 15.88C19.22 15.96 19.21 16.06 19.24 16.14C19.41 16.62 19.5 17.12 19.5 17.62C19.5 18.67 19.14 19.67 18.49 20.43C18.12 20.87 17.66 21.21 17.14 21.45C17.05 21.49 16.98 21.56 16.95 21.65C16.75 22.16 16.48 22.63 16.13 23.05C16.12 23.07 16.11 23.09 16.1 23.11C16.1 23.13 16.11 23.15 16.11 23.18C16.12 23.2 16.14 23.21 16.16 23.22C16.18 23.24 16.2 23.24 16.22 23.24L18.53 23.24C19.09 23.24 19.64 23.03 20.05 22.64C20.47 22.26 20.72 21.74 20.77 21.17L22.37 6L22.5 6C22.6 6 22.7 5.97 22.79 5.93C22.88 5.89 22.97 5.84 23.04 5.76C23.11 5.69 23.16 5.6 23.2 5.51C23.23 5.41 23.25 5.31 23.25 5.21C23.23 4.81 22.88 4.5 22.47 4.5Z" fill="#112211" fill-opacity="1.000000" fill-rule="nonzero"/>
		<path id="Vector" d="M5.09 15C5.24 14.99 5.38 15.02 5.52 15.08C5.66 15.14 5.78 15.22 5.89 15.32L6.61 16.05C6.63 16.07 6.65 16.08 6.67 16.09C6.7 16.1 6.72 16.11 6.75 16.11C6.77 16.11 6.8 16.1 6.82 16.09C6.84 16.08 6.86 16.07 6.88 16.05L7.6 15.32C7.71 15.22 7.83 15.14 7.97 15.08C8.11 15.02 8.25 14.99 8.4 15L17.62 15C17.67 15 17.71 14.99 17.76 14.97C17.81 14.95 17.85 14.92 17.88 14.89C17.92 14.85 17.95 14.81 17.96 14.77C17.98 14.72 17.99 14.67 18 14.62L18 14.62C17.99 14.19 17.84 13.77 17.57 13.43C17.3 13.1 16.92 12.87 16.5 12.78C16.46 11.39 15.89 10.23 14.83 9.41C13.85 8.65 12.55 8.25 11.06 8.25L7.68 8.25C4.48 8.25 2.32 10.06 2.25 12.78C1.82 12.87 1.44 13.1 1.17 13.43C0.9 13.77 0.75 14.19 0.75 14.62C0.75 14.72 0.78 14.81 0.85 14.89C0.92 14.96 1.02 15 1.12 15L5.09 15ZM8.71 16.5C8.66 16.49 8.61 16.5 8.57 16.52C8.52 16.54 8.48 16.57 8.45 16.6L7.41 17.64C7.23 17.82 6.99 17.92 6.75 17.92C6.5 17.92 6.26 17.82 6.08 17.64L5.04 16.6C5.01 16.57 4.97 16.54 4.92 16.52C4.88 16.5 4.83 16.49 4.78 16.5L1.53 16.5C1.35 16.49 1.18 16.56 1.04 16.67C0.91 16.78 0.82 16.94 0.79 17.11C0.76 17.28 0.75 17.45 0.75 17.62C0.75 19.05 1.74 20.22 2.96 20.25C3.07 20.95 3.35 21.59 3.76 22.1C4.38 22.84 5.27 23.25 6.28 23.25L12.46 23.25C13.47 23.25 14.36 22.84 14.98 22.09C15.39 21.59 15.67 20.95 15.78 20.24C17 20.22 18 19.05 18 17.62C18 17.45 17.98 17.28 17.95 17.11C17.92 16.94 17.83 16.78 17.7 16.67C17.56 16.56 17.39 16.49 17.21 16.5L8.71 16.5Z" fill="#112211" fill-opacity="1.000000" fill-rule="nonzero"/>
	</g>
</svg>
