<?xml version="1.0" encoding="UTF-8" standalone="no"?>
<svg
   width="10.500000"
   height="10.500000"
   viewBox="0 0 10.5 10.5"
   fill="none"
   version="1.1"
   id="svg1"
   sodipodi:docname="plus.svg"
   inkscape:version="1.3.2 (091e20e, 2023-11-25, custom)"
   xmlns:inkscape="http://www.inkscape.org/namespaces/inkscape"
   xmlns:sodipodi="http://sodipodi.sourceforge.net/DTD/sodipodi-0.dtd"
   xmlns="http://www.w3.org/2000/svg"
   xmlns:svg="http://www.w3.org/2000/svg">
  <sodipodi:namedview
     id="namedview1"
     pagecolor="#ffffff"
     bordercolor="#000000"
     borderopacity="0.25"
     inkscape:showpageshadow="2"
     inkscape:pageopacity="0.0"
     inkscape:pagecheckerboard="0"
     inkscape:deskcolor="#d1d1d1"
     inkscape:zoom="74.952381"
     inkscape:cx="5.2433291"
     inkscape:cy="3.1153113"
     inkscape:window-width="1920"
     inkscape:window-height="1001"
     inkscape:window-x="-9"
     inkscape:window-y="-9"
     inkscape:window-maximized="1"
     inkscape:current-layer="svg1" />
  <desc
     id="desc1">
			Created with Pixso.
	</desc>
  <defs
     id="defs1" />
  <path
     id="Vector"
     d="M5.25 0.75L5.25 9.75L5.25 0.75ZM9.75 5.25L0.75 5.25L9.75 5.25ZM4.52 0.76L4.5 0.75C4.5 0.32 4.83 0 5.25 0C5.66 0 6 0.32 6 0.75L5.97 0.76L4.52 0.76ZM5.97 9.73L6 9.75C6 10.17 5.66 10.5 5.25 10.5C4.83 10.5 4.5 10.17 4.5 9.75L4.52 9.73L5.97 9.73ZM9.72 4.51L9.75 4.5C10.16 4.5 10.5 4.82 10.5 5.25C10.5 5.67 10.16 6 9.75 6L9.72 5.98L9.72 4.51ZM0.77 5.98L0.75 6C0.33 6 0 5.67 0 5.25C0 4.82 0.33 4.5 0.75 4.5L0.77 4.51L0.77 5.98Z"
     fill="#112211"
     fill-opacity="1.000000"
     fill-rule="nonzero" />
  <path
     style="color:#000000;fill:#112211;stroke-linejoin:round;-inkscape-stroke:none"
     d="M 4.5,0.75 V 4.5 H 0.75 V 6 H 4.5 V 9.75 H 6 V 6 H 9.75 V 4.5 H 6 V 0.75 Z"
     id="path1" />
</svg>
