<svg width="20.000000" height="15.000000" viewBox="0 0 20 15" fill="none" xmlns="http://www.w3.org/2000/svg" xmlns:xlink="http://www.w3.org/1999/xlink">
	<desc>
			Created with Pixso.
	</desc>
	<defs/>
	<path id="Vector" d="M1 15C0.71 15 0.47 14.9 0.28 14.71C0.09 14.52 0 14.28 0 14C0 13.71 0.09 13.47 0.28 13.28C0.47 13.09 0.71 13 1 13L19 13C19.28 13 19.52 13.09 19.71 13.28C19.9 13.47 20 13.71 20 14C20 14.28 19.9 14.52 19.71 14.71C19.52 14.9 19.28 15 19 15L1 15ZM1 12L1 11C1 8.86 1.65 6.98 2.96 5.35C4.27 3.71 5.94 2.68 8 2.25L8 2C8 1.44 8.19 0.97 8.58 0.58C8.97 0.19 9.44 0 10 0C10.55 0 11.02 0.19 11.41 0.58C11.8 0.97 12 1.44 12 2L12 2.25C14.06 2.68 15.75 3.71 17.05 5.35C18.34 6.98 19 8.86 19 11L19 12L1 12Z" fill="#112211" fill-opacity="1.000000" fill-rule="nonzero"/>
</svg>
