<svg width="22.500000" height="15.000000" viewBox="0 0 22.5 15" fill="none" xmlns="http://www.w3.org/2000/svg" xmlns:xlink="http://www.w3.org/1999/xlink">
	<desc>
			Created with Pixso.
	</desc>
	<defs/>
	<path id="Vector" d="M22.25 6.68C21.01 4.76 19.41 3.13 17.6 1.97C15.6 0.68 13.4 0 11.23 0C9.24 0 7.28 0.56 5.41 1.69C3.5 2.83 1.77 4.51 0.26 6.66C0.09 6.9 0 7.19 0 7.49C-0.01 7.78 0.07 8.08 0.23 8.33C1.47 10.26 3.07 11.89 4.84 13.04C6.84 14.34 8.99 15 11.23 15C13.42 15 15.63 14.32 17.61 13.04C19.42 11.88 21.02 10.24 22.26 8.31C22.41 8.07 22.5 7.78 22.5 7.49C22.5 7.2 22.41 6.92 22.25 6.68ZM11.25 12C10.36 12 9.49 11.73 8.75 11.24C8.01 10.74 7.43 10.04 7.09 9.22C6.75 8.39 6.66 7.49 6.83 6.62C7.01 5.74 7.43 4.94 8.06 4.31C8.69 3.68 9.5 3.26 10.37 3.08C11.24 2.91 12.15 3 12.97 3.34C13.79 3.68 14.49 4.25 14.99 4.99C15.48 5.73 15.75 6.6 15.75 7.5C15.75 8.69 15.27 9.83 14.43 10.68C13.58 11.52 12.44 11.99 11.25 12Z" fill="#000000" fill-opacity="1.000000" fill-rule="nonzero"/>
</svg>
