<svg width="24.000000" height="24.000000" viewBox="0 0 24 24" fill="none" xmlns="http://www.w3.org/2000/svg" xmlns:xlink="http://www.w3.org/1999/xlink">
	<desc>
			Created with Pixso.
	</desc>
	<defs>
		<clipPath id="clip104_1461">
			<rect id="Fill=True" width="24.000000" height="24.000000" fill="white" fill-opacity="0"/>
		</clipPath>
	</defs>
	<rect id="Fill=True" width="24.000000" height="24.000000" fill="#FFFFFF" fill-opacity="0"/>
	<g clip-path="url(#clip104_1461)">
		<path id="Vector" d="M20.25 21C20.15 21 20.05 20.98 19.96 20.94C19.87 20.9 19.78 20.84 19.72 20.78L3.22 4.28C3.08 4.13 3.01 3.94 3.01 3.75C3.01 3.55 3.09 3.37 3.23 3.23C3.37 3.09 3.55 3.01 3.75 3.01C3.94 3.01 4.13 3.08 4.27 3.21L20.77 19.71C20.88 19.82 20.95 19.95 20.98 20.1C21.01 20.24 21 20.39 20.94 20.53C20.88 20.67 20.78 20.79 20.66 20.87C20.54 20.95 20.39 20.99 20.25 21ZM11.62 14.8L9.19 12.37C9.18 12.36 9.16 12.35 9.14 12.35C9.12 12.34 9.1 12.35 9.08 12.36C9.07 12.36 9.05 12.38 9.04 12.4C9.03 12.41 9.03 12.43 9.03 12.45C9.13 13.08 9.43 13.66 9.88 14.11C10.33 14.57 10.91 14.86 11.54 14.96C11.56 14.96 11.58 14.96 11.6 14.95C11.61 14.94 11.63 14.93 11.64 14.91C11.65 14.89 11.65 14.87 11.65 14.85C11.64 14.83 11.63 14.81 11.62 14.8ZM12.37 9.19L14.8 11.62C14.82 11.63 14.83 11.64 14.85 11.65C14.87 11.65 14.89 11.65 14.91 11.64C14.93 11.63 14.94 11.62 14.95 11.6C14.96 11.58 14.96 11.56 14.96 11.54C14.86 10.91 14.57 10.33 14.12 9.88C13.66 9.42 13.08 9.13 12.45 9.03C12.43 9.03 12.41 9.03 12.39 9.04C12.38 9.05 12.36 9.06 12.35 9.08C12.34 9.1 12.34 9.12 12.34 9.14C12.35 9.16 12.36 9.18 12.37 9.19Z" fill="#000000" fill-opacity="1.000000" fill-rule="nonzero"/>
		<path id="Vector" d="M23.01 12.81C23.16 12.57 23.25 12.28 23.25 11.99C23.25 11.7 23.16 11.42 23.01 11.18C21.77 9.26 20.16 7.63 18.35 6.47C16.35 5.18 14.15 4.5 11.98 4.5C10.83 4.5 9.7 4.68 8.61 5.05C8.58 5.06 8.56 5.08 8.53 5.1C8.51 5.12 8.5 5.15 8.49 5.18C8.48 5.21 8.48 5.25 8.49 5.28C8.5 5.31 8.52 5.34 8.54 5.36L10.75 7.57C10.78 7.6 10.81 7.61 10.84 7.62C10.87 7.63 10.9 7.63 10.93 7.62C11.68 7.44 12.47 7.45 13.21 7.66C13.96 7.87 14.64 8.27 15.18 8.81C15.73 9.36 16.12 10.04 16.33 10.78C16.54 11.52 16.55 12.31 16.37 13.06C16.36 13.09 16.36 13.12 16.37 13.16C16.38 13.19 16.4 13.22 16.42 13.24L19.61 16.43C19.64 16.46 19.68 16.48 19.73 16.48C19.78 16.48 19.82 16.47 19.86 16.44C21.08 15.39 22.15 14.17 23.01 12.81ZM12 16.5C11.31 16.5 10.64 16.34 10.03 16.04C9.42 15.75 8.88 15.31 8.46 14.78C8.04 14.24 7.74 13.62 7.6 12.95C7.45 12.29 7.46 11.6 7.62 10.93C7.63 10.9 7.63 10.87 7.62 10.84C7.61 10.81 7.59 10.78 7.57 10.76L4.44 7.62C4.41 7.59 4.36 7.57 4.32 7.57C4.27 7.56 4.22 7.58 4.19 7.61C3.04 8.59 1.98 9.77 1.01 11.16C0.84 11.4 0.75 11.69 0.75 11.99C0.74 12.28 0.82 12.58 0.98 12.83C2.22 14.76 3.82 16.39 5.59 17.54C7.59 18.84 9.74 19.5 11.98 19.5C13.14 19.49 14.28 19.31 15.39 18.95C15.41 18.94 15.44 18.93 15.47 18.9C15.49 18.88 15.5 18.85 15.51 18.82C15.52 18.79 15.52 18.76 15.51 18.72C15.5 18.69 15.48 18.67 15.46 18.64L13.24 16.42C13.21 16.39 13.18 16.38 13.15 16.37C13.12 16.36 13.09 16.36 13.06 16.37C12.71 16.45 12.35 16.5 12 16.5Z" fill="#000000" fill-opacity="1.000000" fill-rule="nonzero"/>
	</g>
</svg>
