<svg width="16.000000" height="13.013123" viewBox="0 0 16 13.0131" fill="none" xmlns="http://www.w3.org/2000/svg" xmlns:xlink="http://www.w3.org/1999/xlink">
	<desc>
			Created with Pixso.
	</desc>
	<defs/>
	<path id="Vector" d="M14.8 5.06C14.36 4.74 13.82 4.5 13.25 4.37C13.16 4.35 13.08 4.31 13.01 4.24C12.94 4.17 12.89 4.08 12.87 3.99C12.63 2.91 12.1 1.97 11.33 1.27C10.44 0.45 9.25 0 8 0C6.89 0 5.87 0.34 5.05 1C4.49 1.44 4.04 2.01 3.73 2.65C3.7 2.72 3.65 2.79 3.59 2.83C3.53 2.88 3.45 2.91 3.38 2.93C2.54 3.1 1.79 3.46 1.21 3.97C0.41 4.67 0 5.6 0 6.67C0 7.75 0.45 8.73 1.27 9.44C2.06 10.12 3.11 10.5 4.25 10.5L7.5 10.5L7.5 5.7L6.35 6.85C6.3 6.9 6.24 6.93 6.18 6.96C6.12 6.98 6.05 7 5.98 7C5.91 6.99 5.85 6.98 5.79 6.95C5.73 6.92 5.67 6.88 5.62 6.83C5.44 6.63 5.46 6.32 5.65 6.13L7.64 4.14C7.74 4.05 7.86 4 8 4C8.13 4 8.25 4.05 8.35 4.14L10.34 6.13C10.53 6.33 10.55 6.65 10.35 6.85C10.31 6.89 10.25 6.93 10.19 6.96C10.13 6.98 10.06 6.99 10 7C9.93 7 9.87 6.98 9.81 6.96C9.75 6.93 9.69 6.9 9.64 6.85L8.5 5.7L8.5 10.5L12.37 10.5C13.35 10.5 14.24 10.22 14.88 9.72C15.61 9.16 16 8.35 16 7.38C16 6.45 15.58 5.64 14.8 5.06ZM7.5 12.51C7.5 12.64 7.55 12.77 7.64 12.86C7.74 12.96 7.86 13.01 8 13.01C8.13 13.01 8.25 12.96 8.35 12.86C8.44 12.77 8.5 12.64 8.5 12.51L8.5 10.5L7.5 10.5L7.5 12.51Z" fill="#000000" fill-opacity="1.000000" fill-rule="nonzero"/>
	<path id="Vector" d="" fill="#112211" fill-opacity="1.000000" fill-rule="evenodd"/>
</svg>
