<?xml version="1.0" encoding="UTF-8" standalone="no"?>
<svg
   width="24.000000"
   height="24.000000"
   viewBox="0 0 24 24"
   fill="none"
   version="1.1"
   id="svg2"
   sodipodi:docname="wifi.svg"
   inkscape:version="1.3.2 (091e20e, 2023-11-25, custom)"
   xmlns:inkscape="http://www.inkscape.org/namespaces/inkscape"
   xmlns:sodipodi="http://sodipodi.sourceforge.net/DTD/sodipodi-0.dtd"
   xmlns="http://www.w3.org/2000/svg"
   xmlns:svg="http://www.w3.org/2000/svg">
  <sodipodi:namedview
     id="namedview2"
     pagecolor="#ffffff"
     bordercolor="#000000"
     borderopacity="0.25"
     inkscape:showpageshadow="2"
     inkscape:pageopacity="0.0"
     inkscape:pagecheckerboard="0"
     inkscape:deskcolor="#d1d1d1"
     inkscape:zoom="11.313709"
     inkscape:cx="41.277358"
     inkscape:cy="31.687223"
     inkscape:window-width="1920"
     inkscape:window-height="1001"
     inkscape:window-x="-9"
     inkscape:window-y="-9"
     inkscape:window-maximized="1"
     inkscape:current-layer="svg2" />
  <desc
     id="desc1">
			Created with Pixso.
	</desc>
  <defs
     id="defs1">
    <clipPath
       id="clip65_5792">
      <rect
         id="Wifi"
         width="24.000000"
         height="24.000000"
         fill="white"
         fill-opacity="0" />
    </clipPath>
  </defs>
  <rect
     id="rect1"
     width="24.000000"
     height="24.000000"
     fill="#FFFFFF"
     fill-opacity="0" />
  <g
     clip-path="url(#clip65_5792)"
     id="g2"
     transform="matrix(1.2004814,0,0,1.557121,-2.3874802,-6.3675444)">
    <path
       style="color:#000000;fill:#112211;stroke-linejoin:round;-inkscape-stroke:none"
       d="m 12,8.1503906 c -2.6527751,0 -5.1969237,1.0072708 -7.1308594,2.8085934 l 1.3632813,1.462891 C 7.7984827,10.963201 9.8527799,10.150391 12,10.150391 c 2.136162,0 4.191752,0.81281 5.757812,2.271484 l 1.363282,-1.462891 C 17.187158,9.1576614 14.643833,8.1503906 12,8.1503906 Z m 0,4.0390624 c -1.567473,0 -3.0788048,0.580143 -4.25,1.609375 l 1.3203125,1.501953 C 9.8791153,14.590015 10.927476,14.189453 12,14.189453 c 1.072524,0 2.108611,0.398358 2.919922,1.111328 l 1.320312,-1.501953 C 15.071547,12.7718 13.567473,12.189453 12,12.189453 Z"
       id="Vector" />
    <path
       style="color:#000000;fill:#112211;stroke-linecap:round;stroke-linejoin:round;-inkscape-stroke:none"
       d="m 12,4.109375 c -3.5629683,0 -7.0015739,1.3005448 -9.65625,3.6757812 A 1,1 0 0 0 2.265625,9.1972656 1,1 0 0 0 3.6777344,9.2753906 C 5.9630534,7.2306315 8.922975,6.109375 12,6.109375 c 3.066291,0 6.027181,1.1212565 8.3125,3.1660156 a 1,1 0 0 0 1.412109,-0.078125 1,1 0 0 0 -0.07813,-1.4121094 C 18.991808,5.4099198 15.553702,4.109375 12,4.109375 Z"
       id="path1" />
    <path
       id="path2"
       d="m 12,19.5 c -0.3,0 -0.59,-0.09 -0.84,-0.26 -0.25,-0.16 -0.44,-0.4 -0.55,-0.67 -0.11,-0.28 -0.14,-0.58 -0.09,-0.87 0.06,-0.29 0.2,-0.56 0.41,-0.77 0.21,-0.21 0.48,-0.35 0.77,-0.41 0.29,-0.05 0.59,-0.02 0.87,0.09 0.27,0.11 0.51,0.31 0.67,0.55 0.17,0.25 0.26,0.54 0.26,0.84 0,0.39 -0.16,0.77 -0.44,1.06 -0.29,0.28 -0.67,0.44 -1.06,0.44 z"
       fill="#112211"
       fill-opacity="1"
       fill-rule="nonzero" />
  </g>
</svg>
