<svg width="20.002441" height="13.341553" viewBox="0 0 20.0024 13.3416" fill="none" xmlns="http://www.w3.org/2000/svg" xmlns:xlink="http://www.w3.org/1999/xlink">
	<desc>
			Created with Pixso.
	</desc>
	<defs/>
	<path id="Vector" d="M19.58 2.09C19.47 1.68 19.25 1.32 18.94 1.03C18.63 0.73 18.24 0.52 17.83 0.41C16.26 0 9.99 0 9.99 0C7.38 -0.03 4.76 0.1 2.17 0.39C1.75 0.51 1.36 0.72 1.05 1.02C0.74 1.32 0.52 1.69 0.4 2.09C0.12 3.6 -0.01 5.13 0 6.67C-0.01 8.2 0.12 9.73 0.4 11.24C0.52 11.64 0.74 12.01 1.05 12.3C1.36 12.6 1.74 12.81 2.17 12.92C3.75 13.33 9.99 13.33 9.99 13.33C12.61 13.36 15.22 13.23 17.83 12.94C18.24 12.83 18.63 12.62 18.94 12.32C19.25 12.03 19.47 11.67 19.58 11.26C19.87 9.76 20.01 8.22 20 6.68C20.02 5.14 19.88 3.6 19.58 2.09L19.58 2.09ZM8 9.52L8 3.81L13.21 6.67L8 9.52Z" fill="#112211" fill-opacity="1.000000" fill-rule="nonzero"/>
</svg>
