<svg width="120.003418" height="39.147217" viewBox="0 0 120.003 39.1472" fill="none" xmlns="http://www.w3.org/2000/svg" xmlns:xlink="http://www.w3.org/1999/xlink">
	<desc>
			Created with Pixso.
	</desc>
	<defs/>
	<path id="Vector" d="M16.01 6.06L19.51 8.7L17.37 11.42C18.85 13.09 19.39 15 19.39 17.1C19.39 19.47 18.5 22.81 15.35 24.25C18.54 25.85 19.31 28.14 19.31 30.59C19.31 35.88 15.27 39.14 9.71 39.14C4.15 39.14 0 35.76 0 30.59L4.7 30.59C4.7 33.08 6.99 34.71 9.71 34.71C12.43 34.71 14.57 33.23 14.57 30.59C14.57 27.95 12.08 26.74 9.71 26.74C3.73 26.74 0 23.09 0 17.1C0 11.11 4.35 7.38 9.71 7.38C11.23 7.38 12.78 7.57 14.11 8.47L16.01 6.06ZM4.7 17.1C4.7 20.44 6.95 22.43 9.71 22.43C12.43 22.43 14.69 20.41 14.69 17.1C14.69 13.79 12.43 11.7 9.71 11.7C6.95 11.7 4.7 13.76 4.7 17.1Z" fill="#112211" fill-opacity="1.000000" fill-rule="nonzero"/>
	<path id="Vector" d="M54.98 0L54.98 27.17L50.28 27.17L50.28 0L54.98 0Z" fill="#112211" fill-opacity="1.000000" fill-rule="nonzero"/>
	<path id="Vector" d="M76.11 17.61C76.11 23.13 72.34 27.6 66.12 27.6C59.9 27.6 56.17 23.13 56.17 17.61C56.17 12.12 59.98 7.62 66.08 7.62C72.19 7.62 76.11 12.12 76.11 17.61ZM60.91 17.61C60.91 20.52 62.66 23.24 66.12 23.24C69.58 23.24 71.33 20.52 71.33 17.61C71.33 14.73 69.31 11.93 66.12 11.93C62.7 11.93 60.91 14.73 60.91 17.61Z" fill="#112211" fill-opacity="1.000000" fill-rule="nonzero"/>
	<path id="Vector" d="M82.04 0L82.04 10.61C83.17 8.63 86.32 7.54 88.34 7.54C93.93 7.54 98.1 10.96 98.1 17.57C98.1 23.86 93.86 27.6 88.22 27.6C85.89 27.6 83.52 26.82 82.04 24.53L81.73 27.17L77.3 27.17L77.3 0L82.04 0ZM82.35 17.57C82.35 21.03 84.91 23.21 87.91 23.21C90.94 23.21 93.35 20.91 93.35 17.57C93.35 14.11 90.94 11.97 87.91 11.97C84.92 11.97 82.35 14.22 82.35 17.57Z" fill="#112211" fill-opacity="1.000000" fill-rule="nonzero"/>
	<path id="Vector" d="M105.15 20.91C106.25 23.03 108.77 23.93 111.91 22.79C113.56 22.19 115.49 20.79 116.12 19.36L120 21.13C118.82 23.79 116.06 25.87 113.32 26.87C107.11 29.13 102.02 26.64 99.92 20.87C97.93 15.39 100.22 10.09 106.06 7.96C112.09 5.76 117.21 8.12 119.21 15.79L105.15 20.91ZM113.6 13.66C112.45 11.42 110.2 10.92 107.64 11.85C105.23 12.73 103.69 14.61 103.88 17.19L113.6 13.66Z" fill="#112211" fill-opacity="1.000000" fill-rule="nonzero"/>
	<path id="Subtract" d="M43.2329 13.0388C41.6958 9.83203 38.4912 7.62207 34.2163 7.62207C28.1108 7.62207 24.3027 12.1304 24.3027 17.6125C24.3027 21.1116 25.8022 24.189 28.4844 25.9731C28.6387 25.8579 28.7319 25.7827 28.7319 25.7827C30.0693 24.9102 31.374 23.9917 32.6436 23.0291C30.251 22.324 29.043 20.0339 29.043 17.6125C29.043 14.7363 30.8345 11.9363 34.251 11.9363C37.2593 11.9363 39.2275 14.4294 39.4399 17.127C40.7588 15.8184 42.0244 14.4546 43.2329 13.0388ZM33.7676 27.5935C37.5547 24.9094 41.0566 21.8433 44.2153 18.4458C43.8545 23.5757 40.1582 27.6028 34.2544 27.6028C34.0903 27.6028 33.9282 27.5996 33.7676 27.5935Z" clip-rule="evenodd" fill="#FFFFFF" fill-opacity="1.000000" fill-rule="evenodd"/>
	<path id="Vector" d="M47.1 4.93C42.26 3.15 38.77 6.98 38.77 6.98L42.08 8.9C43.31 8.19 43.86 8.88 44.01 9.26C44.11 9.52 43.97 9.82 43.86 9.97L43.06 10.99C38.72 16.22 33.62 20.77 27.93 24.48C27.93 24.48 26.21 25.87 25.29 25.89C24.52 25.91 24.18 25.26 24.83 24.33L23.24 20.73C23.24 20.73 19.09 23.45 19.89 28.23C20.23 30.24 22.13 31.68 24.14 31.31C25.17 31.13 26.44 30.63 28 29.6L30.86 27.73C36.55 24.01 41.66 19.45 45.99 14.21L46.97 13.02C48.46 11.33 49.12 9.94 49.35 8.84C49.69 7.16 48.7 5.52 47.1 4.93Z" fill="#FFFFFF" fill-opacity="1.000000" fill-rule="nonzero"/>
</svg>
