<svg viewBox="0 0 11.375 11.375" xmlns="http://www.w3.org/2000/svg" xmlns:xlink="http://www.w3.org/1999/xlink" width="11.375000" height="11.375000" fill="none" customFrame="#000000">
	<path id="Vector" d="M5.6875 0C2.54652 0 0 2.54652 0 5.6875C0 8.82848 2.54652 11.375 5.6875 11.375C8.82848 11.375 11.375 8.82848 11.375 5.6875C11.375 2.54652 8.82848 0 5.6875 0ZM6.65301 8.00324C6.69534 8.04346 6.7292 8.09175 6.75258 8.14527C6.77596 8.19878 6.78839 8.25643 6.78913 8.31482C6.78988 8.37321 6.77893 8.43116 6.75693 8.48525C6.73493 8.53935 6.70232 8.58849 6.66103 8.62978C6.61974 8.67107 6.5706 8.70368 6.5165 8.72568C6.46241 8.74768 6.40446 8.75863 6.34607 8.75788C6.28768 8.75714 6.23003 8.74471 6.17652 8.72133C6.123 8.69795 6.07471 8.66409 6.03449 8.62176L3.40949 5.99676C3.32751 5.91472 3.28145 5.80348 3.28145 5.6875C3.28145 5.57152 3.32751 5.46028 3.40949 5.37824L6.03449 2.75324C6.11721 2.67466 6.22735 2.6315 6.34143 2.63296C6.45551 2.63442 6.56451 2.68039 6.64519 2.76106C6.72586 2.84174 6.77183 2.95074 6.77329 3.06482C6.77476 3.1789 6.73159 3.28904 6.65301 3.37176L4.33754 5.6875L6.65301 8.00324Z" fill="rgb(255,134,130)" fill-rule="nonzero" transform="matrix(-4.37114e-08,-1,1,-4.37114e-08,0,11.375)" />
</svg>
