<svg viewBox="0 0 18 18" xmlns="http://www.w3.org/2000/svg" xmlns:xlink="http://www.w3.org/1999/xlink" width="18.000000" height="18.000000" fill="none" customFrame="#000000">
	<path id="Vector" d="M0 9.05025C0 13.5248 3.24975 17.2455 7.5 18L7.5 11.4998L5.25 11.4998L5.25 9L7.5 9L7.5 6.99975C7.5 4.74975 8.94975 3.50025 11.0002 3.50025C11.6497 3.50025 12.3503 3.6 12.9998 3.69975L12.9998 6L11.85 6C10.7498 6 10.5 6.54975 10.5 7.25025L10.5 9L12.9 9L12.5002 11.4998L10.5 11.4998L10.5 18C14.7502 17.2455 18 13.5255 18 9.05025C18 4.0725 13.95 0 9 0C4.05 0 0 4.0725 0 9.05025Z" fill="rgb(17,34,17)" fill-rule="evenodd" />
</svg>
