<?xml version="1.0" encoding="UTF-8" standalone="no"?>
<svg
   viewBox="0 0 16.256001 17.417"
   width="16.256001"
   height="17.417"
   fill="none"
   version="1.1"
   id="svg1"
   sodipodi:docname="gate.svg"
   inkscape:version="1.4.2 (f4327f4, 2025-05-13)"
   xmlns:inkscape="http://www.inkscape.org/namespaces/inkscape"
   xmlns:sodipodi="http://sodipodi.sourceforge.net/DTD/sodipodi-0.dtd"
   xmlns="http://www.w3.org/2000/svg"
   xmlns:svg="http://www.w3.org/2000/svg">
  <defs
     id="defs1" />
  <sodipodi:namedview
     id="namedview1"
     pagecolor="#ffffff"
     bordercolor="#000000"
     borderopacity="0.25"
     inkscape:showpageshadow="2"
     inkscape:pageopacity="0.0"
     inkscape:pagecheckerboard="0"
     inkscape:deskcolor="#d1d1d1"
     inkscape:zoom="35.136364"
     inkscape:cx="11"
     inkscape:cy="11"
     inkscape:window-width="1920"
     inkscape:window-height="991"
     inkscape:window-x="-9"
     inkscape:window-y="-9"
     inkscape:window-maximized="1"
     inkscape:current-layer="svg1" />
  <path
     id="Vector"
     d="m 12.7722,0 c 0.308,0 0.6033,0.12233 0.8211,0.34008 0.2177,0.21775 0.34,0.51309 0.34,0.82103 V 16.2556 h 1.7417 c 0.154,0 0.3016,0.0611 0.4105,0.17 0.1089,0.1089 0.1701,0.2565 0.1701,0.4105 0,0.154 -0.0612,0.3017 -0.1701,0.4105 -0.1089,0.1089 -0.2565,0.1701 -0.4105,0.1701 H 0.58056 c -0.15398,0 -0.30164,-0.0612 -0.41052,-0.1701 C 0.06117,17.1378 0,16.9901 0,16.8361 c 0,-0.154 0.06117,-0.3016 0.17004,-0.4105 0.10888,-0.1089 0.25654,-0.17 0.41052,-0.17 H 2.32222 V 1.16111 C 2.32222,0.85317 2.44455,0.55783 2.6623,0.34008 2.88005,0.12233 3.17539,0 3.48333,0 Z M 10.45,10.45 c 0.3079,0 0.6033,-0.1223 0.821,-0.3401 0.2178,-0.2177 0.3401,-0.5131 0.3401,-0.821 0,-0.308 -0.1223,-0.6033 -0.3401,-0.821 -0.2177,-0.2178 -0.5131,-0.3401 -0.821,-0.3401 -0.3079,0 -0.6033,0.1223 -0.821,0.3401 -0.2178,0.2177 -0.3401,0.513 -0.3401,0.821 0,0.3079 0.1223,0.6033 0.3401,0.821 0.2177,0.2178 0.5131,0.3401 0.821,0.3401 z"
     fill="#8dd3bb"
     fill-rule="nonzero" />
</svg>
