<?xml version="1.0" encoding="UTF-8" standalone="no"?>
<svg
   viewBox="0 0 18.922001 15.382"
   width="18.922001"
   height="15.382"
   fill="none"
   version="1.1"
   id="svg1"
   sodipodi:docname="twitter.svg"
   inkscape:version="1.4.2 (f4327f4, 2025-05-13)"
   xmlns:inkscape="http://www.inkscape.org/namespaces/inkscape"
   xmlns:sodipodi="http://sodipodi.sourceforge.net/DTD/sodipodi-0.dtd"
   xmlns="http://www.w3.org/2000/svg"
   xmlns:svg="http://www.w3.org/2000/svg">
  <defs
     id="defs1" />
  <sodipodi:namedview
     id="namedview1"
     pagecolor="#ffffff"
     bordercolor="#000000"
     borderopacity="0.25"
     inkscape:showpageshadow="2"
     inkscape:pageopacity="0.0"
     inkscape:pagecheckerboard="0"
     inkscape:deskcolor="#d1d1d1"
     inkscape:zoom="39.75"
     inkscape:cx="10"
     inkscape:cy="10"
     inkscape:window-width="1920"
     inkscape:window-height="991"
     inkscape:window-x="-9"
     inkscape:window-y="-9"
     inkscape:window-maximized="1"
     inkscape:current-layer="svg1" />
  <path
     id="Vector"
     d="m 18.92165,1.824599 c -0.6958,0.30833 -1.4433,0.51667 -2.2292,0.61083 0.8109,-0.48517 1.4175,-1.24878 1.7067,-2.14832997 -0.7618,0.45249 -1.5955,0.77099997 -2.465,0.94166997 -0.5847,-0.62427997 -1.3591,-1.03806997 -2.203,-1.17710997 -0.844,-0.13904 -1.7102,0.00443 -2.4643,0.40815 -0.754,0.40372 -1.3537,1.04508997 -1.7059,1.82453997 -0.35217,0.77945 -0.43717,1.65337 -0.2418,2.48608 C 7.77557,4.692929 6.26552,4.291719 4.88702,3.592849 3.50852,2.893979 2.29237,1.913069 1.3175,0.71376903 0.98417,1.288769 0.7925,1.955429 0.7925,2.665429 c -3.7e-4,0.63917 0.15703,1.26854 0.45823,1.83228 0.30121,0.56374 0.7369,1.04442 1.26844,1.39939 C 1.90273,5.877489 1.29989,5.710919 0.76083,5.411269 v 0.05 c -6e-5,0.89645 0.31003,1.76531 0.87766,2.45918 0.56762,0.6938 1.35782,1.1699 2.23651,1.3475 -0.57185,0.1547 -1.17139,0.1775 -1.75333,0.0667 0.24791,0.7713 0.73083,1.4458 1.38114,1.9291 0.65031,0.4832 1.43545,0.751 2.24552,0.7659 -1.37514,1.0795 -3.07342,1.665 -4.82166,1.6624 -0.30969,10e-5 -0.61911,-0.018 -0.92667,-0.0541 1.77456,1.141 3.84028,1.7465 5.95,1.7441 7.14165,0 11.04585,-5.915 11.04585,-11.04495 0,-0.16667 -0.0042,-0.335 -0.0117,-0.50167 0.7594,-0.54919 1.4149,-1.22925 1.9359,-2.00833 z"
     fill="#112211"
     fill-rule="nonzero" />
</svg>
