<?xml version="1.0" encoding="UTF-8" standalone="no"?>
<svg
   viewBox="0 0 16 13.013"
   width="16"
   height="13.013"
   fill="none"
   version="1.1"
   id="svg1"
   sodipodi:docname="upload.svg"
   inkscape:version="1.4.2 (f4327f4, 2025-05-13)"
   xmlns:inkscape="http://www.inkscape.org/namespaces/inkscape"
   xmlns:sodipodi="http://sodipodi.sourceforge.net/DTD/sodipodi-0.dtd"
   xmlns="http://www.w3.org/2000/svg"
   xmlns:svg="http://www.w3.org/2000/svg">
  <defs
     id="defs1" />
  <sodipodi:namedview
     id="namedview1"
     pagecolor="#ffffff"
     bordercolor="#000000"
     borderopacity="0.25"
     inkscape:showpageshadow="2"
     inkscape:pageopacity="0.0"
     inkscape:pagecheckerboard="0"
     inkscape:deskcolor="#d1d1d1"
     inkscape:zoom="49.6875"
     inkscape:cx="8"
     inkscape:cy="8"
     inkscape:window-width="1920"
     inkscape:window-height="991"
     inkscape:window-x="-9"
     inkscape:window-y="-9"
     inkscape:window-maximized="1"
     inkscape:current-layer="svg1" />
  <path
     id="Vector"
     d="M 14.8019,5.06906 C 14.3644,4.74469 13.8269,4.50656 13.2594,4.37812 13.1662,4.35716 13.0809,4.31012 13.0134,4.24251 12.946,4.17489 12.8992,4.08948 12.8784,3.99625 12.6347,2.91031 12.11,1.97906 11.3387,1.27344 10.4422,0.45187 9.25656,0 8,0 6.89531,0 5.875,0.34625 5.05094,1.00156 4.49244,1.44639 4.04289,2.01287 3.73656,2.65781 3.70335,2.72838 3.65409,2.7902 3.59272,2.83833 3.53135,2.88646 3.45957,2.91956 3.38313,2.935 2.54719,3.10375 1.7925,3.46219 1.21625,3.97 0.420625,4.67312 0,5.60781 0,6.675 c 0,1.07875 0.452813,2.06249 1.27469,2.77379 0.785,0.6778 1.84187,1.0512 2.97531,1.0512 H 7.5 V 5.70719 L 6.35344,6.85375 C 6.30557,6.90161 6.24848,6.93926 6.18563,6.9644 6.12279,6.98955 6.05549,7.00167 5.98781,7.00003 5.92014,6.9984 5.85351,6.98304 5.79195,6.95488 5.73039,6.92673 5.67519,6.88637 5.62969,6.83625 5.44844,6.63718 5.46594,6.32687 5.65625,6.13656 l 1.99031,-1.99 C 7.74032,4.05286 7.86745,4.00023 8,4.00023 c 0.13255,0 0.25968,0.05263 0.35344,0.14633 L 10.3438,6.13594 C 10.54,6.3325 10.5513,6.65469 10.3559,6.85187 10.3096,6.89867 10.2545,6.93586 10.1937,6.96129 10.133,6.98672 10.0678,6.99991 10.002,7.00008 9.9361,7.00026 9.87085,6.98742 9.80997,6.96231 9.74909,6.93719 9.69377,6.9003 9.64719,6.85375 L 8.5,5.70719 v 4.7928 h 3.875 c 0.9794,0 1.8722,-0.275 2.5141,-0.7741 C 15.6159,9.16029 16,8.35094 16,7.3875 16,6.45187 15.5856,5.64969 14.8019,5.06906 Z M 7.5,12.51309 c 0,0.1326 0.05268,0.2598 0.14645,0.3536 0.09376,0.0938 0.22094,0.1464 0.35355,0.1464 0.13261,0 0.25979,-0.0526 0.35355,-0.1464 C 8.44732,12.77289 8.5,12.64569 8.5,12.51309 v -2.0131 h -1 z"
     fill="#000000"
     fill-rule="nonzero" />
  <path
     id="path1"
     d=""
     fill="#112211"
     fill-rule="nonzero" />
</svg>
