<?xml version="1.0" encoding="UTF-8" standalone="no"?>
<svg
   viewBox="0 0 20.003 13.342"
   width="20.003"
   height="13.342"
   fill="none"
   version="1.1"
   id="svg1"
   sodipodi:docname="youtube.svg"
   inkscape:version="1.4.2 (f4327f4, 2025-05-13)"
   xmlns:inkscape="http://www.inkscape.org/namespaces/inkscape"
   xmlns:sodipodi="http://sodipodi.sourceforge.net/DTD/sodipodi-0.dtd"
   xmlns="http://www.w3.org/2000/svg"
   xmlns:svg="http://www.w3.org/2000/svg">
  <defs
     id="defs1" />
  <sodipodi:namedview
     id="namedview1"
     pagecolor="#ffffff"
     bordercolor="#000000"
     borderopacity="0.25"
     inkscape:showpageshadow="2"
     inkscape:pageopacity="0.0"
     inkscape:pagecheckerboard="0"
     inkscape:deskcolor="#d1d1d1"
     inkscape:zoom="39.75"
     inkscape:cx="10"
     inkscape:cy="10"
     inkscape:window-width="1920"
     inkscape:window-height="991"
     inkscape:window-x="-9"
     inkscape:window-y="-9"
     inkscape:window-maximized="1"
     inkscape:current-layer="svg1" />
  <path
     id="Vector"
     d="m 19.583877,2.0933023 c -0.1133,-0.40397 -0.3339,-0.76971 -0.6384,-1.05833 -0.3131,-0.29749996 -0.6968,-0.51030996 -1.115,-0.61833996 -1.565,-0.4125 -7.8349604,-0.4125 -7.8349604,-0.4125 -2.61389,-0.02974 -5.22714,0.10107 -7.825,0.39167 -0.41818,0.11601 -0.8012,0.33357 -1.115,0.63332996 -0.30833604,0.29667 -0.53166904,0.6625 -0.64833604,1.06334 -0.280255,1.50978 -0.4164229,3.04278 -0.4066662445,4.57833 -0.009999955,1.5342 0.1258332445,3.0667 0.4066662445,4.5782997 0.114167,0.3992 0.336667,0.7634 0.64583604,1.0575 0.30916,0.2942 0.69416,0.5067 1.1175,0.6192 1.58583,0.4117 7.825,0.4117 7.825,0.4117 2.6172604,0.0297 5.2337604,-0.1011 7.8349604,-0.3917 0.4182,-0.108 0.8019,-0.3208 1.115,-0.6183 0.3044,-0.2886 0.5248,-0.6544 0.6375,-1.0584 0.2876,-1.5091997 0.4274,-3.0427997 0.4175,-4.5790997 0.0217,-1.54286 -0.118,-3.08373 -0.4166,-4.59753 z m -11.5817004,7.4308 v -5.7058 l 5.2167004,2.8533 z"
     fill="#112211"
     fill-rule="nonzero" />
  <path
     id="path1"
     d="m 19.583877,2.0933023 c -0.1133,-0.40397 -0.3339,-0.76971 -0.6384,-1.05833 -0.3131,-0.29749996 -0.6968,-0.51030996 -1.115,-0.61833996 -1.565,-0.4125 -7.8349604,-0.4125 -7.8349604,-0.4125 -2.61389,-0.02974 -5.22714,0.10107 -7.825,0.39167 -0.41818,0.11601 -0.8012,0.33357 -1.115,0.63332996 -0.30833604,0.29667 -0.53166904,0.6625 -0.64833604,1.06334 -0.280255,1.50978 -0.4164229,3.04278 -0.4066662445,4.57833 -0.009999955,1.5342 0.1258332445,3.0667 0.4066662445,4.5782997 0.114167,0.3992 0.336667,0.7634 0.64583604,1.0575 0.30916,0.2942 0.69416,0.5067 1.1175,0.6192 1.58583,0.4117 7.825,0.4117 7.825,0.4117 2.6172604,0.0297 5.2337604,-0.1011 7.8349604,-0.3917 0.4182,-0.108 0.8019,-0.3208 1.115,-0.6183 0.3044,-0.2886 0.5248,-0.6544 0.6375,-1.0584 0.2876,-1.5091997 0.4274,-3.0427997 0.4175,-4.5790997 0.0217,-1.54286 -0.118,-3.08373 -0.4166,-4.59753 z m -11.5817004,7.4308 v -5.7058 l 5.2167004,2.8533 z"
     fill="#112211"
     fill-rule="nonzero" />
</svg>
