<?xml version="1.0" encoding="UTF-8" standalone="no"?>
<svg
   viewBox="0 0 15.75 12.375"
   width="15.75"
   height="12.375"
   fill="none"
   version="1.1"
   id="svg1"
   sodipodi:docname="card.svg"
   inkscape:version="1.4.2 (f4327f4, 2025-05-13)"
   xmlns:inkscape="http://www.inkscape.org/namespaces/inkscape"
   xmlns:sodipodi="http://sodipodi.sourceforge.net/DTD/sodipodi-0.dtd"
   xmlns="http://www.w3.org/2000/svg"
   xmlns:svg="http://www.w3.org/2000/svg">
  <defs
     id="defs1" />
  <sodipodi:namedview
     id="namedview1"
     pagecolor="#ffffff"
     bordercolor="#000000"
     borderopacity="0.25"
     inkscape:showpageshadow="2"
     inkscape:pageopacity="0.0"
     inkscape:pagecheckerboard="0"
     inkscape:deskcolor="#d1d1d1"
     inkscape:zoom="42.944444"
     inkscape:cx="9"
     inkscape:cy="9"
     inkscape:window-width="1920"
     inkscape:window-height="991"
     inkscape:window-x="-9"
     inkscape:window-y="-9"
     inkscape:window-maximized="1"
     inkscape:current-layer="svg1" />
  <path
     id="Vector"
     d="m 0,10.4063 c 0,0.5221 0.20742,1.0229 0.57663,1.3921 0.36922,0.3692 0.86998,0.5766 1.39212,0.5766 H 13.7812 c 0.5222,0 1.023,-0.2074 1.3922,-0.5766 0.3692,-0.3692 0.5766,-0.87 0.5766,-1.3921 V 4.99219 H 0 Z M 2.32031,7.7344 c 0,-0.2797 0.11112,-0.54801 0.30891,-0.7458 C 2.82702,6.79081 3.09528,6.67969 3.375,6.67969 h 1.6875 c 0.27972,0 0.54798,0.11112 0.74578,0.30891 0.19779,0.19779 0.30891,0.4661 0.30891,0.7458 v 0.7031 c 0,0.2797 -0.11112,0.548 -0.30891,0.7458 C 5.61048,9.3811 5.34222,9.4922 5.0625,9.4922 H 3.375 C 3.09528,9.4922 2.82702,9.3811 2.62922,9.1833 2.43143,8.9855 2.32031,8.7172 2.32031,8.4375 Z M 13.7812,0 H 1.96875 C 1.44661,0 0.94585,0.20742 0.57663,0.57663 0.20742,0.94585 0,1.4466 0,1.96875 V 2.88281 H 15.75 V 1.96875 C 15.75,1.4466 15.5426,0.94585 15.1734,0.57663 14.8042,0.20742 14.3034,0 13.7812,0 Z"
     fill="#000000"
     fill-rule="nonzero" />
</svg>
