<?xml version="1.0" encoding="UTF-8" standalone="no"?>
<svg
   viewBox="0 0 13 13"
   width="13"
   height="13"
   fill="none"
   version="1.1"
   id="svg1"
   sodipodi:docname="change.svg"
   inkscape:version="1.4.2 (f4327f4, 2025-05-13)"
   xmlns:inkscape="http://www.inkscape.org/namespaces/inkscape"
   xmlns:sodipodi="http://sodipodi.sourceforge.net/DTD/sodipodi-0.dtd"
   xmlns="http://www.w3.org/2000/svg"
   xmlns:svg="http://www.w3.org/2000/svg">
  <defs
     id="defs1" />
  <sodipodi:namedview
     id="namedview1"
     pagecolor="#ffffff"
     bordercolor="#000000"
     borderopacity="0.25"
     inkscape:showpageshadow="2"
     inkscape:pageopacity="0.0"
     inkscape:pagecheckerboard="0"
     inkscape:deskcolor="#d1d1d1"
     inkscape:zoom="48.3125"
     inkscape:cx="8"
     inkscape:cy="8"
     inkscape:window-width="1920"
     inkscape:window-height="991"
     inkscape:window-x="-9"
     inkscape:window-y="-9"
     inkscape:window-maximized="1"
     inkscape:current-layer="svg1" />
  <path
     id="Vector"
     d="m 12.8732,0.16406665 c -0.0457,-0.05017 -0.1011,-0.09057 -0.1628,-0.11874 -0.0617,-0.02818 -0.1285,-0.04355 -0.1963,-0.0451800031 C 12.4463,-0.00149335 12.3788,0.01063665 12.3158,0.03580665 c -0.063,0.02517 -0.1202,0.06285 -0.1683,0.11076 l -0.3865,0.38469 c -0.0469,0.04688 -0.0732,0.11044 -0.0732,0.17672 0,0.06627 0.0263,0.12984 0.0732,0.17672 l 0.3544,0.35374995 c 0.0232,0.02333 0.0508,0.04185 0.0812,0.05449 0.0304,0.01264 0.063,0.01914 0.0959,0.01914 0.033,0 0.0656,-0.0065 0.096,-0.01914 0.0304,-0.01264 0.058,-0.03116 0.0812,-0.05449 l 0.3769,-0.37499995 c 0.1906,-0.19032 0.2084,-0.50032 0.0266,-0.69938 z m -1.8938,1.14843995 -5.64124,5.63125 c -0.0342,0.03406 -0.05906,0.07636 -0.07218,0.12281 l -0.26094,0.77719 c -0.00625,0.02109 -0.0067,0.04347 -0.00128,0.06479 0.00541,0.02132 0.01648,0.04078 0.03203,0.05634 0.01555,0.01555 0.03501,0.02661 0.05633,0.03203 0.02132,0.00541 0.04371,0.00497 0.06479,-0.00129 l 0.77657,-0.26093 c 0.04645,-0.01313 0.08874,-0.03799 0.12281,-0.07219 l 5.63121,-5.64188 c 0.0521,-0.05265 0.0814,-0.12373 0.0814,-0.19781 0,-0.07407 -0.0293,-0.14515 -0.0814,-0.19781 l -0.3109,-0.3125 c -0.0527,-0.05257 -0.1241,-0.0821 -0.1986,-0.0821 -0.0744,0 -0.1459,0.02953 -0.1986,0.0821 z"
     fill="#000000"
     fill-rule="nonzero" />
  <path
     id="path1"
     d="m 10.5731,4.5518766 -3.80904,3.81656 c -0.14722,0.14756 -0.32816,0.25706 -0.52718,0.31906 l -0.80938,0.2709 c -0.19208,0.0543 -0.39516,0.0563 -0.5883,0.006 -0.19314,-0.0504 -0.36935,-0.1514 -0.51049,-0.2925 -0.14113,-0.1411 -0.24208,-0.31734 -0.29245,-0.51048 -0.05036,-0.19314 -0.04832,-0.39621 0.00593,-0.5883 l 0.27094,-0.80937 c 0.06179,-0.19896 0.17108,-0.3799 0.31843,-0.52719 l 3.81656,-3.80968 c 0.03499,-0.03495 0.05878,-0.07948 0.06848,-0.12798 0.0097,-0.04849 0.0048,-0.09876 -0.0141,-0.14445 -0.01893,-0.0457 -0.05096,-0.08476 -0.09206,-0.11225 -0.0411,-0.02749 -0.08943,-0.04218 -0.13888,-0.0422 H 1.75 c -0.46413,0 -0.90925,0.18437 -1.23744,0.51256 C 0.18437,2.8407466 0,3.2858666 0,3.7499966 v 7.5000004 c 0,0.4641 0.18437,0.9092 0.51256,1.2374 0.32819,0.3282 0.77331,0.5126 1.23744,0.5126 h 7.5 c 0.4641,0 0.9092,-0.1844 1.2374,-0.5126 0.3282,-0.3282 0.5126,-0.7733 0.5126,-1.2374 V 4.7284366 c 0,-0.04945 -0.0147,-0.09778 -0.0422,-0.13888 -0.0275,-0.0411 -0.0666,-0.07313 -0.1122,-0.09203 -0.0457,-0.01889 -0.096,-0.02382 -0.1445,-0.01415 -0.0485,0.00968 -0.093,0.03351 -0.128,0.0685 z"
     fill="#000000"
     fill-rule="nonzero" />
</svg>
