<?xml version="1.0" encoding="UTF-8" standalone="no"?>
<svg
   viewBox="0 0 13 11.5"
   width="13"
   height="11.5"
   fill="none"
   version="1.1"
   id="svg1"
   sodipodi:docname="cup.svg"
   inkscape:version="1.4.2 (f4327f4, 2025-05-13)"
   xmlns:inkscape="http://www.inkscape.org/namespaces/inkscape"
   xmlns:sodipodi="http://sodipodi.sourceforge.net/DTD/sodipodi-0.dtd"
   xmlns="http://www.w3.org/2000/svg"
   xmlns:svg="http://www.w3.org/2000/svg">
  <defs
     id="defs1" />
  <sodipodi:namedview
     id="namedview1"
     pagecolor="#ffffff"
     bordercolor="#000000"
     borderopacity="0.25"
     inkscape:showpageshadow="2"
     inkscape:pageopacity="0.0"
     inkscape:pagecheckerboard="0"
     inkscape:deskcolor="#d1d1d1"
     inkscape:zoom="48.3125"
     inkscape:cx="8"
     inkscape:cy="8"
     inkscape:window-width="1920"
     inkscape:window-height="991"
     inkscape:window-x="-9"
     inkscape:window-y="-9"
     inkscape:window-maximized="1"
     inkscape:current-layer="svg1" />
  <path
     id="Vector"
     d="M 12,0 H 1.5 C 1.36739,0 1.24021,0.05268 1.14645,0.14645 1.05268,0.24021 1,0.36739 1,0.5 v 6 C 1.00091,7.29537 1.31727,8.0579 1.87968,8.6203 2.4421,9.1827 3.20463,9.4991 4,9.5 H 7.5 C 8.29537,9.4991 9.0579,9.1827 9.6203,8.6203 10.1827,8.0579 10.4991,7.29537 10.5,6.5 V 4 h 0.5625 C 11.5762,3.99942 12.0687,3.79511 12.4319,3.43188 12.7951,3.06865 12.9994,2.57618 13,2.0625 V 1 C 13,0.73478 12.8946,0.48043 12.7071,0.29289 12.5196,0.10536 12.2652,0 12,0 Z m 0,2.0625 C 12,2.31114 11.9012,2.5496 11.7254,2.72541 11.5496,2.90123 11.3111,3 11.0625,3 H 10.5 V 1 H 12 Z M 11,10.5 H 0.5 C 0.36739,10.5 0.24021,10.5527 0.14645,10.6464 0.05268,10.7402 0,10.8674 0,11 0,11.1326 0.05268,11.2598 0.14645,11.3536 0.24021,11.4473 0.36739,11.5 0.5,11.5 H 11 c 0.1326,0 0.2598,-0.0527 0.3536,-0.1464 C 11.4473,11.2598 11.5,11.1326 11.5,11 11.5,10.8674 11.4473,10.7402 11.3536,10.6464 11.2598,10.5527 11.1326,10.5 11,10.5 Z"
     fill="#112211"
     fill-rule="nonzero" />
</svg>
