<?xml version="1.0" encoding="UTF-8" standalone="no"?>
<svg
   viewBox="0 0 22.500999 22.5"
   width="22.500999"
   height="22.5"
   fill="none"
   version="1.1"
   id="svg1"
   sodipodi:docname="fast-food.svg"
   inkscape:version="1.4.2 (f4327f4, 2025-05-13)"
   xmlns:inkscape="http://www.inkscape.org/namespaces/inkscape"
   xmlns:sodipodi="http://sodipodi.sourceforge.net/DTD/sodipodi-0.dtd"
   xmlns="http://www.w3.org/2000/svg"
   xmlns:svg="http://www.w3.org/2000/svg">
  <defs
     id="defs1" />
  <sodipodi:namedview
     id="namedview1"
     pagecolor="#ffffff"
     bordercolor="#000000"
     borderopacity="0.25"
     inkscape:showpageshadow="2"
     inkscape:pageopacity="0.0"
     inkscape:pagecheckerboard="0"
     inkscape:deskcolor="#d1d1d1"
     inkscape:zoom="32.208333"
     inkscape:cx="12"
     inkscape:cy="12"
     inkscape:window-width="1920"
     inkscape:window-height="991"
     inkscape:window-x="-9"
     inkscape:window-y="-9"
     inkscape:window-maximized="1"
     inkscape:current-layer="svg1" />
  <path
     id="Vector"
     d="m 16.4999,5.2502443 h 0.0043 z m 5.2289,-1.5 h -4.2684 l 0.4181,-1.67156 1.7963,-0.61172 c 0.382,-0.12984 0.6093,-0.53577997 0.4992,-0.92389997 -0.028,-0.09764 -0.0756,-0.18856 -0.1398,-0.26726 -0.0642,-0.078699 -0.1438,-0.143531 -0.2338,-0.190564 -0.0901,-0.047033 -0.1887,-0.075287 -0.29,-0.083048 -0.1013,-0.007761 -0.2031,0.005133 -0.2992,0.037899 l -2.2031,0.750003 c -0.1187,0.04045 -0.2253,0.11 -0.3101,0.20229 -0.0849,0.09229 -0.1452,0.20435997 -0.1756,0.32598997 l -0.6079,2.43187 H 9.7710004 c -0.4036,0 -0.74997,0.31032 -0.77013,0.71391 -0.00489,0.10141 0.01087,0.20275 0.0463,0.29789 0.03544,0.09514 0.08983,0.18209 0.15987,0.25559 0.07006,0.0735 0.15426,0.13201 0.24756,0.172 0.0933,0.03998 0.1938,0.0606 0.2953,0.06061 h 0.1289 l 0.0469,0.40594 c 0.0111,0.0948 0.0566,0.18223 0.1278996,0.24567 0.0713,0.06344 0.1634,0.09846 0.2588,0.09839 1.8282,0 3.4528,0.51094 4.6932,1.4775 0.6898,0.53156 1.2491,1.21378 1.635,1.9945 0.216,0.4392 0.3754,0.9039997 0.4743,1.3832997 0.0197,0.0934 0.0751,0.1755 0.1542,0.2288 0.6377,0.4326 1.1081,1.0705 1.3331,1.8075 0.2249,0.737 0.1909,1.5289 -0.0965,2.2439 -0.0334,0.0827 -0.0359,0.1747 -0.007,0.2592 0.166,0.4759 0.251,0.9763 0.2512,1.4803 0,1.0472 -0.3562,2.0452 -1.0031,2.8102 -0.3667,0.4366 -0.8281,0.7839 -1.3491,1.0157 -0.0901,0.0398 -0.161,0.1133 -0.1973,0.2049 -0.1947,0.5071 -0.4696,0.9797 -0.8142,1.3997 -0.0144,0.017 -0.0236,0.0378 -0.0265,0.0599 -0.003,0.022 4e-4,0.0445 0.0098,0.0647 0.0093,0.0202 0.0242,0.0374 0.043,0.0494 0.0187,0.0121 0.0405,0.0185 0.0627,0.0186 h 2.3068 c 0.5647,-0.0023 1.1082,-0.2159 1.5233,-0.5989 0.4151,-0.3829 0.6718,-0.9074 0.7196,-1.4701 L 21.6281,5.2502443 h 0.1218 c 0.1016,1.2e-4 0.2022,-0.02041 0.2956,-0.06034 0.0935,-0.03992 0.1778,-0.09842 0.2479,-0.17193 0.0702,-0.07351 0.1246,-0.16051 0.1601,-0.25571 0.0355,-0.0952 0.0513,-0.19663 0.0464,-0.29811 -0.0197,-0.40359 -0.3675,-0.71391 -0.7711,-0.71391 z"
     fill="#112211"
     fill-rule="nonzero" />
  <path
     id="path1"
     d="m 4.3448404,14.250244 c 0.14793,-7e-4 0.29452,0.0279 0.4313,0.0843 0.13678,0.0563 0.26104,0.1392 0.36558,0.2438 l 0.72703,0.7271 c 0.01741,0.0174 0.03809,0.0312 0.06086,0.0407 0.02276,0.0094 0.04716,0.0142 0.0718,0.0142 0.02464,0 0.04904,-0.0048 0.0718,-0.0142 0.02276,-0.0095 0.04344,-0.0233 0.06085,-0.0407 l 0.72563,-0.7271 c 0.10454,-0.1046 0.2288,-0.1875 0.36558,-0.2438 0.13678,-0.0564 0.28337,-0.085 0.43129,-0.0843 H 16.8713 c 0.0492,5e-4 0.0981,-0.0087 0.1437,-0.0271 0.0457,-0.0184 0.0873,-0.0456 0.1225,-0.0801 0.0352,-0.0345 0.0632,-0.0755 0.0825,-0.1208 0.0193,-0.0453 0.0295,-0.094 0.03,-0.1433 v -0.0037 c -5e-4,-0.4321 -0.15,-0.8508 -0.4232,-1.1855 -0.2733,-0.3347 -0.6536,-0.565 -1.0768,-0.652 -0.0384,-1.3917 -0.6094,-2.5565997 -1.6645,-3.3749997 -0.976,-0.76125 -2.28,-1.1625 -3.773,-1.1625 H 6.9375004 c -3.19781,0 -5.36391,1.8173 -5.4375,4.5374997 -0.42323,0.087 -0.80351003,0.3173 -1.07675003,0.652 -0.27324,0.3347 -0.42272199719,0.7534 -0.42324999718892,1.1855 0,0.0995 0.0395089971889,0.1948 0.10983499718892,0.2652 0.070326,0.0703 0.165705,0.1098 0.265165,0.1098 z m 3.6211,1.5 c -0.04926,0 -0.09805,0.0096 -0.14357,0.0284 -0.04552,0.0189 -0.08689,0.0465 -0.12174,0.0813 l -1.03782,1.0383 c -0.1758,0.1757 -0.41422,0.2745 -0.66281,0.2745 -0.24859,0 -0.487,-0.0988 -0.66281,-0.2745 l -1.03781,-1.0383 c -0.03486,-0.0348 -0.07623,-0.0624 -0.12175,-0.0813 -0.04552,-0.0188 -0.09431,-0.0284 -0.14357,-0.0284 H 0.78094037 c -0.17618,-8e-4 -0.34696,0.0607 -0.48215,0.1737 -0.135189,0.113 -0.226079,0.2701 -0.256602,0.4436 -0.028161,0.1678 -0.04227199719,0.3376 -0.0421879971889,0.5077 0,1.4339 0.99046999718892,2.602 2.21531002718892,2.625 0.11391,0.7087 0.38953,1.3491 0.80438,1.8502 0.61359,0.7411 1.50562,1.1498 2.51156,1.1498 H 11.7188 c 1.0059,0 1.8979,-0.4087 2.5115,-1.1508 0.4149,-0.5011 0.6905,-1.1414 0.8044,-1.8501 1.2248,-0.0221 2.2153,-1.1902 2.2153,-2.625 10e-5,-0.1701 -0.014,-0.3399 -0.0422,-0.5077 -0.0307,-0.1733 -0.1217,-0.3303 -0.2569,-0.443 -0.1351,-0.1128 -0.3058,-0.1742 -0.4818,-0.1734 z"
     fill="#112211"
     fill-rule="nonzero" />
</svg>
