<?xml version="1.0" encoding="UTF-8" standalone="no"?>
<svg
   viewBox="0 0 17 17"
   width="17"
   height="17"
   fill="none"
   version="1.1"
   id="svg1"
   sodipodi:docname="instagram.svg"
   inkscape:version="1.4.2 (f4327f4, 2025-05-13)"
   xmlns:inkscape="http://www.inkscape.org/namespaces/inkscape"
   xmlns:sodipodi="http://sodipodi.sourceforge.net/DTD/sodipodi-0.dtd"
   xmlns="http://www.w3.org/2000/svg"
   xmlns:svg="http://www.w3.org/2000/svg">
  <defs
     id="defs1" />
  <sodipodi:namedview
     id="namedview1"
     pagecolor="#ffffff"
     bordercolor="#000000"
     borderopacity="0.25"
     inkscape:showpageshadow="2"
     inkscape:pageopacity="0.0"
     inkscape:pagecheckerboard="0"
     inkscape:deskcolor="#d1d1d1"
     inkscape:zoom="38.65"
     inkscape:cx="10"
     inkscape:cy="10"
     inkscape:window-width="1920"
     inkscape:window-height="991"
     inkscape:window-x="-9"
     inkscape:window-y="-9"
     inkscape:window-maximized="1"
     inkscape:current-layer="svg1" />
  <path
     id="Vector"
     d="m 8.4978722,5.6654537 c -1.5608,0 -2.83454,1.27374 -2.83454,2.8345603 0,1.5608 1.27374,2.8345 2.83454,2.8345 1.5608298,0 2.8345298,-1.2737 2.8345298,-2.8345 0,-1.5608203 -1.2737,-2.8345603 -2.8345298,-2.8345603 z M 16.999402,8.500014 c 0,-1.1738103 0.0106,-2.3369703 -0.0553,-3.5086403 -0.0659,-1.36092 -0.3764,-2.56873 -1.3716,-3.56391 -0.9973,-0.99729005 -2.203,-1.30563005 -3.5639,-1.37155005 -1.1738,-0.06592 -2.3368998,-0.0552799964 -3.5085998,-0.0552799964 -1.17379,0 -2.33695,-0.0106400036 -3.50862,0.0552799964 -1.36092,0.06592 -2.56874,0.37638 -3.56391,1.37155005 -0.99730004,0.9973 -1.30563004,2.20299 -1.37155004,3.56391 -0.06592,1.1738 -0.0552900014,2.33696 -0.0552900014,3.5086403 0,1.1717 -0.0106299986,2.3369 0.0552900014,3.5086 0.06592,1.3609 0.37638,2.5687 1.37155004,3.5639 0.9973,0.9973 2.20299,1.3056 3.56391,1.3716 1.17379,0.0659 2.33695,0.0552 3.50862,0.0552 1.1738,0 2.3369998,0.0107 3.5085998,-0.0552 1.3609,-0.066 2.5688,-0.3764 3.5639,-1.3716 0.9973,-0.9973 1.3057,-2.203 1.3716,-3.5639 0.068,-1.1717 0.0553,-2.3348 0.0553,-3.5086 z m -8.5015298,4.3613 c -2.4135,0 -4.36132,-1.9478 -4.36132,-4.3613 0,-2.4135203 1.94782,-4.3613403 4.36132,-4.3613403 2.4135298,0 4.3613298,1.94782 4.3613298,4.3613403 0,2.4135 -1.9478,4.3613 -4.3613298,4.3613 z M 13.037802,4.9786137 c -0.5635,0 -1.0185,-0.45505 -1.0185,-1.01856 0,-0.5635 0.455,-1.01856 1.0185,-1.01856 0.5635,0 1.0186,0.45506 1.0186,1.01856 10e-5,0.13381 -0.0261,0.26633 -0.0772,0.38999 -0.0511,0.12365 -0.1262,0.236 -0.2208,0.33062 -0.0946,0.09461 -0.2069,0.16963 -0.3306,0.22076 -0.1237,0.05113 -0.2562,0.07736 -0.39,0.07719 z"
     fill="#112211"
     fill-rule="nonzero" />
</svg>
