<?xml version="1.0" encoding="UTF-8" standalone="no"?>
<svg
   viewBox="0 0 11.25 15.749"
   width="11.25"
   height="15.749"
   fill="none"
   version="1.1"
   id="svg1"
   sodipodi:docname="location.svg"
   inkscape:version="1.4.2 (f4327f4, 2025-05-13)"
   xmlns:inkscape="http://www.inkscape.org/namespaces/inkscape"
   xmlns:sodipodi="http://sodipodi.sourceforge.net/DTD/sodipodi-0.dtd"
   xmlns="http://www.w3.org/2000/svg"
   xmlns:svg="http://www.w3.org/2000/svg">
  <defs
     id="defs1" />
  <sodipodi:namedview
     id="namedview1"
     pagecolor="#ffffff"
     bordercolor="#000000"
     borderopacity="0.25"
     inkscape:showpageshadow="2"
     inkscape:pageopacity="0.0"
     inkscape:pagecheckerboard="0"
     inkscape:deskcolor="#d1d1d1"
     inkscape:zoom="42.944444"
     inkscape:cx="9"
     inkscape:cy="9"
     inkscape:window-width="1920"
     inkscape:window-height="991"
     inkscape:window-x="-9"
     inkscape:window-y="-9"
     inkscape:window-maximized="1"
     inkscape:current-layer="svg1" />
  <path
     id="Vector"
     d="M 5.625,6.75 C 6.24632,6.75 6.75,6.24632 6.75,5.625 6.75,5.00368 6.24632,4.5 5.625,4.5 5.00368,4.5 4.5,5.00368 4.5,5.625 4.5,6.24632 5.00368,6.75 5.625,6.75 Z"
     fill="#112211"
     fill-rule="evenodd" />
  <path
     id="path1"
     d="M 5.625,0 C 2.52352,0 0,2.41348 0,5.37891 0,6.79113 0.64371,8.66918 1.9132,10.961 c 1.01953,1.8401 2.19903,3.504 2.8125,4.332 0.10367,0.1414 0.23921,0.2565 0.39563,0.3358 0.15643,0.0793 0.32934,0.1206 0.50472,0.1206 0.17539,0 0.3483,-0.0413 0.50473,-0.1206 C 6.2872,15.5495 6.42274,15.4344 6.52641,15.293 7.1388,14.465 8.3194,12.8011 9.3389,10.961 10.6063,8.66988 11.25,6.79184 11.25,5.37891 11.25,2.41348 8.7265,0 5.625,0 Z m 0,7.875 C 5.17999,7.875 4.74498,7.74304 4.37497,7.49581 4.00496,7.24857 3.71657,6.89717 3.54627,6.48604 3.37597,6.0749 3.33142,5.6225 3.41823,5.18605 3.50505,4.74959 3.71934,4.34868 4.03401,4.03401 4.34868,3.71934 4.74959,3.50505 5.18605,3.41823 5.6225,3.33142 6.0749,3.37597 6.48604,3.54627 6.8972,3.71657 7.2486,4.00496 7.4958,4.37497 7.743,4.74498 7.875,5.17999 7.875,5.625 7.8743,6.22154 7.6371,6.79345 7.2153,7.21527 6.7935,7.63709 6.22154,7.87435 5.625,7.875 Z"
     fill="#112211"
     fill-rule="nonzero" />
</svg>
