<?xml version="1.0" encoding="UTF-8" standalone="no"?>
<svg
   viewBox="0 0 21 16.5"
   width="21"
   height="16.5"
   fill="none"
   version="1.1"
   id="svg1"
   sodipodi:docname="mail.svg"
   inkscape:version="1.4.2 (f4327f4, 2025-05-13)"
   xmlns:inkscape="http://www.inkscape.org/namespaces/inkscape"
   xmlns:sodipodi="http://sodipodi.sourceforge.net/DTD/sodipodi-0.dtd"
   xmlns="http://www.w3.org/2000/svg"
   xmlns:svg="http://www.w3.org/2000/svg">
  <defs
     id="defs1" />
  <sodipodi:namedview
     id="namedview1"
     pagecolor="#ffffff"
     bordercolor="#000000"
     borderopacity="0.25"
     inkscape:showpageshadow="2"
     inkscape:pageopacity="0.0"
     inkscape:pagecheckerboard="0"
     inkscape:deskcolor="#d1d1d1"
     inkscape:zoom="32.208333"
     inkscape:cx="12"
     inkscape:cy="12"
     inkscape:window-width="1920"
     inkscape:window-height="991"
     inkscape:window-x="-9"
     inkscape:window-y="-9"
     inkscape:window-maximized="1"
     inkscape:current-layer="svg1" />
  <path
     id="Vector"
     d="M 18.375,0 H 2.625 C 1.92904,7.4e-4 1.26179,0.27755 0.76967,0.76967 0.27755,1.26179 7.4e-4,1.92904 0,2.625 v 11.25 c 7.4e-4,0.696 0.27755,1.3632 0.76967,1.8553 0.49212,0.4922 1.15937,0.769 1.85533,0.7697 h 15.75 c 0.696,-7e-4 1.3632,-0.2775 1.8553,-0.7697 C 20.7225,15.2382 20.9993,14.571 21,13.875 V 2.625 C 20.9993,1.92904 20.7225,1.26179 20.2303,0.76967 19.7382,0.27755 19.071,7.4e-4 18.375,0 Z M 17.7103,4.34203 10.9603,9.592 C 10.8287,9.6944 10.6667,9.7499 10.5,9.7499 10.3333,9.7499 10.1713,9.6944 10.0397,9.592 L 3.28969,4.34203 C 3.21038,4.28214 3.14377,4.20709 3.09372,4.12123 3.04367,4.03537 3.01118,3.94042 2.99815,3.8419 2.98511,3.74338 2.99179,3.64325 3.01778,3.54733 3.04378,3.45142 3.08858,3.36162 3.14958,3.28316 3.21058,3.20471 3.28656,3.13916 3.37312,3.09032 3.45967,3.04149 3.55506,3.01034 3.65376,2.99869 3.75245,2.98704 3.85248,2.99513 3.94802,3.02247 c 0.09555,0.02734 0.1847,0.0734 0.26229,0.1355 L 10.5,8.0498 16.7897,3.15797 C 16.947,3.0392 17.1447,2.98711 17.34,3.01296 c 0.1954,0.02585 0.3728,0.12757 0.4938,0.28316 0.1209,0.15559 0.1758,0.35254 0.1527,0.54827 -0.0231,0.19572 -0.1223,0.37449 -0.2762,0.49764 z"
     fill="#112211"
     fill-rule="nonzero" />
</svg>
