<?xml version="1.0" encoding="UTF-8" standalone="no"?>
<svg
   viewBox="0 0 20 19"
   width="20"
   height="19"
   fill="none"
   version="1.1"
   id="svg1"
   sodipodi:docname="pool.svg"
   inkscape:version="1.4.2 (f4327f4, 2025-05-13)"
   xmlns:inkscape="http://www.inkscape.org/namespaces/inkscape"
   xmlns:sodipodi="http://sodipodi.sourceforge.net/DTD/sodipodi-0.dtd"
   xmlns="http://www.w3.org/2000/svg"
   xmlns:svg="http://www.w3.org/2000/svg">
  <defs
     id="defs1" />
  <sodipodi:namedview
     id="namedview1"
     pagecolor="#ffffff"
     bordercolor="#000000"
     borderopacity="0.25"
     inkscape:showpageshadow="2"
     inkscape:pageopacity="0.0"
     inkscape:pagecheckerboard="0"
     inkscape:deskcolor="#d1d1d1"
     inkscape:zoom="32.208333"
     inkscape:cx="12"
     inkscape:cy="12"
     inkscape:window-width="1920"
     inkscape:window-height="991"
     inkscape:window-x="-9"
     inkscape:window-y="-9"
     inkscape:window-maximized="1"
     inkscape:current-layer="svg1" />
  <path
     id="Vector"
     d="M 0,13 C 1.67,12.25 3.33,11.5 5,11.17 V 3 C 5,2.20435 5.31607,1.44129 5.87868,0.87868 6.44129,0.31607 7.20435,0 8,0 9.31,0 10.42,0.83 10.83,2 H 8 C 7.73478,2 7.48043,2.10536 7.29289,2.29289 7.10536,2.48043 7,2.73478 7,3 v 1 h 5 V 3 C 12,2.20435 12.3161,1.44129 12.8787,0.87868 13.4413,0.31607 14.2043,0 15,0 c 1.31,0 2.42,0.83 2.83,2 H 15 C 14.7348,2 14.4804,2.10536 14.2929,2.29289 14.1054,2.48043 14,2.73478 14,3 v 9.94 C 16,12.62 18,11 20,11 v 2 c -2.22,0 -4.44,2 -6.67,2 C 11.11,15 8.89,13 6.67,13 4.44,13 2.22,14 0,15 Z M 12,6 H 7 v 2 h 5 z m 0,4 H 7 v 1 c 1.67,0.16 3.33,1.31 5,1.79 z M 0,17 c 2.22,-1 4.44,-2 6.67,-2 2.22,0 4.44,2 6.66,2 2.23,0 4.45,-2 6.67,-2 v 2 c -2.22,0 -4.44,2 -6.67,2 C 11.11,19 8.89,17 6.67,17 4.44,17 2.22,18 0,19 Z"
     fill="#112211"
     fill-rule="nonzero" />
</svg>
