<?xml version="1.0" encoding="UTF-8" standalone="no"?>
<svg
   viewBox="0 0 18 20"
   width="18"
   height="20"
   fill="none"
   version="1.1"
   id="svg1"
   sodipodi:docname="restaurant.svg"
   inkscape:version="1.4.2 (f4327f4, 2025-05-13)"
   xmlns:inkscape="http://www.inkscape.org/namespaces/inkscape"
   xmlns:sodipodi="http://sodipodi.sourceforge.net/DTD/sodipodi-0.dtd"
   xmlns="http://www.w3.org/2000/svg"
   xmlns:svg="http://www.w3.org/2000/svg">
  <defs
     id="defs1" />
  <sodipodi:namedview
     id="namedview1"
     pagecolor="#ffffff"
     bordercolor="#000000"
     borderopacity="0.25"
     inkscape:showpageshadow="2"
     inkscape:pageopacity="0.0"
     inkscape:pagecheckerboard="0"
     inkscape:deskcolor="#d1d1d1"
     inkscape:zoom="32.208333"
     inkscape:cx="12"
     inkscape:cy="12"
     inkscape:window-width="1920"
     inkscape:window-height="991"
     inkscape:window-x="-9"
     inkscape:window-y="-9"
     inkscape:window-maximized="1"
     inkscape:current-layer="svg1" />
  <path
     id="Vector"
     d="m 13,4 v 6 c 0,1.1 0.9,2 2,2 h 1 v 7 c 0,0.55 0.45,1 1,1 0.55,0 1,-0.45 1,-1 V 1.13 C 18,0.48 17.39,0 16.76,0.15 14.6,0.68 13,2.51 13,4 Z M 8,7 H 6 V 1 C 6,0.45 5.55,0 5,0 4.45,0 4,0.45 4,1 V 7 H 2 V 1 C 2,0.45 1.55,0 1,0 0.45,0 0,0.45 0,1 v 6 c 0,2.21 1.79,4 4,4 v 8 c 0,0.55 0.45,1 1,1 0.55,0 1,-0.45 1,-1 v -8 c 2.21,0 4,-1.79 4,-4 V 1 C 10,0.45 9.55,0 9,0 8.45,0 8,0.45 8,1 Z"
     fill="#112211"
     fill-rule="nonzero" />
</svg>
