<?xml version="1.0" encoding="UTF-8" standalone="no"?>
<svg
   viewBox="0 0 19.455999 19.455999"
   width="19.455999"
   height="19.455999"
   fill="none"
   version="1.1"
   id="svg1"
   sodipodi:docname="search.svg"
   inkscape:version="1.4.2 (f4327f4, 2025-05-13)"
   xmlns:inkscape="http://www.inkscape.org/namespaces/inkscape"
   xmlns:sodipodi="http://sodipodi.sourceforge.net/DTD/sodipodi-0.dtd"
   xmlns="http://www.w3.org/2000/svg"
   xmlns:svg="http://www.w3.org/2000/svg">
  <defs
     id="defs1" />
  <sodipodi:namedview
     id="namedview1"
     pagecolor="#ffffff"
     bordercolor="#000000"
     borderopacity="0.25"
     inkscape:showpageshadow="2"
     inkscape:pageopacity="0.0"
     inkscape:pagecheckerboard="0"
     inkscape:deskcolor="#d1d1d1"
     inkscape:zoom="32.208333"
     inkscape:cx="12"
     inkscape:cy="12"
     inkscape:window-width="1920"
     inkscape:window-height="991"
     inkscape:window-x="-9"
     inkscape:window-y="-9"
     inkscape:window-maximized="1"
     inkscape:current-layer="svg1" />
  <path
     id="Vector"
     d="M 19.1573,17.5027 14.7469,13.0922 C 15.8087,11.6786 16.3819,9.958 16.38,8.19 16.38,3.67406 12.7059,0 8.19,0 3.67406,0 0,3.67406 0,8.19 c 0,4.5159 3.67406,8.19 8.19,8.19 1.768,0.0019 3.4886,-0.5713 4.9022,-1.6331 l 4.4105,4.4104 c 0.2232,0.1996 0.5144,0.3061 0.8137,0.2978 0.2994,-0.0084 0.5842,-0.1311 0.7959,-0.3428 0.2117,-0.2117 0.3344,-0.4965 0.3428,-0.7959 0.0083,-0.2993 -0.0982,-0.5905 -0.2978,-0.8137 z M 2.34,8.19 c 0,-1.15702 0.3431,-2.28806 0.9859,-3.25009 0.64281,-0.96202 1.55645,-1.71183 2.6254,-2.1546 1.06895,-0.44278 2.2452,-0.55863 3.38,-0.3329 1.1348,0.22572 2.1771,0.78288 2.9953,1.60102 0.8181,0.81813 1.3753,1.8605 1.601,2.99529 0.2257,1.13478 0.1099,2.31108 -0.3329,3.37998 -0.4428,1.0689 -1.1926,1.9826 -2.1546,2.6254 C 10.4781,13.6969 9.347,14.04 8.19,14.04 6.63906,14.0381 5.15217,13.4212 4.05548,12.3245 2.9588,11.2278 2.34186,9.7409 2.34,8.19 Z"
     fill="#112211"
     fill-rule="nonzero" />
</svg>
