<?xml version="1.0" encoding="UTF-8" standalone="no"?>
<svg
   viewBox="0 0 20 15"
   width="20"
   height="15"
   fill="none"
   version="1.1"
   id="svg1"
   sodipodi:docname="service.svg"
   inkscape:version="1.4.2 (f4327f4, 2025-05-13)"
   xmlns:inkscape="http://www.inkscape.org/namespaces/inkscape"
   xmlns:sodipodi="http://sodipodi.sourceforge.net/DTD/sodipodi-0.dtd"
   xmlns="http://www.w3.org/2000/svg"
   xmlns:svg="http://www.w3.org/2000/svg">
  <defs
     id="defs1" />
  <sodipodi:namedview
     id="namedview1"
     pagecolor="#ffffff"
     bordercolor="#000000"
     borderopacity="0.25"
     inkscape:showpageshadow="2"
     inkscape:pageopacity="0.0"
     inkscape:pagecheckerboard="0"
     inkscape:deskcolor="#d1d1d1"
     inkscape:zoom="33.125"
     inkscape:cx="12"
     inkscape:cy="12"
     inkscape:window-width="1920"
     inkscape:window-height="991"
     inkscape:window-x="-9"
     inkscape:window-y="-9"
     inkscape:window-maximized="1"
     inkscape:current-layer="svg1" />
  <path
     id="Vector"
     d="M 1,15 C 0.71667,15 0.47933,14.904 0.288,14.712 0.096,14.5207 0,14.2833 0,14 0,13.7167 0.096,13.4793 0.288,13.288 0.47933,13.096 0.71667,13 1,13 h 18 c 0.2833,0 0.5207,0.096 0.712,0.288 C 19.904,13.4793 20,13.7167 20,14 20,14.2833 19.904,14.5207 19.712,14.712 19.5207,14.904 19.2833,15 19,15 Z M 1,12 V 11 C 1,8.8667 1.65433,6.9833 2.963,5.35 4.271,3.71667 5.95,2.68333 8,2.25 V 2 C 8,1.45 8.196,0.97933 8.588,0.588 8.9793,0.196 9.45,0 10,0 10.55,0 11.021,0.196 11.413,0.588 11.8043,0.97933 12,1.45 12,2 v 0.25 c 2.0667,0.43333 3.75,1.46667 5.05,3.1 C 18.35,6.9833 19,8.8667 19,11 v 1 z"
     fill="#112211"
     fill-rule="nonzero" />
</svg>
