<?xml version="1.0" encoding="UTF-8" standalone="no"?>
<svg
   viewBox="0 0 15.75 16.172001"
   width="15.75"
   height="16.172001"
   fill="none"
   version="1.1"
   id="svg1"
   sodipodi:docname="settings.svg"
   inkscape:version="1.4.2 (f4327f4, 2025-05-13)"
   xmlns:inkscape="http://www.inkscape.org/namespaces/inkscape"
   xmlns:sodipodi="http://sodipodi.sourceforge.net/DTD/sodipodi-0.dtd"
   xmlns="http://www.w3.org/2000/svg"
   xmlns:svg="http://www.w3.org/2000/svg">
  <defs
     id="defs1" />
  <sodipodi:namedview
     id="namedview1"
     pagecolor="#ffffff"
     bordercolor="#000000"
     borderopacity="0.25"
     inkscape:showpageshadow="2"
     inkscape:pageopacity="0.0"
     inkscape:pagecheckerboard="0"
     inkscape:deskcolor="#d1d1d1"
     inkscape:zoom="44.166667"
     inkscape:cx="9"
     inkscape:cy="9"
     inkscape:window-width="1920"
     inkscape:window-height="991"
     inkscape:window-x="-9"
     inkscape:window-y="-9"
     inkscape:window-maximized="1"
     inkscape:current-layer="svg1" />
  <path
     id="Vector"
     d="m 7.8749997,9.773438 c 0.93198,0 1.6875,-0.75552 1.6875,-1.6875 0,-0.93198 -0.75552,-1.6875 -1.6875,-1.6875 -0.93198,0 -1.6875,0.75552 -1.6875,1.6875 0,0.93198 0.75552,1.6875 1.6875,1.6875 z"
     fill="#000000"
     fill-rule="evenodd" />
  <path
     id="path1"
     d="m 15.4122,9.632838 -0.0166,-0.0134 -1.1095,-0.8701 c -0.0703,-0.05559 -0.1263,-0.12705 -0.1636,-0.20851 -0.0373,-0.08147 -0.0547,-0.17062 -0.0508,-0.26012 v -0.40641 c -0.0036,-0.08894 0.0141,-0.17744 0.0514,-0.25824 0.0374,-0.0808 0.0933,-0.15158 0.1634,-0.20653 l 1.1091,-0.87047 0.0166,-0.01335 c 0.171,-0.14251 0.2858,-0.34121 0.3238,-0.56058 0.038,-0.21937 -0.0033,-0.44511 -0.1164,-0.63685 l -1.5015,-2.59804 c -0.0018,-0.00245 -0.0033,-0.00504 -0.0046,-0.00774 -0.1138,-0.18908 -0.2902,-0.33235 -0.4986,-0.40492 -0.2084,-0.07257 -0.4356,-0.06986 -0.6422,0.00766 l -0.0123,0.00457 -1.3043,0.52488 c -0.0824,0.03329 -0.1714,0.04653 -0.2599,0.03865 -0.0884,-0.00789 -0.1737,-0.03668 -0.2488,-0.084 -0.1154,-0.07266 -0.2325,-0.14133 -0.3516,-0.20602 -0.0772,-0.04186 -0.1435,-0.10128 -0.1935,-0.17346 -0.05,-0.07218 -0.0824,-0.1551 -0.0944,-0.24208 L 10.3113,0.795938 10.3071,0.770628 C 10.2643,0.555048 10.1487,0.360768 9.9794997,0.220428 9.8103997,0.080092 9.5980997,0.002256 9.3782997,0 h -3.00656 c -0.22287,7.14e-4 -0.43834,0.080057 -0.60845,0.224048 -0.1701,0.144 -0.28393,0.34341 -0.32144,0.5631 l -0.00316,0.01969 -0.19582,1.39465 c -0.01201,0.08673 -0.04411,0.16946 -0.09373,0.2416 -0.04962,0.07214 -0.1154,0.1317 -0.19209,0.17394 -0.11941,0.06432 -0.23666,0.13256 -0.35156,0.20461 -0.07501,0.04704 -0.1601,0.07561 -0.24828,0.08337 -0.08819,0.00776 -0.17696,-0.00551 -0.25903,-0.03872 l -1.30535,-0.52734 -0.01231,-0.00492 c -0.2069,-0.0776 -0.43447,-0.08021 -0.6431,-0.00737 -0.20863,0.07284 -0.38512,0.21652 -0.49877,0.40604 l -0.00457,0.00773 -1.50363002,2.59981 c -0.11334,0.19193 -0.1547,0.41791 -0.1167,0.63755 0.038,0.21963 0.15289,0.41858 0.32412,0.56127 l 0.01652,0.01336 1.10953002,0.87012 c 0.07027,0.05559 0.12634,0.12705 0.16362,0.20851 0.03728,0.08147 0.0547,0.17062 0.05084,0.26012 v 0.40641 c 0.00352,0.08894 -0.01412,0.17744 -0.05146,0.25824 -0.03734,0.0808 -0.09333,0.15158 -0.16335,0.20653 l -1.10918002,0.87049 -0.01652,0.0133 c -0.17106,0.1425 -0.28586,0.3412 -0.32386,0.5606 -0.038,0.2194 0.00327,0.4451 0.11644,0.6369 l 1.50152002,2.598 c 0.00173,0.0025 0.00326,0.005 0.00457,0.0077 0.11377,0.1891 0.29018,0.3324 0.49858,0.405 0.2084,0.0725 0.43563,0.0698 0.64224,-0.0077 l 0.01231,-0.0046 1.30324,-0.5249 c 0.08232,-0.0332 0.17137,-0.0465 0.25982,-0.0386 0.08845,0.0079 0.17375,0.0367 0.24889,0.084 0.11531,0.0729 0.2325,0.1416 0.35156,0.206 0.0772,0.0419 0.14347,0.1013 0.19349,0.1735 0.05001,0.0722 0.08236,0.1551 0.09444,0.2421 l 0.19547,1.3918 0.00422,0.0253 c 0.04285,0.2159 0.15885,0.4105 0.32843,0.5509 0.16958,0.1403 0.38237,0.218 0.60251,0.2197 h 3.00656 c 0.2229,-7e-4 0.4383,-0.08 0.6084,-0.224 0.1701003,-0.144 0.2840003,-0.3434 0.3215003,-0.5631 l 0.0031,-0.0197 0.1959,-1.3946 c 0.0122,-0.0869 0.0445,-0.1698 0.0945,-0.2419 0.0499,-0.0722 0.116,-0.1317 0.193,-0.1737 0.1203,-0.0647 0.2377,-0.1332 0.3516,-0.2046 0.075,-0.047 0.1601,-0.0756 0.2483,-0.0834 0.0882,-0.0077 0.1769,0.0055 0.259,0.0387 l 1.3054,0.5256 0.0123,0.005 c 0.2069,0.0777 0.4345,0.0804 0.6431,0.0075 0.2087,-0.0728 0.3852,-0.2166 0.4987,-0.4062 0.0014,-0.0027 0.003,-0.0053 0.0046,-0.0077 l 1.5015,-2.5977 c 0.1136,-0.192 0.1551,-0.418 0.1172,-0.6377 -0.038,-0.2198 -0.1529,-0.4188 -0.3242,-0.5615 z m -4.7278,-1.41471 c -0.0256,0.54442 -0.2089,1.06971 -0.5275,1.51191 -0.3186003,0.4422 -0.7588003,0.7823 -1.2671003,0.979 -0.50827,0.1967 -1.06276,0.2414 -1.59602,0.1288 -0.53326,-0.1127 -1.02231,-0.3778 -1.40768,-0.7632 -0.38537,-0.3854 -0.65045,-0.8745 -0.76301,-1.40777 -0.11256,-0.53328 -0.06775,-1.08777 0.12898,-1.59605 0.19673,-0.50827 0.5369,-0.94844 0.97916,-1.26698 0.44225,-0.31853 0.96753,-0.5017 1.51195,-0.52724 0.39086,-0.0172 0.78101,0.04711 1.14562,0.18885 0.3647,0.14174 0.6959,0.35781 0.9725,0.63447 0.2766003,0.27666 0.4926003,0.60785 0.6343003,0.97252 0.1417,0.36467 0.206,0.75484 0.1888,1.14569 z"
     fill="#000000"
     fill-rule="nonzero" />
</svg>
