<?xml version="1.0" encoding="UTF-8" standalone="no"?>
<svg
   viewBox="0 0 22.5 15"
   width="22.5"
   height="15"
   fill="none"
   version="1.1"
   id="svg1"
   sodipodi:docname="show.svg"
   inkscape:version="1.4.2 (f4327f4, 2025-05-13)"
   xmlns:inkscape="http://www.inkscape.org/namespaces/inkscape"
   xmlns:sodipodi="http://sodipodi.sourceforge.net/DTD/sodipodi-0.dtd"
   xmlns="http://www.w3.org/2000/svg"
   xmlns:svg="http://www.w3.org/2000/svg">
  <defs
     id="defs1" />
  <sodipodi:namedview
     id="namedview1"
     pagecolor="#ffffff"
     bordercolor="#000000"
     borderopacity="0.25"
     inkscape:showpageshadow="2"
     inkscape:pageopacity="0.0"
     inkscape:pagecheckerboard="0"
     inkscape:deskcolor="#d1d1d1"
     inkscape:zoom="33.125"
     inkscape:cx="12"
     inkscape:cy="12"
     inkscape:window-width="1920"
     inkscape:window-height="991"
     inkscape:window-x="-9"
     inkscape:window-y="-9"
     inkscape:window-maximized="1"
     inkscape:current-layer="svg1" />
  <path
     id="Vector"
     d="m 11.25,10.5 c 1.6569,0 3,-1.3431 3,-3 0,-1.6569 -1.3431,-3 -3,-3 -1.6569003,0 -3.0000003,1.3431 -3.0000003,3 0,1.6569 1.3431,3 3.0000003,3 z"
     fill="#000000"
     fill-rule="evenodd" />
  <path
     id="path1"
     d="M 22.2591,6.6844 C 21.0187,4.76625 19.4095,3.13688 17.6058,1.97203 15.6103,0.68203 13.4072,0 11.235,0 9.2418697,0 7.2820297,0.56953 5.4098397,1.69266 3.5006197,2.83781 1.7709297,4.51078 0.26858966,6.6647 0.09898966,6.9081 0.00558366,7.1965 2.4266255e-4,7.4931 -0.00509934,7.7897 0.07786466,8.0813 0.23859066,8.3306 1.4765597,10.268 3.0698397,11.8997 4.8454697,13.0486 6.8446797,14.3438 8.9962497,15 11.235,15 c 2.1895,0 4.3973,-0.6764 6.3844,-1.9556 1.8028,-1.1611 3.4087,-2.7966 4.6443,-4.7307 0.1552,-0.2435 0.2373,-0.5265 0.2365,-0.8153 -9e-4,-0.2888 -0.0846,-0.5713 -0.2411,-0.814 z M 11.2509,12 c -0.89,0 -1.7600003,-0.2639 -2.5000303,-0.7584 -0.74002,-0.4945 -1.3168,-1.1973 -1.65739,-2.0195 -0.3406,-0.8223 -0.42971,-1.7271 -0.25608,-2.6 0.17363,-0.8729 0.60222,-1.67474 1.23155,-2.30408 0.62934,-0.62934 1.43115,-1.05792 2.3040503,-1.23155 0.8729,-0.17364 1.7777,-0.08452 2.6,0.25607 0.8223,0.3406 1.5251,0.91737 2.0195,1.65739 C 15.487,5.74 15.7509,6.61 15.7509,7.5 15.7496,8.6931 15.275,9.8369 14.4314,10.6805 13.5878,11.5241 12.444,11.9986 11.2509,12 Z"
     fill="#000000"
     fill-rule="nonzero" />
</svg>
