<?xml version="1.0" encoding="UTF-8" standalone="no"?>
<svg
   viewBox="0 0 19.908001 19.377001"
   width="19.908001"
   height="19.377001"
   fill="none"
   version="1.1"
   id="svg1"
   sodipodi:docname="spa.svg"
   inkscape:version="1.4.2 (f4327f4, 2025-05-13)"
   xmlns:inkscape="http://www.inkscape.org/namespaces/inkscape"
   xmlns:sodipodi="http://sodipodi.sourceforge.net/DTD/sodipodi-0.dtd"
   xmlns="http://www.w3.org/2000/svg"
   xmlns:svg="http://www.w3.org/2000/svg">
  <defs
     id="defs1" />
  <sodipodi:namedview
     id="namedview1"
     pagecolor="#ffffff"
     bordercolor="#000000"
     borderopacity="0.25"
     inkscape:showpageshadow="2"
     inkscape:pageopacity="0.0"
     inkscape:pagecheckerboard="0"
     inkscape:deskcolor="#d1d1d1"
     inkscape:zoom="33.125"
     inkscape:cx="12"
     inkscape:cy="12"
     inkscape:window-width="1920"
     inkscape:window-height="991"
     inkscape:window-x="-9"
     inkscape:window-y="-9"
     inkscape:window-maximized="1"
     inkscape:current-layer="svg1" />
  <path
     id="Vector"
     d="m 10.931439,18.28838 c 0.0334,0.3166 -0.0706,0.5876 -0.312,0.813 -0.242,0.2246 -0.513,0.312 -0.8129999,0.262 -2.89998,-0.4334 -5.19998,-1.5544 -6.89998,-3.363 -1.7,-1.808 -2.66666999,-4.2704 -2.89999999,-7.3870005 -0.03333,-0.3334 0.06233,-0.6127 0.287,-0.838 0.22533,-0.2247 0.50467,-0.312 0.83799999,-0.262 3.05,0.4166 5.4,1.5916 7.04998,3.5250005 1.65,1.9333 2.5666999,4.35 2.7499999,7.25 z M 9.1564391,0.41332951 c 0.2,-0.28333 0.4624,-0.421 0.787,-0.41299999788 C 10.268839,0.00899951 10.531439,0.15499951 10.731439,0.43832951 c 0.75,1.04999999 1.4044,2.19999999 1.963,3.44999999 0.558,1.25 0.8954,2.3 1.012,3.15 -0.65,0.3 -1.375,0.78735 -2.175,1.46205 -0.8,0.6753 -1.325,1.1963 -1.5749999,1.5630005 -0.2333,-0.3667005 -0.7706,-0.9044005 -1.612,-1.6130005 -0.84198,-0.708 -1.55465,-1.17871 -2.13798,-1.41205 0.13333,-0.83333 0.471,-1.88766 1.013,-3.163 0.54133,-1.27466 1.18698,-2.42866 1.93698,-3.46199999 z M 18.806439,7.5133795 c 0.3167,-0.0334 0.5834,0.054 0.8,0.262 0.2167,0.2086 0.3167,0.4796 0.3,0.813 -0.1333,2.6833005 -0.8623,4.8626005 -2.187,6.5380005 -1.3253,1.6746 -2.9296,2.8453 -4.813,3.512 -0.0333,-1.0167 -0.1873,-2.1707 -0.462,-3.462 -0.2753,-1.292 -0.7046,-2.4047 -1.288,-3.338 0.7167,-1.1 1.7794,-2.0500005 3.188,-2.8500005 1.408,-0.8 2.8954,-1.2917 4.462,-1.475 z"
     fill="#112211"
     fill-rule="nonzero" />
</svg>
