<?xml version="1.0" encoding="UTF-8" standalone="no"?>
<svg
   viewBox="0 0 15.805 15.805"
   width="15.805"
   height="15.805"
   fill="none"
   version="1.1"
   id="svg1"
   sodipodi:docname="support.svg"
   inkscape:version="1.4.2 (f4327f4, 2025-05-13)"
   xmlns:inkscape="http://www.inkscape.org/namespaces/inkscape"
   xmlns:sodipodi="http://sodipodi.sourceforge.net/DTD/sodipodi-0.dtd"
   xmlns="http://www.w3.org/2000/svg"
   xmlns:svg="http://www.w3.org/2000/svg">
  <defs
     id="defs1" />
  <sodipodi:namedview
     id="namedview1"
     pagecolor="#ffffff"
     bordercolor="#000000"
     borderopacity="0.25"
     inkscape:showpageshadow="2"
     inkscape:pageopacity="0.0"
     inkscape:pagecheckerboard="0"
     inkscape:deskcolor="#d1d1d1"
     inkscape:zoom="44.166667"
     inkscape:cx="9"
     inkscape:cy="9"
     inkscape:window-width="1920"
     inkscape:window-height="991"
     inkscape:window-x="-9"
     inkscape:window-y="-9"
     inkscape:window-maximized="1"
     inkscape:current-layer="svg1" />
  <path
     id="Vector"
     d="m 13.470844,2.334014 c -0.73,-0.73717 -1.5984,-1.32285 -2.5554,-1.72339002 C 9.9584438,0.21008398 8.9318438,0.00257398 7.8943838,2.3977085e-5 6.8569638,-0.00253602 5.8292638,0.19992398 4.8703238,0.59574398 c -0.95894,0.39582 -1.83022,0.97722002 -2.56379,1.71079002 -0.73357,0.73357 -1.31496001,1.60485 -1.71079001,2.56379 -0.39582,0.95894 -0.59827,1.98664 -0.595719997567,3.02406 C 0.00257379,8.931764 0.21008379,9.958464 0.61062379,10.915464 c 0.40054001,0.957 0.98622001,1.8254 1.72339001,2.5553 0.72995,0.7372 1.59836,1.3229 2.55534,1.7234 0.95698,0.4006 1.98367,0.6081 3.02108,0.6106 1.03741,0.0026 2.06511,-0.1999 3.0241102,-0.5957 0.9589,-0.3958 1.8302,-0.9772 2.5637,-1.7108 0.7336,-0.7335 1.315,-1.6048 1.7108,-2.5638 0.3959,-0.9589 0.5983,-1.9866 0.5958,-3.02403 -0.0026,-1.03742 -0.2101,-2.06411 -0.6106,-3.02109 -0.4006,-0.95698 -0.9863,-1.82539 -1.7234,-2.55533 z m -7.8138602,5.71535 c -0.02984,-0.45655 0.08021,-0.91134 0.31548,-1.30374 0.23527,-0.3924 0.58457,-0.70374 1.00133,-0.89253 0.41676,-0.18878 0.88116,-0.24603 1.33129,-0.1641 0.45013,0.08193 0.86456,0.29913 1.18806,0.62264 0.3236,0.32352 0.5408002,0.73798 0.6227002,1.1881 0.0819,0.45013 0.0247,0.91453 -0.1641002,1.33129 -0.1888,0.41674 -0.5002,0.76604 -0.8925,1.00134 -0.39244,0.2353 -0.84724,0.3453 -1.30379,0.3155 -0.54467,-0.0361 -1.05769,-0.2688 -1.44368,-0.6548 -0.38599,-0.386 -0.61867,-0.89903 -0.65479,-1.4437 z m 8.4374602,-2.34281 -3.388,0.20531 c -0.0232,0.00122 -0.0463,-0.00323 -0.0674,-0.01298 -0.021,-0.00974 -0.0394,-0.02447 -0.0535,-0.04292 -0.1825,-0.23912 -0.3962,-0.45277 -0.6353002,-0.63527 -0.0184,-0.0141 -0.0332,-0.03248 -0.0429,-0.05355 -0.0097,-0.02107 -0.0142,-0.04421 -0.013,-0.06739 l 0.2053002,-3.38801 c 0.0013,-0.02208 0.0077,-0.04356 0.0188,-0.06268 0.0112,-0.01912 0.0266,-0.03535 0.0452,-0.04737 0.0186,-0.01203 0.0397,-0.0195 0.0617,-0.02182 0.022,-0.00232 0.0442,5.8e-4 0.0649,0.00847 0.8944,0.34072 1.7067,0.86682 2.3833,1.54374 0.6767,0.67692 1.2025,1.48935 1.5429,2.38392 0.0079,0.02066 0.0108,0.04289 0.0085,0.06489 -0.0023,0.02199 -0.0098,0.04313 -0.0218,0.0617 -0.012,0.01856 -0.0283,0.03403 -0.0474,0.04514 -0.0191,0.01111 -0.0406,0.01756 -0.0627,0.01882 z m -8.3878902,-3.99481 0.20531,3.38801 c 0.00122,0.02318 -0.00323,0.04632 -0.01297,0.06739 -0.00974,0.02107 -0.02448,0.03945 -0.04293,0.05355 -0.23912,0.1825 -0.45277,0.39615 -0.63527,0.63527 -0.01409,0.01845 -0.03247,0.03318 -0.05355,0.04292 -0.02107,0.00975 -0.0442,0.0142 -0.06739,0.01298 l -3.38801,-0.20531 c -0.02208,-0.00126 -0.04355,-0.00771 -0.06268,-0.01882 -0.01912,-0.01111 -0.03535,-0.02658 -0.04737,-0.04514 -0.01202,-0.01857 -0.0195,-0.03971 -0.02182,-0.0617 -0.00232,-0.022 5.9e-4,-0.04423 0.00847,-0.06489 0.34055,-0.89471 0.86658,-1.70722 1.54351,-2.38415 0.67693,-0.67694 1.48945,-1.20296 2.38415,-1.54351 0.02066,-0.00789 0.0429,-0.01079 0.06489,-0.00847 0.022,0.00232 0.04313,0.00979 0.0617,0.02182 0.01856,0.01202 0.03403,0.02825 0.04514,0.04737 0.01112,0.01912 0.01756,0.0406 0.01882,0.06268 z m -3.99481,8.38652 3.38801,-0.2053 c 0.02319,-0.0012 0.04632,0.0032 0.06739,0.013 0.02108,0.0097 0.03946,0.0244 0.05355,0.0429 0.1825,0.2391 0.39615,0.4528 0.63527,0.6353 0.01845,0.0141 0.03319,0.0324 0.04293,0.0535 0.00974,0.0211 0.01419,0.0442 0.01297,0.0674 l -0.20531,3.388 c -0.00126,0.0221 -0.0077,0.0436 -0.01882,0.0627 -0.01111,0.0191 -0.02658,0.0353 -0.04514,0.0474 -0.01857,0.012 -0.0397,0.0195 -0.0617,0.0218 -0.02199,0.0023 -0.04423,-6e-4 -0.06489,-0.0085 -0.8947,-0.3405 -1.70722,-0.8666 -2.38415,-1.5435 -0.67693,-0.6769 -1.20296,-1.4894 -1.54351,-2.3841 -0.00788,-0.0207 -0.01079,-0.0429 -0.00847,-0.0649 0.00232,-0.022 0.0098,-0.0432 0.02182,-0.0617 0.01202,-0.0186 0.02825,-0.0341 0.04737,-0.0452 0.01913,-0.0111 0.0406,-0.0175 0.06268,-0.0188 z m 8.3865002,3.9948 -0.2053002,-3.388 c -0.0012,-0.0232 0.0032,-0.0463 0.013,-0.0674 0.0097,-0.0211 0.0245,-0.0394 0.0429,-0.0535 0.2391002,-0.1825 0.4528002,-0.3962 0.6353002,-0.6353 0.0141,-0.0185 0.0325,-0.0332 0.0535,-0.0429 0.0211,-0.0098 0.0442,-0.0142 0.0674,-0.013 l 3.388,0.2053 c 0.0221,0.0013 0.0436,0.0077 0.0627,0.0188 0.0191,0.0111 0.0354,0.0266 0.0474,0.0452 0.012,0.0185 0.0195,0.0397 0.0218,0.0617 0.0023,0.022 -6e-4,0.0442 -0.0085,0.0649 -0.3405,0.8947 -0.8665,1.7072 -1.5435,2.3841 -0.6769,0.6769 -1.4894,1.203 -2.3841,1.5435 -0.0207,0.0079 -0.0429,0.0108 -0.0649,0.0085 -0.022,-0.0023 -0.0431,-0.0098 -0.0617,-0.0218 -0.0186,-0.0121 -0.034,-0.0283 -0.0452,-0.0474 -0.0111,-0.0191 -0.0175,-0.0406 -0.0188,-0.0627 z"
     fill="#000000"
     fill-rule="nonzero" />
</svg>
