<?xml version="1.0" encoding="UTF-8" standalone="no"?>
<svg
   viewBox="0 0 14.625 15.75"
   width="14.625"
   height="15.75"
   fill="none"
   version="1.1"
   id="svg1"
   sodipodi:docname="user.svg"
   inkscape:version="1.4.2 (f4327f4, 2025-05-13)"
   xmlns:inkscape="http://www.inkscape.org/namespaces/inkscape"
   xmlns:sodipodi="http://sodipodi.sourceforge.net/DTD/sodipodi-0.dtd"
   xmlns="http://www.w3.org/2000/svg"
   xmlns:svg="http://www.w3.org/2000/svg">
  <defs
     id="defs1" />
  <sodipodi:namedview
     id="namedview1"
     pagecolor="#ffffff"
     bordercolor="#000000"
     borderopacity="0.25"
     inkscape:showpageshadow="2"
     inkscape:pageopacity="0.0"
     inkscape:pagecheckerboard="0"
     inkscape:deskcolor="#d1d1d1"
     inkscape:zoom="44.166667"
     inkscape:cx="9"
     inkscape:cy="9"
     inkscape:window-width="1920"
     inkscape:window-height="991"
     inkscape:window-x="-9"
     inkscape:window-y="-9"
     inkscape:window-maximized="1"
     inkscape:current-layer="svg1" />
  <path
     id="Vector"
     d="M 10.007101,1.14539 C 9.3229014,0.40676 8.3674014,0 7.3127014,0 c -1.06031,0 -2.01902,0.4043 -2.7,1.13836 -0.68836,0.74215 -1.02375,1.75078 -0.945,2.83992 0.1561,2.14875 1.79121,3.89672 3.645,3.89672 1.8538,0 3.4860996,-1.74762 3.6445996,-3.89602 0.0799,-1.07929 -0.2576,-2.08582 -0.9502,-2.83359 z M 13.500201,15.75 H 1.1252014 c -0.16198001,0.0021 -0.32239001,-0.0319 -0.46956001,-0.0996 -0.14717,-0.0677 -0.2774,-0.1673 -0.38122,-0.2917 -0.22852,-0.2732 -0.32063,-0.6462 -0.25242,-1.0234 0.29672,-1.646 1.22273001,-3.0287 2.67820001,-3.9994 C 3.9932514,9.4743 5.6311814,9 7.3127014,9 c 1.6815,0 3.3194996,0.4746 4.6124996,1.3359 1.4555,0.9703 2.3815,2.353 2.6782,3.9991 0.0682,0.3772 -0.0239,0.7502 -0.2524,1.0234 -0.1038,0.1244 -0.234,0.2241 -0.3812,0.2918 -0.1472,0.0678 -0.3076,0.1019 -0.4696,0.0998 z"
     fill="#000000"
     fill-rule="nonzero" />
</svg>
