<?xml version="1.0" encoding="UTF-8" standalone="no"?>
<svg
   viewBox="0 0 19.974001 15.39"
   width="19.974001"
   height="15.39"
   fill="none"
   version="1.1"
   id="svg2"
   sodipodi:docname="wifi.svg"
   inkscape:version="1.4.2 (f4327f4, 2025-05-13)"
   xmlns:inkscape="http://www.inkscape.org/namespaces/inkscape"
   xmlns:sodipodi="http://sodipodi.sourceforge.net/DTD/sodipodi-0.dtd"
   xmlns="http://www.w3.org/2000/svg"
   xmlns:svg="http://www.w3.org/2000/svg">
  <defs
     id="defs2" />
  <sodipodi:namedview
     id="namedview2"
     pagecolor="#ffffff"
     bordercolor="#000000"
     borderopacity="0.25"
     inkscape:showpageshadow="2"
     inkscape:pageopacity="0.0"
     inkscape:pagecheckerboard="0"
     inkscape:deskcolor="#d1d1d1"
     inkscape:zoom="33.125"
     inkscape:cx="12"
     inkscape:cy="12"
     inkscape:window-width="1920"
     inkscape:window-height="991"
     inkscape:window-x="-9"
     inkscape:window-y="-9"
     inkscape:window-maximized="1"
     inkscape:current-layer="svg2" />
  <path
     id="Vector"
     d="m 13.5691,10.44855 c -0.9868,-0.8771 -2.2611,-1.3615 -3.5813,-1.3615 -1.3202,0 -2.59445,0.4844 -3.5812,1.3615 M 16.4308,7.58685 C 14.6832,5.95265 12.38,5.04361 9.9874,5.04361 c -2.39262,0 -4.69585,0.90904 -6.44346,2.54324"
     fill-rule="nonzero"
     stroke="#112211"
     stroke-linecap="round"
     stroke-linejoin="round"
     stroke-width="2" />
  <path
     id="path1"
     d="M 18.9737,4.42597 C 16.5003,2.21944 13.3015,1 9.9869,1 6.67224,1 3.47345,2.21944 1,4.42597"
     fill-rule="nonzero"
     stroke="#112211"
     stroke-linecap="round"
     stroke-linejoin="round"
     stroke-width="2" />
  <path
     id="path2"
     d="m 9.9873,15.38965 c -0.2967,0 -0.5867,-0.088 -0.8334,-0.2528 -0.2466,-0.1648 -0.4389,-0.3991 -0.5524,-0.6732 -0.1136,-0.2741 -0.1433,-0.5757 -0.0854,-0.8666 0.0579,-0.291 0.2008,-0.5583 0.4105,-0.7681 0.2098,-0.2097 0.4771,-0.3526 0.7681,-0.4105 0.2909,-0.0579 0.5925,-0.0281 0.8666,0.0854 0.2741,0.1135 0.5084,0.3058 0.6732,0.5524 0.1648,0.2467 0.2528,0.5367 0.2528,0.8334 0,0.3978 -0.158,0.7794 -0.4393,1.0607 -0.2813,0.2813 -0.6629,0.4393 -1.0607,0.4393 z"
     fill="#112211"
     fill-rule="nonzero" />
</svg>
