<?xml version="1.0" encoding="UTF-8" standalone="no"?>
<svg
   viewBox="0 0 16.382999 19.500999"
   width="16.382999"
   height="19.500999"
   fill="none"
   version="1.1"
   id="svg1"
   sodipodi:docname="apple.svg"
   inkscape:version="1.4.2 (f4327f4, 2025-05-13)"
   xmlns:inkscape="http://www.inkscape.org/namespaces/inkscape"
   xmlns:sodipodi="http://sodipodi.sourceforge.net/DTD/sodipodi-0.dtd"
   xmlns="http://www.w3.org/2000/svg"
   xmlns:svg="http://www.w3.org/2000/svg">
  <defs
     id="defs1" />
  <sodipodi:namedview
     id="namedview1"
     pagecolor="#ffffff"
     bordercolor="#000000"
     borderopacity="0.25"
     inkscape:showpageshadow="2"
     inkscape:pageopacity="0.0"
     inkscape:pagecheckerboard="0"
     inkscape:deskcolor="#d1d1d1"
     inkscape:zoom="32.208333"
     inkscape:cx="12"
     inkscape:cy="12"
     inkscape:window-width="1920"
     inkscape:window-height="991"
     inkscape:window-x="-9"
     inkscape:window-y="-9"
     inkscape:window-maximized="1"
     inkscape:current-layer="svg1" />
  <path
     id="Vector"
     d="m 13.69686,10.3055 c -0.0094,-1.5985 0.7149,-2.80316 2.1774,-3.69144 -0.818,-1.17187 -2.0555,-1.8164 -3.6868,-1.94062 -1.5445,-0.12188 -3.2343,0.9 -3.8531,0.9 -0.6539,0 -2.1492,-0.85781 -3.32577,-0.85781 C 2.58047,4.75313 0,6.65156 0,10.5141 c 0,1.1414 0.20859,2.3203 0.62578,3.5343 0.55781,1.5985 2.56875,5.5149 4.6664,5.4516 1.09688,-0.0258 1.87268,-0.7781 3.29998,-0.7781 1.3852,0 2.1024,0.7781 3.3258,0.7781 2.1164,-0.0305 3.9352,-3.5906 4.4648,-5.1937 -2.8382,-1.3383 -2.6859,-3.9188 -2.6859,-4.0008 z M 11.23356,3.15703 C 12.42186,1.74609 12.31406,0.46172 12.27886,0 c -1.05,0.06094 -2.264,0.71484 -2.9554,1.51875 -0.7617,0.8625 -1.2094,1.92891 -1.1133,3.13125 1.1344,0.08672 2.1703,-0.49687 3.0234,-1.49297 z"
     fill="#000000"
     fill-rule="nonzero" />
</svg>
