<?xml version="1.0" encoding="UTF-8" standalone="no"?>
<svg
   viewBox="0 0 16.5 16.5"
   width="16.5"
   height="16.5"
   fill="none"
   version="1.1"
   id="svg1"
   sodipodi:docname="calendar.svg"
   inkscape:version="1.4.2 (f4327f4, 2025-05-13)"
   xmlns:inkscape="http://www.inkscape.org/namespaces/inkscape"
   xmlns:sodipodi="http://sodipodi.sourceforge.net/DTD/sodipodi-0.dtd"
   xmlns="http://www.w3.org/2000/svg"
   xmlns:svg="http://www.w3.org/2000/svg">
  <defs
     id="defs1" />
  <sodipodi:namedview
     id="namedview1"
     pagecolor="#ffffff"
     bordercolor="#000000"
     borderopacity="0.25"
     inkscape:showpageshadow="2"
     inkscape:pageopacity="0.0"
     inkscape:pagecheckerboard="0"
     inkscape:deskcolor="#d1d1d1"
     inkscape:zoom="35.136364"
     inkscape:cx="11"
     inkscape:cy="11"
     inkscape:window-width="1920"
     inkscape:window-height="991"
     inkscape:window-x="-9"
     inkscape:window-y="-9"
     inkscape:window-maximized="1"
     inkscape:current-layer="svg1" />
  <path
     id="Vector"
     d="m 16.5,3.5356631 c 0,-0.62515 -0.2483,-1.2247 -0.6904,-1.66675 -0.442,-0.44205 -1.0416,-0.69039 -1.6667,-0.69039 H 13.5536 V 0.60581307 c 0,-0.31711 -0.2438,-0.58929 -0.561,-0.60512999598 -0.0796,-0.003840004 -0.1593,0.008539996 -0.234,0.036389996 -0.0748,0.02784 -0.1431,0.07057 -0.2008,0.1256 -0.0578,0.05503 -0.1038,0.12121 -0.1352,0.19453 -0.0314,0.07332 -0.0476,0.15226 -0.0476,0.23203 V 1.1785231 H 4.125 V 0.60581307 c 0,-0.31711 -0.24382,-0.58929 -0.56093,-0.60512999598 C 3.4844,-0.00315693 3.40477,0.00922307 3.33002,0.03707307 c -0.07475,0.02784 -0.14308,0.07057 -0.20082,0.1256 -0.05775,0.05503 -0.10373,0.12121 -0.13515,0.19453 -0.03141,0.07332 -0.04761,0.15226 -0.04762,0.23203 V 1.1785231 H 2.35714 c -0.62515,0 -1.2247,0.24834 -1.66675,0.69039 C 0.24834,2.3109631 0,2.9105131 0,3.5356631 v 0.44196 c 0,0.03908 0.01552,0.07655 0.04315,0.10418 0.02763,0.02762 0.0651,0.04315 0.10417,0.04315 H 16.3527 c 0.0391,0 0.0765,-0.01553 0.1042,-0.04315 0.0276,-0.02763 0.0431,-0.0651 0.0431,-0.10418 z M 0,14.142803 c 0,0.6252 0.24834,1.2247 0.69039,1.6668 0.44205,0.442 1.0416,0.6903 1.66675,0.6903 H 14.1429 c 0.6251,0 1.2247,-0.2483 1.6667,-0.6903 0.4421,-0.4421 0.6904,-1.0416 0.6904,-1.6668 V 5.4140131 c 0,-0.02931 -0.0116,-0.05741 -0.0324,-0.07813 -0.0207,-0.02072 -0.0488,-0.03236 -0.0781,-0.03236 H 0.11049 c -0.0293,0 -0.05741,0.01164 -0.07813,0.03236 C 0.01164,5.3566031 0,5.3847031 0,5.4140131 Z M 12.6696,6.4820931 c 0.1749,0 0.3458,0.05184 0.4911,0.14897 0.1454,0.09712 0.2587,0.23518 0.3256,0.39669 0.0669,0.16152 0.0844,0.33925 0.0503,0.51075 -0.0341,0.1714 -0.1183,0.3289 -0.2419,0.4525 -0.1236,0.1237 -0.2811,0.2079 -0.4526,0.242 -0.1715,0.0341 -0.3492,0.0166 -0.5107,-0.0503 -0.1615,-0.0669 -0.2996,-0.1802 -0.3967,-0.3256 -0.0971,-0.1454 -0.149,-0.3163 -0.149,-0.4911 0,-0.23441 0.0931,-0.45925 0.2589,-0.62502 0.1658,-0.16576 0.3906,-0.25889 0.625,-0.25889 z m 0,2.94641 c 0.1749,0 0.3458,0.0519 0.4911,0.149 0.1454,0.0971 0.2587,0.2352 0.3256,0.3967 0.0669,0.1614999 0.0844,0.3391999 0.0503,0.5106999 -0.0341,0.1715 -0.1183,0.329 -0.2419,0.4526 -0.1236,0.1236 -0.2811,0.2078 -0.4526,0.2419 -0.1715,0.0341 -0.3492,0.0166 -0.5107,-0.0503 -0.1615,-0.0669 -0.2996,-0.1802 -0.3967,-0.3256 -0.0971,-0.1453 -0.149,-0.3162 -0.149,-0.4911 0,-0.2344 0.0931,-0.4591999 0.2589,-0.6249999 0.1658,-0.1658 0.3906,-0.2589 0.625,-0.2589 z m -2.9464,-2.94641 c 0.1748,0 0.3457,0.05184 0.4911,0.14897 0.1454,0.09712 0.2587,0.23518 0.3256,0.39669 0.0669,0.16152 0.0844,0.33925 0.0503,0.51075 -0.0341,0.1714 -0.1183,0.3289 -0.242,0.4525 -0.1236,0.1237 -0.2811,0.2079 -0.4525,0.242 -0.1715,0.0341 -0.3492,0.0166 -0.5108,-0.0503 -0.1615,-0.0669 -0.2995,-0.1802 -0.3966,-0.3256 -0.0972,-0.1454 -0.149,-0.3163 -0.149,-0.4911 0,-0.23441 0.0931,-0.45925 0.2589,-0.62502 0.1658,-0.16576 0.3906,-0.25889 0.625,-0.25889 z m 0,2.94641 c 0.1748,0 0.3457,0.0519 0.4911,0.149 0.1454,0.0971 0.2587,0.2352 0.3256,0.3967 0.0669,0.1614999 0.0844,0.3391999 0.0503,0.5106999 -0.0341,0.1715 -0.1183,0.329 -0.242,0.4526 -0.1236,0.1236 -0.2811,0.2078 -0.4525,0.2419 -0.1715,0.0341 -0.3492,0.0166 -0.5108,-0.0503 -0.1615,-0.0669 -0.2995,-0.1802 -0.3966,-0.3256 -0.0972,-0.1453 -0.149,-0.3162 -0.149,-0.4911 0,-0.2344 0.0931,-0.4591999 0.2589,-0.6249999 0.1658,-0.1658 0.3906,-0.2589 0.625,-0.2589 z m 0,2.9463999 c 0.1748,0 0.3457,0.0519 0.4911,0.149 0.1454,0.0971 0.2587,0.2352 0.3256,0.3967 0.0669,0.1615 0.0844,0.3393 0.0503,0.5107 -0.0341,0.1715 -0.1183,0.329 -0.242,0.4526 -0.1236,0.1236 -0.2811,0.2078 -0.4525,0.2419 -0.1715,0.0341 -0.3492,0.0166 -0.5108,-0.0503 -0.1615,-0.0669 -0.2995,-0.1802 -0.3966,-0.3255 -0.0972,-0.1454 -0.149,-0.3163 -0.149,-0.4911 0,-0.2345 0.0931,-0.4593 0.2589,-0.6251 0.1658,-0.1657 0.3906,-0.2589 0.625,-0.2589 z M 6.77679,9.4285031 c 0.17482,0 0.34572,0.0519 0.49111,0.149 0.1453,0.0971 0.2586,0.2352 0.3255,0.3967 0.0669,0.1614999 0.0844,0.3391999 0.0503,0.5106999 -0.0341,0.1715 -0.1183,0.329 -0.2419,0.4526 -0.1236,0.1236 -0.2811,0.2078 -0.45257,0.2419 -0.17146,0.0341 -0.34919,0.0166 -0.51071,-0.0503 -0.16152,-0.0669 -0.29957,-0.1802 -0.39669,-0.3256 -0.09713,-0.1453 -0.14897,-0.3162 -0.14897,-0.4911 0,-0.2344 0.09312,-0.4591999 0.25889,-0.6249999 0.16577,-0.1658 0.3906,-0.2589 0.62504,-0.2589 z m 0,2.9463999 c 0.17482,0 0.34572,0.0519 0.49111,0.149 0.1453,0.0971 0.2586,0.2352 0.3255,0.3967 0.0669,0.1615 0.0844,0.3393 0.0503,0.5107 -0.0341,0.1715 -0.1183,0.329 -0.2419,0.4526 -0.1236,0.1236 -0.2811,0.2078 -0.45257,0.2419 -0.17146,0.0341 -0.34919,0.0166 -0.51071,-0.0503 -0.16152,-0.0669 -0.29957,-0.1802 -0.39669,-0.3255 -0.09713,-0.1454 -0.14897,-0.3163 -0.14897,-0.4911 0,-0.2345 0.09312,-0.4593 0.25889,-0.6251 0.16577,-0.1657 0.3906,-0.2589 0.62504,-0.2589 z M 3.83036,9.4285031 c 0.17482,0 0.34572,0.0519 0.49108,0.149 0.14536,0.0971 0.25866,0.2352 0.32556,0.3967 0.0669,0.1614999 0.08441,0.3391999 0.0503,0.5106999 -0.03411,0.1715 -0.11829,0.329 -0.24191,0.4526 -0.12362,0.1236 -0.28112,0.2078 -0.45259,0.2419 -0.17146,0.0341 -0.34919,0.0166 -0.51071,-0.0503 -0.16152,-0.0669 -0.29957,-0.1802 -0.39669,-0.3256 -0.09713,-0.1453 -0.14897,-0.3162 -0.14897,-0.4911 0,-0.2344 0.09313,-0.4591999 0.2589,-0.6249999 0.16576,-0.1658 0.39059,-0.2589 0.62503,-0.2589 z m 0,2.9463999 c 0.17482,0 0.34572,0.0519 0.49108,0.149 0.14536,0.0971 0.25866,0.2352 0.32556,0.3967 0.0669,0.1615 0.08441,0.3393 0.0503,0.5107 -0.03411,0.1715 -0.11829,0.329 -0.24191,0.4526 -0.12362,0.1236 -0.28112,0.2078 -0.45259,0.2419 -0.17146,0.0341 -0.34919,0.0166 -0.51071,-0.0503 -0.16152,-0.0669 -0.29957,-0.1802 -0.39669,-0.3255 -0.09713,-0.1454 -0.14897,-0.3163 -0.14897,-0.4911 0,-0.2345 0.09313,-0.4593 0.2589,-0.6251 0.16576,-0.1657 0.39059,-0.2589 0.62503,-0.2589 z"
     fill="#8dd3bb"
     fill-rule="nonzero" />
</svg>
