<?xml version="1.0" encoding="UTF-8" standalone="no"?>
<svg
   viewBox="0 0 20 20"
   width="20"
   height="20"
   fill="none"
   version="1.1"
   id="svg3"
   sodipodi:docname="google.svg"
   inkscape:version="1.4.2 (f4327f4, 2025-05-13)"
   xmlns:inkscape="http://www.inkscape.org/namespaces/inkscape"
   xmlns:sodipodi="http://sodipodi.sourceforge.net/DTD/sodipodi-0.dtd"
   xmlns="http://www.w3.org/2000/svg"
   xmlns:svg="http://www.w3.org/2000/svg">
  <defs
     id="defs3" />
  <sodipodi:namedview
     id="namedview3"
     pagecolor="#ffffff"
     bordercolor="#000000"
     borderopacity="0.25"
     inkscape:showpageshadow="2"
     inkscape:pageopacity="0.0"
     inkscape:pagecheckerboard="0"
     inkscape:deskcolor="#d1d1d1"
     inkscape:zoom="32.208333"
     inkscape:cx="12"
     inkscape:cy="12"
     inkscape:window-width="1920"
     inkscape:window-height="991"
     inkscape:window-x="-9"
     inkscape:window-y="-9"
     inkscape:window-maximized="1"
     inkscape:current-layer="svg3" />
  <path
     id="Vector"
     d="M 19.8055,8.0415 H 19 V 8 h -9 v 4 h 5.6515 C 14.827,14.3285 12.6115,16 10,16 6.6865,16 4,13.3135 4,10 4,6.6865 6.6865,4 10,4 c 1.5295,0 2.921,0.577 3.9805,1.5195 L 16.809,2.691 C 15.023,1.0265 12.634,0 10,0 4.4775,0 0,4.4775 0,10 0,15.5225 4.4775,20 10,20 15.5225,20 20,15.5225 20,10 20,9.3295 19.931,8.675 19.8055,8.0415 Z"
     fill="#ffc107"
     fill-rule="nonzero" />
  <path
     id="path1"
     d="M 1.15234,5.3455 4.43784,7.755 C 5.32684,5.554 7.47984,4 9.9993,4 c 1.5295,0 2.921,0.577 3.9805,1.5195 L 16.8083,2.691 C 15.0223,1.0265 12.6333,0 9.9993,0 6.15834,0 2.82734,2.1685 1.15234,5.3455 Z"
     fill="#ff3d00"
     fill-rule="nonzero" />
  <path
     id="path2"
     d="m 10.0002,20.0001 c 2.583,0 4.93,-0.9885 6.7045,-2.596 l -3.095,-2.619 c -1.0378,0.7892 -2.3058,1.216 -3.6095,1.215 -2.60104,0 -4.80954,-1.6585 -5.64154,-3.973 l -3.261,2.5125 c 1.655,3.2385 5.016,5.4605 8.90254,5.4605 z"
     fill="#4caf50"
     fill-rule="nonzero" />
  <path
     id="path3"
     d="M 19.8055,8.0415 H 19 V 8 h -9 v 4 h 5.6515 c -0.3944,1.1082 -1.1048,2.0766 -2.0435,2.7855 l 0.0015,-0.001 3.095,2.619 C 16.4855,17.6025 20,15 20,10 20,9.3295 19.931,8.675 19.8055,8.0415 Z"
     fill="#1976d2"
     fill-rule="nonzero" />
</svg>
