<?xml version="1.0" encoding="UTF-8" standalone="no"?>
<svg
   viewBox="0 0 14.625 12.375"
   width="14.625"
   height="12.375"
   fill="none"
   version="1.1"
   id="svg1"
   sodipodi:docname="logout.svg"
   inkscape:version="1.4.2 (f4327f4, 2025-05-13)"
   xmlns:inkscape="http://www.inkscape.org/namespaces/inkscape"
   xmlns:sodipodi="http://sodipodi.sourceforge.net/DTD/sodipodi-0.dtd"
   xmlns="http://www.w3.org/2000/svg"
   xmlns:svg="http://www.w3.org/2000/svg">
  <defs
     id="defs1" />
  <sodipodi:namedview
     id="namedview1"
     pagecolor="#ffffff"
     bordercolor="#000000"
     borderopacity="0.25"
     inkscape:showpageshadow="2"
     inkscape:pageopacity="0.0"
     inkscape:pagecheckerboard="0"
     inkscape:deskcolor="#d1d1d1"
     inkscape:zoom="42.944444"
     inkscape:cx="9"
     inkscape:cy="9"
     inkscape:window-width="1920"
     inkscape:window-height="991"
     inkscape:window-x="-9"
     inkscape:window-y="-9"
     inkscape:window-maximized="1"
     inkscape:current-layer="svg1" />
  <path
     id="Vector"
     d="M 3.9375,6.1875 C 3.9375,6.03832 3.99676,5.89524 4.10225,5.78975 4.20774,5.68426 4.35082,5.625 4.5,5.625 H 9.5625 V 1.96875 C 9.5625,0.84375 8.3746,0 7.3125,0 H 1.96875 C 1.44678,5.6e-4 0.94634,0.20816 0.57725,0.57725 0.20816,0.94634 5.6e-4,1.44678 0,1.96875 v 8.43755 c 5.6e-4,0.5219 0.20816,1.0224 0.57725,1.3915 0.36909,0.369 0.86953,0.5766 1.3915,0.5772 h 5.625 c 0.52197,-6e-4 1.02245,-0.2082 1.39155,-0.5772 0.369,-0.3691 0.5766,-0.8696 0.5772,-1.3915 V 6.75 H 4.5 C 4.35082,6.75 4.20774,6.69074 4.10225,6.58525 3.99676,6.47976 3.9375,6.33668 3.9375,6.1875 Z M 14.4601,5.78988 11.6476,2.97738 C 11.5413,2.87635 11.3997,2.82085 11.253,2.82273 11.1063,2.82461 10.9662,2.88371 10.8624,2.98744 10.7587,3.09116 10.6996,3.2313 10.6977,3.37798 10.6959,3.52466 10.7513,3.66627 10.8524,3.77262 L 12.7044,5.625 H 9.5625 V 6.75 h 3.1419 l -1.852,1.8524 c -0.0544,0.0517 -0.098,0.1138 -0.128,0.1826 -0.0301,0.0688 -0.0461,0.1429 -0.047,0.218 -0.001,0.0751 0.0131,0.1496 0.0414,0.2191 0.0283,0.0696 0.0702,0.1327 0.1233,0.1858 0.0531,0.0531 0.1162,0.095 0.1858,0.1233 0.0695,0.0283 0.144,0.0424 0.2191,0.0414 0.0751,-9e-4 0.1492,-0.0169 0.218,-0.047 0.0688,-0.03 0.1309,-0.0736 0.1826,-0.128 l 2.8125,-2.81248 c 0.1054,-0.10548 0.1646,-0.2485 0.1646,-0.39762 0,-0.14912 -0.0592,-0.29214 -0.1646,-0.39762 z"
     fill="#000000"
     fill-rule="nonzero" />
</svg>
