<svg viewBox="0 0 16.5 16.5" xmlns="http://www.w3.org/2000/svg" xmlns:xlink="http://www.w3.org/1999/xlink" width="16.500000" height="16.500000" fill="none" customFrame="#000000">
	<path id="Vector" d="M8.25 0C3.69386 0 0 3.69386 0 8.25C0 12.8061 3.69386 16.5 8.25 16.5C12.8061 16.5 16.5 12.8061 16.5 8.25C16.5 3.69386 12.8061 0 8.25 0ZM12.0577 9.51923L8.25 9.51923C8.08169 9.51923 7.92027 9.45237 7.80126 9.33336C7.68225 9.21434 7.61539 9.05293 7.61539 8.88462L7.61539 3.17308C7.61539 3.00477 7.68225 2.84335 7.80126 2.72434C7.92027 2.60532 8.08169 2.53846 8.25 2.53846C8.41831 2.53846 8.57973 2.60532 8.69874 2.72434C8.81776 2.84335 8.88462 3.00477 8.88462 3.17308L8.88462 8.25L12.0577 8.25C12.226 8.25 12.3874 8.31686 12.5064 8.43587C12.6254 8.55489 12.6923 8.7163 12.6923 8.88462C12.6923 9.05293 12.6254 9.21434 12.5064 9.33336C12.3874 9.45237 12.226 9.51923 12.0577 9.51923Z" fill="rgb(141,211,187)" fill-rule="nonzero" />
</svg>
