<svg width="399.569824" height="258.000000" viewBox="0 0 399.57 258" fill="none" xmlns="http://www.w3.org/2000/svg" xmlns:xlink="http://www.w3.org/1999/xlink">
	<desc>
			Created with Pixso.
	</desc>
	<defs/>
	<path id="Vector" d="M156.24 258L238.75 258C239.42 258 240 257.53 240 256.99L240 192C240 191.46 239.42 191 238.75 191L156.24 191C155.87 191 155.59 191.1 155.38 191.27L155.37 191.3C155.37 191.3 155.35 191.3 155.33 191.33C155.08 191.55 154.97 191.78 155 192.01L155 256.99C155 257.53 155.56 258 156.24 258Z" fill="#DFAD92" fill-opacity="1.000000" fill-rule="nonzero"/>
	<path id="Vector" d="M193.68 258L239.3 258C239.69 258 240 257.53 240 256.99L240 192C240 191.46 239.68 191 239.3 191L193.68 191C193.47 191 193.32 191.1 193.22 191.27L193.21 191.3C193.21 191.3 193.19 191.3 193.18 191.33C193.04 191.56 192.98 191.78 193 192.01L193 256.99C193 257.53 193.3 258 193.68 258Z" fill="#A4806D" fill-opacity="1.000000" fill-rule="nonzero"/>
	<path id="Vector" d="M156.25 220.65L238.43 220.65C239.12 220.65 239.69 220.26 239.69 219.81L239.69 164.86C239.69 164.4 239.12 164 238.43 164L156.23 164C155.94 163.99 155.65 164.07 155.4 164.23L155.36 164.25L155.31 164.29C155.22 164.35 155.14 164.43 155.08 164.53C155.03 164.63 155 164.74 155 164.85L155 219.8C155 220.27 155.54 220.65 156.23 220.65L156.25 220.65Z" fill="#A4806D" fill-opacity="1.000000" fill-rule="nonzero"/>
	<path id="Vector" d="M133.68 0L63.01 0C28.22 0 0 38.57 0 86.14L0 191.15L70.66 191.15L70.66 86.14C70.66 38.57 98.87 0 133.68 0Z" fill="#7C9C9F" fill-opacity="1.000000" fill-rule="nonzero"/>
	<path id="Vector" d="M298.26 0L133.68 0C98.87 0 70.68 38.57 70.68 86.14L70.68 191.15L361.29 191.15L361.29 86.14C361.29 38.57 333.08 0 298.29 0L298.26 0Z" fill="#112211" fill-opacity="1.000000" fill-rule="nonzero"/>
	<path id="Vector" d="M145.31 0L63.03 0C28.23 0 0.03 38.57 0.03 86.14L0.03 191.15L208.35 191.15L208.35 86.14C208.35 38.57 180.14 0 145.35 0L145.31 0Z" fill="#65B599" fill-opacity="1.000000" fill-rule="nonzero"/>
	<path id="Vector" d="M399.39 107.98C399.41 108.02 399.56 108.03 399.56 108.07L399.56 183.46C399.57 183.73 399.51 184 399.39 184.23C399.39 184.23 399.36 184.23 399.36 184.25L399.34 184.25C399.26 184.4 399.11 184.54 398.93 184.54L358.11 184.54C357.75 184.54 357.47 184.03 357.47 183.4L357.47 142.35L233.5 142.35C232.14 142.35 230.96 142.11 230.96 141.84L230.96 108C230.96 107.71 232.14 107.48 233.5 107.48L398.93 107.48C399.12 107.48 399.29 107.66 399.39 107.92L399.39 107.98Z" fill="#FF8682" fill-opacity="1.000000" fill-rule="nonzero"/>
	<path id="Vector" d="M140.42 12L66.56 12C35.34 12 10 48.11 10 92.66L10 191L197 191L197 92.66C197 48.11 171.68 12 140.42 12Z" fill="#546869" fill-opacity="1.000000" fill-rule="nonzero"/>
</svg>
