<?xml version="1.0" encoding="UTF-8" standalone="no"?>
<svg
   viewBox="0 0 400 258"
   width="400"
   height="258"
   fill="none"
   version="1.1"
   id="svg7"
   sodipodi:docname="post.svg"
   inkscape:version="1.4.2 (f4327f4, 2025-05-13)"
   xmlns:inkscape="http://www.inkscape.org/namespaces/inkscape"
   xmlns:sodipodi="http://sodipodi.sourceforge.net/DTD/sodipodi-0.dtd"
   xmlns="http://www.w3.org/2000/svg"
   xmlns:svg="http://www.w3.org/2000/svg">
  <defs
     id="defs7" />
  <sodipodi:namedview
     id="namedview7"
     pagecolor="#ffffff"
     bordercolor="#000000"
     borderopacity="0.25"
     inkscape:showpageshadow="2"
     inkscape:pageopacity="0.0"
     inkscape:pagecheckerboard="0"
     inkscape:deskcolor="#d1d1d1"
     inkscape:zoom="1.3032787"
     inkscape:cx="-29.54088"
     inkscape:cy="212.92453"
     inkscape:window-width="1920"
     inkscape:window-height="991"
     inkscape:window-x="-9"
     inkscape:window-y="-9"
     inkscape:window-maximized="1"
     inkscape:current-layer="svg7" />
  <path
     id="Vector"
     d="m 157.41927,257.98036 h 82.3005 c 0.67573,0 1.24534,-1.30693 1.24534,-2.82577 V 73.182442 c 0,-1.52752 -0.56961,-2.82505 -1.24534,-2.82505 h -82.3005 c -0.3754,0 -0.6507,0.29364 -0.85692,0.75942 l -0.013,0.0947 c 0,0 -0.025,0.009 -0.037,0.0955 -0.25027,0.61115 -0.36239,1.24762 -0.33236,1.88482 V 255.164 c 0,1.50944 0.5576,2.81637 1.23933,2.81637 z"
     fill="#dfad92"
     fill-rule="nonzero"
     style="display:inline;stroke-width:0.850905" />
  <g
     id="Group"
     style="display:inline"
     transform="matrix(1.0010765,0,0,0.72333542,0,-14.526021)">
    <path
       id="path1"
       d="m 194.438,376.763 h 45.556 c 0.387,0 0.694,-1.807 0.694,-3.907 v -251.6 c 0,-2.112 -0.313,-3.906 -0.694,-3.906 h -45.55 c -0.206,0 -0.363,0.406 -0.463,1.05 l -0.012,0.131 c 0,0 -0.013,0.013 -0.025,0.132 -0.141,0.861 -0.202,1.733 -0.181,2.606 v 251.6 c 0,2.087 0.3,3.894 0.675,3.894 z"
       fill="#a4806d"
       fill-rule="nonzero" />
    <path
       id="path2"
       d="m 157.25,268.231 h 82.188 c 0.687,0 1.256,-0.387 1.256,-0.843 v -54.95 c 0,-0.463 -0.569,-0.863 -1.256,-0.863 h -82.2 c -0.295,-0.008 -0.584,0.072 -0.832,0.231 l -0.037,0.025 -0.05,0.038 c -0.096,0.059 -0.176,0.142 -0.231,0.24 -0.056,0.099 -0.086,0.209 -0.088,0.322 v 54.95 c 0,0.469 0.544,0.85 1.238,0.85"
       fill="#a4806d"
       fill-rule="nonzero" />
  </g>
  <g
     id="g4"
     style="display:inline"
     transform="matrix(1.0010765,0,0,1.000105,0,-47.004935)">
    <path
       id="path3"
       d="M 133.688,47 H 63.0188 C 28.225,47 0,85.575 0,133.144 V 238.156 H 70.6688 V 133.144 C 70.6688,85.575 98.875,47 133.688,47 Z"
       fill="#7c9c9f"
       fill-rule="nonzero" />
    <path
       id="path4"
       d="M 298.269,47 H 133.688 C 98.875,47 70.6875,85.575 70.6875,133.144 V 238.156 H 361.294 V 133.144 C 361.294,85.575 333.081,47 298.294,47"
       fill="#112211"
       fill-rule="nonzero" />
  </g>
  <path
     id="path5"
     d="M 145.46942,1.76e-6 H 63.09915 C 28.26169,1.76e-6 0.03128364,38.579054 0.03128364,86.153052 V 191.17608 H 208.58029 V 86.153052 C 208.58029,38.579054 180.33792,1.76e-6 145.51247,1.76e-6"
     fill="#65b499"
     fill-rule="nonzero"
     style="stroke-width:1.00059" />
  <path
     id="path6"
     d="m 399.82393,107.99834 c 0.025,0.038 0.17519,0.05 0.17519,0.088 v 75.40192 c 0.009,0.26703 -0.0511,0.53206 -0.17519,0.76808 0,0 -0.025,0 -0.025,0.013 h -0.025 c -0.0821,0.15602 -0.23225,0.29403 -0.40644,0.29403 H 358.5045 c -0.36339,0 -0.64469,-0.51305 -0.64469,-1.14412 v -41.0483 H 233.75135 c -1.35746,0 -2.53372,-0.24402 -2.53372,-0.51205 v -33.84156 c 0,-0.29403 1.17626,-0.52505 2.53372,-0.52505 h 165.61609 c 0.1872,0 0.35638,0.18802 0.45649,0.44405"
     fill="#ff8682"
     fill-rule="nonzero"
     style="stroke-width:1.00059" />
  <path
     id="path7"
     d="M 140.57716,12.001262 H 66.639157 c -31.260214,0 -56.628392,36.120194 -56.628392,80.67647 V 191.02006 H 197.21206 V 92.677732 c 0,-44.556276 -25.34425,-80.67647 -56.6349,-80.67647 z"
     fill="#546869"
     fill-rule="nonzero"
     style="stroke-width:1.00059" />
</svg>
