<svg width="16.382812" height="19.500732" viewBox="0 0 16.3828 19.5007" fill="none" xmlns="http://www.w3.org/2000/svg" xmlns:xlink="http://www.w3.org/1999/xlink">
	<desc>
			Created with Pixso.
	</desc>
	<defs/>
	<path id="Vector" d="M13.69 10.3C13.68 8.7 14.41 7.5 15.87 6.61C15.05 5.44 13.81 4.79 12.18 4.67C10.64 4.55 8.95 5.57 8.33 5.57C7.68 5.57 6.18 4.71 5 4.71C2.58 4.75 0 6.65 0 10.51C0 11.65 0.2 12.83 0.62 14.04C1.18 15.64 3.19 19.56 5.29 19.5C6.38 19.47 7.16 18.72 8.59 18.72C9.97 18.72 10.69 19.5 11.91 19.5C14.03 19.46 15.85 15.9 16.38 14.3C13.54 12.96 13.69 10.38 13.69 10.3ZM11.23 3.15C12.42 1.74 12.31 0.46 12.27 0C11.22 0.06 10.01 0.71 9.32 1.51C8.56 2.38 8.11 3.44 8.2 4.65C9.34 4.73 10.38 4.15 11.23 3.15Z" fill="#000000" fill-opacity="1.000000" fill-rule="nonzero"/>
</svg>
