<?xml version="1.0" encoding="UTF-8" standalone="no"?>
<svg
   width="15"
   height="8.25"
   viewBox="0 0 15 8.25"
   fill="none"
   version="1.1"
   id="svg1"
   sodipodi:docname="arrow_bottom.svg"
   inkscape:version="1.3.2 (091e20e, 2023-11-25, custom)"
   xmlns:inkscape="http://www.inkscape.org/namespaces/inkscape"
   xmlns:sodipodi="http://sodipodi.sourceforge.net/DTD/sodipodi-0.dtd"
   xmlns="http://www.w3.org/2000/svg"
   xmlns:svg="http://www.w3.org/2000/svg">
  <sodipodi:namedview
     id="namedview1"
     pagecolor="#ffffff"
     bordercolor="#000000"
     borderopacity="0.25"
     inkscape:showpageshadow="2"
     inkscape:pageopacity="0.0"
     inkscape:pagecheckerboard="0"
     inkscape:deskcolor="#d1d1d1"
     inkscape:zoom="22.892582"
     inkscape:cx="11.903419"
     inkscape:cy="11.33555"
     inkscape:window-width="1920"
     inkscape:window-height="991"
     inkscape:window-x="-9"
     inkscape:window-y="-9"
     inkscape:window-maximized="1"
     inkscape:current-layer="svg1" />
  <desc
     id="desc1">
			Created with Pixso.
	</desc>
  <defs
     id="defs1">
    <clipPath
       id="clip339_1364">
      <rect
         id="chevron_down"
         width="24"
         height="24"
         fill="#ffffff"
         fill-opacity="0"
         x="0"
         y="0" />
    </clipPath>
  </defs>
  <rect
     id="rect1"
     width="24"
     height="24"
     fill="#ffffff"
     fill-opacity="0"
     x="0"
     y="0" />
  <g
     clip-path="url(#clip339_1364)"
     id="g1"
     transform="translate(-4.5,-8.25)">
    <path
       style="color:#000000;fill:#000000;stroke-linecap:round;stroke-linejoin:round;-inkscape-stroke:none"
       d="m 5.25,8.25 a 0.75,0.75 0 0 0 -0.53125,0.21875 0.75,0.75 0 0 0 0,1.0625 l 6.75,6.75 a 0.750075,0.750075 0 0 0 1.0625,0 l 6.75,-6.75 a 0.75,0.75 0 0 0 0,-1.0625 0.75,0.75 0 0 0 -1.0625,0 L 12,14.6875 5.78125,8.46875 A 0.75,0.75 0 0 0 5.25,8.25 Z"
       id="Vector" />
  </g>
</svg>
