<svg width="21.000000" height="19.500000" viewBox="0 0 21 19.5" fill="none" xmlns="http://www.w3.org/2000/svg" xmlns:xlink="http://www.w3.org/1999/xlink">
	<desc>
			Created with Pixso.
	</desc>
	<defs/>
	<path id="Vector" d="M1.5 0L19.5 0C20.32 0 21 0.67 21 1.5L21 2.25C21 3.07 20.32 3.75 19.5 3.75L1.5 3.75C0.67 3.75 0 3.07 0 2.25L0 1.5C0 0.67 0.67 0 1.5 0Z" fill="#000000" fill-opacity="1.000000" fill-rule="evenodd"/>
	<path id="Vector" d="M1.97 5.25C1.92 5.24 1.86 5.26 1.82 5.28C1.77 5.3 1.73 5.33 1.69 5.37C1.66 5.41 1.63 5.45 1.61 5.5C1.59 5.55 1.59 5.61 1.59 5.66L2.83 17.5C2.83 17.5 2.83 17.5 2.83 17.51C2.89 18.06 3.16 18.56 3.57 18.93C3.98 19.29 4.51 19.5 5.06 19.5L15.9 19.5C16.45 19.5 16.98 19.29 17.39 18.93C17.8 18.56 18.07 18.06 18.13 17.51L18.13 17.5L19.36 5.66C19.37 5.61 19.36 5.55 19.34 5.5C19.33 5.45 19.3 5.41 19.27 5.37C19.23 5.33 19.19 5.3 19.14 5.28C19.09 5.26 19.04 5.24 18.99 5.25L1.97 5.25ZM13.64 13.71C13.71 13.78 13.76 13.87 13.8 13.96C13.84 14.05 13.86 14.15 13.86 14.25C13.86 14.35 13.84 14.45 13.81 14.54C13.77 14.63 13.71 14.71 13.64 14.78C13.57 14.85 13.49 14.91 13.4 14.95C13.31 14.98 13.21 15 13.11 15C13.01 15 12.91 14.98 12.82 14.94C12.73 14.9 12.64 14.85 12.58 14.78L10.48 12.68L8.39 14.78C8.24 14.91 8.05 14.99 7.86 14.99C7.66 14.99 7.47 14.91 7.33 14.77C7.19 14.63 7.11 14.44 7.11 14.24C7.11 14.05 7.19 13.86 7.33 13.71L9.42 11.62L7.33 9.53C7.19 9.38 7.11 9.19 7.11 9C7.11 8.8 7.19 8.61 7.33 8.47C7.47 8.33 7.66 8.25 7.86 8.25C8.05 8.25 8.24 8.33 8.39 8.46L10.48 10.56L12.58 8.46C12.72 8.33 12.91 8.25 13.1 8.25C13.3 8.25 13.49 8.33 13.63 8.47C13.77 8.61 13.84 8.8 13.85 9C13.85 9.19 13.77 9.38 13.64 9.53L11.54 11.62L13.64 13.71Z" fill="#000000" fill-opacity="1.000000" fill-rule="nonzero"/>
</svg>
