<svg width="13.000000" height="13.000000" viewBox="0 0 13 13" fill="none" xmlns="http://www.w3.org/2000/svg" xmlns:xlink="http://www.w3.org/1999/xlink">
	<desc>
			Created with Pixso.
	</desc>
	<defs/>
	<path id="Vector" d="M12.87 0.16C12.82 0.11 12.77 0.07 12.71 0.04C12.64 0.01 12.58 0 12.51 0C12.44 -0.01 12.37 0.01 12.31 0.03C12.25 0.06 12.19 0.09 12.14 0.14L11.76 0.53C11.71 0.57 11.68 0.64 11.68 0.7C11.68 0.77 11.71 0.83 11.76 0.88L12.11 1.23C12.13 1.26 12.16 1.28 12.19 1.29C12.22 1.3 12.25 1.31 12.29 1.31C12.32 1.31 12.35 1.3 12.38 1.29C12.41 1.28 12.44 1.26 12.46 1.23L12.84 0.86C13.03 0.67 13.05 0.36 12.87 0.16ZM10.97 1.31L5.33 6.94C5.3 6.97 5.27 7.02 5.26 7.06L5 7.84C4.99 7.86 4.99 7.88 5 7.9C5 7.92 5.01 7.94 5.03 7.96C5.05 7.98 5.07 7.99 5.09 7.99C5.11 8 5.13 8 5.15 7.99L5.93 7.73C5.98 7.72 6.02 7.69 6.05 7.66L11.68 2.02C11.74 1.96 11.76 1.89 11.76 1.82C11.76 1.74 11.74 1.67 11.68 1.62L11.37 1.31C11.32 1.25 11.25 1.23 11.17 1.23C11.1 1.23 11.03 1.25 10.97 1.31Z" fill="#000000" fill-opacity="1.000000" fill-rule="nonzero"/>
	<path id="Vector" d="M10.57 4.55L6.76 8.36C6.61 8.51 6.43 8.62 6.23 8.68L5.42 8.95C5.23 9.01 5.03 9.01 4.83 8.96C4.64 8.91 4.47 8.81 4.32 8.67C4.18 8.53 4.08 8.35 4.03 8.16C3.98 7.96 3.98 7.76 4.04 7.57L4.31 6.76C4.37 6.56 4.48 6.38 4.63 6.23L8.44 2.42C8.48 2.39 8.5 2.34 8.51 2.29C8.52 2.25 8.52 2.2 8.5 2.15C8.48 2.1 8.45 2.06 8.41 2.04C8.36 2.01 8.32 2 8.27 2L1.75 2C1.28 2 0.83 2.18 0.51 2.51C0.18 2.84 0 3.28 0 3.75L0 11.25C0 11.71 0.18 12.15 0.51 12.48C0.83 12.81 1.28 13 1.75 13L9.25 13C9.71 13 10.16 12.81 10.48 12.48C10.81 12.15 11 11.71 11 11.25L11 4.72C11 4.67 10.98 4.63 10.95 4.58C10.92 4.54 10.89 4.51 10.84 4.49C10.8 4.47 10.75 4.47 10.7 4.48C10.65 4.49 10.6 4.51 10.57 4.55Z" fill="#000000" fill-opacity="1.000000" fill-rule="nonzero"/>
</svg>
