<svg width="11.000000" height="11.000000" viewBox="0 0 11 11" fill="none" xmlns="http://www.w3.org/2000/svg" xmlns:xlink="http://www.w3.org/1999/xlink">
	<desc>
			Created with Pixso.
	</desc>
	<defs/>
	<path id="Vector" d="M10.57 2.55L6.76 6.36C6.61 6.51 6.43 6.62 6.23 6.68L5.42 6.95C5.23 7.01 5.03 7.01 4.83 6.96C4.64 6.91 4.47 6.81 4.32 6.67C4.18 6.53 4.08 6.35 4.03 6.16C3.98 5.96 3.98 5.76 4.04 5.57L4.31 4.76C4.37 4.56 4.48 4.38 4.63 4.23L8.44 0.42C8.48 0.39 8.5 0.34 8.51 0.29C8.52 0.25 8.52 0.2 8.5 0.15C8.48 0.1 8.45 0.06 8.41 0.04C8.36 0.01 8.32 0 8.27 0L1.75 0C1.28 0 0.83 0.18 0.51 0.51C0.18 0.84 0 1.28 0 1.75L0 9.25C0 9.71 0.18 10.15 0.51 10.48C0.83 10.81 1.28 11 1.75 11L9.25 11C9.71 11 10.16 10.81 10.48 10.48C10.81 10.15 11 9.71 11 9.25L11 2.72C11 2.67 10.98 2.63 10.95 2.58C10.92 2.54 10.89 2.51 10.84 2.49C10.8 2.47 10.75 2.47 10.7 2.48C10.65 2.49 10.6 2.51 10.57 2.55Z" fill="#000000" fill-opacity="1.000000" fill-rule="nonzero"/>
</svg>
