<svg width="13.000000" height="11.500000" viewBox="0 0 13 11.5" fill="none" xmlns="http://www.w3.org/2000/svg" xmlns:xlink="http://www.w3.org/1999/xlink">
	<desc>
			Created with Pixso.
	</desc>
	<defs/>
	<path id="Vector" d="M12 0L1.5 0C1.36 0 1.24 0.05 1.14 0.14C1.05 0.24 1 0.36 1 0.5L1 6.5C1 7.29 1.31 8.05 1.87 8.62C2.44 9.18 3.2 9.49 4 9.5L7.5 9.5C8.29 9.49 9.05 9.18 9.62 8.62C10.18 8.05 10.5 7.29 10.5 6.5L10.5 4L11.06 4C11.57 3.99 12.06 3.79 12.43 3.43C12.79 3.06 13 2.57 13 2.06L13 1C13 0.73 12.89 0.48 12.7 0.29C12.51 0.1 12.26 0 12 0ZM12 2.06C12 2.31 11.9 2.54 11.72 2.72C11.54 2.9 11.31 3 11.06 3L10.5 3L10.5 1L12 1L12 2.06ZM11 10.5L0.5 10.5C0.36 10.5 0.24 10.55 0.14 10.64C0.05 10.74 0 10.86 0 11C0 11.13 0.05 11.25 0.14 11.35C0.24 11.44 0.36 11.5 0.5 11.5L11 11.5C11.13 11.5 11.25 11.44 11.35 11.35C11.44 11.25 11.5 11.13 11.5 11C11.5 10.86 11.44 10.74 11.35 10.64C11.25 10.55 11.13 10.5 11 10.5Z" fill="#112211" fill-opacity="1.000000" fill-rule="nonzero"/>
</svg>
