<svg width="16.500000" height="16.500000" viewBox="0 0 16.5 16.5" fill="none" xmlns="http://www.w3.org/2000/svg" xmlns:xlink="http://www.w3.org/1999/xlink">
	<desc>
			Created with Pixso.
	</desc>
	<defs/>
	<path id="Vector" d="M16.5 3.53C16.5 2.91 16.25 2.31 15.8 1.86C15.36 1.42 14.76 1.17 14.14 1.17L13.55 1.17L13.55 0.6C13.55 0.28 13.3 0.01 12.99 0C12.91 -0.01 12.83 0 12.75 0.03C12.68 0.06 12.61 0.1 12.55 0.16C12.5 0.21 12.45 0.28 12.42 0.35C12.39 0.43 12.37 0.5 12.37 0.58L12.37 1.17L4.12 1.17L4.12 0.6C4.12 0.28 3.88 0.01 3.56 0C3.48 -0.01 3.4 0 3.33 0.03C3.25 0.06 3.18 0.1 3.12 0.16C3.07 0.21 3.02 0.28 2.99 0.35C2.96 0.43 2.94 0.5 2.94 0.58L2.94 1.17L2.35 1.17C1.73 1.17 1.13 1.42 0.69 1.86C0.24 2.31 0 2.91 0 3.53L0 3.97C0 4.01 0.01 4.05 0.04 4.08C0.07 4.1 0.1 4.12 0.14 4.12L16.35 4.12C16.39 4.12 16.42 4.1 16.45 4.08C16.48 4.05 16.5 4.01 16.5 3.97L16.5 3.53ZM0 14.14C0 14.76 0.24 15.36 0.69 15.8C1.13 16.25 1.73 16.5 2.35 16.5L14.14 16.5C14.76 16.5 15.36 16.25 15.8 15.8C16.25 15.36 16.5 14.76 16.5 14.14L16.5 5.41C16.5 5.38 16.48 5.35 16.46 5.33C16.44 5.31 16.41 5.3 16.38 5.3L0.11 5.3C0.08 5.3 0.05 5.31 0.03 5.33C0.01 5.35 0 5.38 0 5.41L0 14.14ZM12.66 6.48C12.84 6.48 13.01 6.53 13.16 6.63C13.3 6.72 13.41 6.86 13.48 7.02C13.55 7.18 13.57 7.36 13.53 7.53C13.5 7.7 13.41 7.86 13.29 7.99C13.17 8.11 13.01 8.19 12.84 8.23C12.67 8.26 12.49 8.24 12.33 8.18C12.16 8.11 12.03 8 11.93 7.85C11.83 7.71 11.78 7.54 11.78 7.36C11.78 7.13 11.87 6.9 12.04 6.74C12.21 6.57 12.43 6.48 12.66 6.48ZM12.66 9.42C12.84 9.42 13.01 9.48 13.16 9.57C13.3 9.67 13.41 9.81 13.48 9.97C13.55 10.13 13.57 10.31 13.53 10.48C13.5 10.65 13.41 10.81 13.29 10.93C13.17 11.06 13.01 11.14 12.84 11.17C12.67 11.21 12.49 11.19 12.33 11.12C12.16 11.06 12.03 10.94 11.93 10.8C11.83 10.65 11.78 10.48 11.78 10.31C11.78 10.07 11.87 9.85 12.04 9.68C12.21 9.52 12.43 9.42 12.66 9.42ZM9.72 6.48C9.89 6.48 10.06 6.53 10.21 6.63C10.35 6.72 10.47 6.86 10.54 7.02C10.6 7.18 10.62 7.36 10.58 7.53C10.55 7.7 10.47 7.86 10.34 7.99C10.22 8.11 10.06 8.19 9.89 8.23C9.72 8.26 9.54 8.24 9.38 8.18C9.22 8.11 9.08 8 8.98 7.85C8.89 7.71 8.83 7.54 8.83 7.36C8.83 7.13 8.93 6.9 9.09 6.74C9.26 6.57 9.48 6.48 9.72 6.48ZM9.72 9.42C9.89 9.42 10.06 9.48 10.21 9.57C10.35 9.67 10.47 9.81 10.54 9.97C10.6 10.13 10.62 10.31 10.58 10.48C10.55 10.65 10.47 10.81 10.34 10.93C10.22 11.06 10.06 11.14 9.89 11.17C9.72 11.21 9.54 11.19 9.38 11.12C9.22 11.06 9.08 10.94 8.98 10.8C8.89 10.65 8.83 10.48 8.83 10.31C8.83 10.07 8.93 9.85 9.09 9.68C9.26 9.52 9.48 9.42 9.72 9.42ZM9.72 12.37C9.89 12.37 10.06 12.42 10.21 12.52C10.35 12.62 10.47 12.75 10.54 12.92C10.6 13.08 10.62 13.25 10.58 13.43C10.55 13.6 10.47 13.76 10.34 13.88C10.22 14 10.06 14.09 9.89 14.12C9.72 14.16 9.54 14.14 9.38 14.07C9.22 14 9.08 13.89 8.98 13.75C8.89 13.6 8.83 13.43 8.83 13.25C8.83 13.02 8.93 12.79 9.09 12.63C9.26 12.46 9.48 12.37 9.72 12.37ZM6.77 9.42C6.95 9.42 7.12 9.48 7.26 9.57C7.41 9.67 7.52 9.81 7.59 9.97C7.66 10.13 7.67 10.31 7.64 10.48C7.6 10.65 7.52 10.81 7.4 10.93C7.27 11.06 7.12 11.14 6.94 11.17C6.77 11.21 6.59 11.19 6.43 11.12C6.27 11.06 6.13 10.94 6.04 10.8C5.94 10.65 5.89 10.48 5.89 10.31C5.89 10.07 5.98 9.85 6.15 9.68C6.31 9.52 6.54 9.42 6.77 9.42ZM6.77 12.37C6.95 12.37 7.12 12.42 7.26 12.52C7.41 12.62 7.52 12.75 7.59 12.92C7.66 13.08 7.67 13.25 7.64 13.43C7.6 13.6 7.52 13.76 7.4 13.88C7.27 14 7.12 14.09 6.94 14.12C6.77 14.16 6.59 14.14 6.43 14.07C6.27 14 6.13 13.89 6.04 13.75C5.94 13.6 5.89 13.43 5.89 13.25C5.89 13.02 5.98 12.79 6.15 12.63C6.31 12.46 6.54 12.37 6.77 12.37ZM3.83 9.42C4 9.42 4.17 9.48 4.32 9.57C4.46 9.67 4.58 9.81 4.64 9.97C4.71 10.13 4.73 10.31 4.69 10.48C4.66 10.65 4.57 10.81 4.45 10.93C4.33 11.06 4.17 11.14 4 11.17C3.83 11.21 3.65 11.19 3.49 11.12C3.33 11.06 3.19 10.94 3.09 10.8C2.99 10.65 2.94 10.48 2.94 10.31C2.94 10.07 3.04 9.85 3.2 9.68C3.37 9.52 3.59 9.42 3.83 9.42ZM3.83 12.37C4 12.37 4.17 12.42 4.32 12.52C4.46 12.62 4.58 12.75 4.64 12.92C4.71 13.08 4.73 13.25 4.69 13.43C4.66 13.6 4.57 13.76 4.45 13.88C4.33 14 4.17 14.09 4 14.12C3.83 14.16 3.65 14.14 3.49 14.07C3.33 14 3.19 13.89 3.09 13.75C2.99 13.6 2.94 13.43 2.94 13.25C2.94 13.02 3.04 12.79 3.2 12.63C3.37 12.46 3.59 12.37 3.83 12.37Z" fill="#8DD3BB" fill-opacity="1.000000" fill-rule="nonzero"/>
</svg>
