<svg width="24.000000" height="24.000000" viewBox="0 0 24 24" fill="none" xmlns="http://www.w3.org/2000/svg" xmlns:xlink="http://www.w3.org/1999/xlink">
	<desc>
			Created with Pixso.
	</desc>
	<defs>
		<clipPath id="clip91_25669">
			<rect id="Bin" width="24.000000" height="24.000000" fill="white" fill-opacity="0"/>
		</clipPath>
	</defs>
	<rect id="Bin" width="24.000000" height="24.000000" fill="#FFFFFF" fill-opacity="0"/>
	<g clip-path="url(#clip91_25669)">
		<path id="Vector" d="M3 2.25L21 2.25C21.82 2.25 22.5 2.92 22.5 3.75L22.5 4.5C22.5 5.32 21.82 6 21 6L3 6C2.17 6 1.5 5.32 1.5 4.5L1.5 3.75C1.5 2.92 2.17 2.25 3 2.25Z" fill="#000000" fill-opacity="1.000000" fill-rule="evenodd"/>
		<path id="Vector" d="M3.49 7.5C3.43 7.49 3.38 7.51 3.33 7.53C3.28 7.55 3.24 7.58 3.21 7.62C3.17 7.66 3.14 7.7 3.13 7.75C3.11 7.8 3.1 7.86 3.11 7.91L4.34 19.75C4.34 19.75 4.34 19.75 4.34 19.76C4.41 20.31 4.67 20.81 5.08 21.18C5.5 21.54 6.03 21.75 6.58 21.75L17.41 21.75C17.96 21.75 18.5 21.54 18.91 21.18C19.32 20.81 19.58 20.31 19.65 19.76L19.65 19.75L20.88 7.91C20.88 7.86 20.88 7.8 20.86 7.75C20.84 7.7 20.82 7.66 20.78 7.62C20.75 7.58 20.7 7.55 20.66 7.53C20.61 7.51 20.56 7.49 20.5 7.5L3.49 7.5ZM15.15 15.96C15.22 16.03 15.28 16.12 15.32 16.21C15.36 16.3 15.38 16.4 15.38 16.5C15.38 16.6 15.36 16.7 15.32 16.79C15.28 16.88 15.23 16.96 15.16 17.03C15.09 17.1 15 17.16 14.91 17.2C14.82 17.23 14.72 17.25 14.62 17.25C14.52 17.25 14.42 17.23 14.33 17.19C14.24 17.15 14.16 17.1 14.09 17.03L12 14.93L9.9 17.03C9.76 17.16 9.57 17.24 9.37 17.24C9.17 17.24 8.99 17.16 8.85 17.02C8.71 16.88 8.63 16.69 8.63 16.49C8.63 16.3 8.7 16.11 8.84 15.96L10.93 13.87L8.84 11.78C8.7 11.63 8.63 11.44 8.63 11.25C8.63 11.05 8.71 10.86 8.85 10.72C8.99 10.58 9.17 10.5 9.37 10.5C9.57 10.5 9.76 10.58 9.9 10.71L12 12.81L14.09 10.71C14.23 10.58 14.42 10.5 14.62 10.5C14.82 10.5 15 10.58 15.14 10.72C15.28 10.86 15.36 11.05 15.36 11.25C15.36 11.44 15.29 11.63 15.15 11.78L13.06 13.87L15.15 15.96Z" fill="#000000" fill-opacity="1.000000" fill-rule="nonzero"/>
	</g>
</svg>
