<svg width="16.255859" height="17.416504" viewBox="0 0 16.2559 17.4165" fill="none" xmlns="http://www.w3.org/2000/svg" xmlns:xlink="http://www.w3.org/1999/xlink">
	<desc>
			Created with Pixso.
	</desc>
	<defs/>
	<path id="Vector" d="M12.77 0C13.08 0 13.37 0.12 13.59 0.33C13.81 0.55 13.93 0.85 13.93 1.16L13.93 16.25L15.67 16.25C15.82 16.25 15.97 16.31 16.08 16.42C16.19 16.53 16.25 16.68 16.25 16.83C16.25 16.99 16.19 17.13 16.08 17.24C15.97 17.35 15.82 17.41 15.67 17.41L0.58 17.41C0.42 17.41 0.27 17.35 0.16 17.24C0.06 17.13 0 16.99 0 16.83C0 16.68 0.06 16.53 0.16 16.42C0.27 16.31 0.42 16.25 0.58 16.25L2.32 16.25L2.32 1.16C2.32 0.85 2.44 0.55 2.66 0.33C2.87 0.12 3.17 0 3.48 0L12.77 0ZM10.45 10.45C10.75 10.45 11.05 10.32 11.27 10.1C11.48 9.89 11.61 9.59 11.61 9.28C11.61 8.98 11.48 8.68 11.27 8.46C11.05 8.25 10.75 8.12 10.45 8.12C10.14 8.12 9.84 8.25 9.62 8.46C9.41 8.68 9.28 8.98 9.28 9.28C9.28 9.59 9.41 9.89 9.62 10.1C9.84 10.32 10.14 10.45 10.45 10.45Z" fill="#8DD3BB" fill-opacity="1.000000" fill-rule="nonzero"/>
</svg>
