<svg width="15.000000" height="17.500000" viewBox="0 0 15 17.5" fill="none" xmlns="http://www.w3.org/2000/svg" xmlns:xlink="http://www.w3.org/1999/xlink">
	<desc>
			Created with Pixso.
	</desc>
	<defs/>
	<path id="Vector" d="M0.62 17.5C0.45 17.5 0.3 17.43 0.18 17.31C0.06 17.19 0 17.04 0 16.87L0 1.41C0 1.24 0.04 1.08 0.12 0.94C0.2 0.8 0.32 0.68 0.46 0.6C0.93 0.32 1.89 0 3.75 0C5.2 0 6.83 0.57 8.26 1.08C9.41 1.48 10.5 1.87 11.25 1.87C12.2 1.87 13.14 1.67 14.02 1.3C14.13 1.26 14.24 1.24 14.36 1.25C14.47 1.26 14.58 1.3 14.68 1.37C14.78 1.43 14.86 1.52 14.91 1.62C14.97 1.72 15 1.84 15 1.95L15 10.52C15 10.67 14.95 10.82 14.87 10.95C14.78 11.07 14.66 11.17 14.53 11.24C14.19 11.38 12.94 11.87 11.25 11.87C10.3 11.87 9.12 11.59 7.87 11.3C6.47 10.96 5.01 10.62 3.75 10.62C2.31 10.62 1.57 10.84 1.25 10.98L1.25 16.87C1.25 17.04 1.18 17.19 1.06 17.31C0.94 17.43 0.79 17.5 0.62 17.5Z" fill="#112211" fill-opacity="1.000000" fill-rule="nonzero"/>
</svg>
