<?xml version="1.0" encoding="UTF-8" standalone="no"?>
<svg
   width="19.5"
   height="24"
   viewBox="0 0 19.5 24"
   fill="none"
   version="1.1"
   id="svg1"
   sodipodi:docname="from-to.svg"
   inkscape:version="1.3.2 (091e20e, 2023-11-25, custom)"
   xmlns:inkscape="http://www.inkscape.org/namespaces/inkscape"
   xmlns:sodipodi="http://sodipodi.sourceforge.net/DTD/sodipodi-0.dtd"
   xmlns="http://www.w3.org/2000/svg"
   xmlns:svg="http://www.w3.org/2000/svg">
  <sodipodi:namedview
     id="namedview1"
     pagecolor="#ffffff"
     bordercolor="#000000"
     borderopacity="0.25"
     inkscape:showpageshadow="2"
     inkscape:pageopacity="0.0"
     inkscape:pagecheckerboard="0"
     inkscape:deskcolor="#d1d1d1"
     inkscape:zoom="22.892582"
     inkscape:cx="11.641326"
     inkscape:cy="13.432299"
     inkscape:window-width="1920"
     inkscape:window-height="991"
     inkscape:window-x="-9"
     inkscape:window-y="-9"
     inkscape:window-maximized="1"
     inkscape:current-layer="svg1" />
  <desc
     id="desc1">
			Created with Pixso.
	</desc>
  <defs
     id="defs1">
    <clipPath
       id="clip339_1376">
      <rect
         id="ion:swap-horizontal"
         width="24"
         height="24"
         fill="#ffffff"
         fill-opacity="0"
         x="0"
         y="0" />
    </clipPath>
  </defs>
  <rect
     id="rect1"
     width="24"
     height="24"
     fill="#ffffff"
     fill-opacity="0"
     x="0"
     y="0" />
  <g
     clip-path="url(#clip339_1376)"
     id="g1"
     transform="matrix(1.1815589,0,0,1.1427568,-4.4287071,-1.7141477)">
    <path
       style="color:#000000;fill:#000000;stroke-linecap:round;stroke-linejoin:round;-inkscape-stroke:none"
       d="m 14.25,1.5 a 0.75,0.75 0 0 0 -0.53125,0.21875 0.75,0.75 0 0 0 0,1.0625 L 17.6875,6.75 H 4.5 A 0.75,0.75 0 0 0 3.75,7.5 0.75,0.75 0 0 0 4.5,8.25 h 13.1875 l -3.96875,3.96875 a 0.75,0.75 0 0 0 0,1.0625 0.75,0.75 0 0 0 1.0625,0 l 5.25,-5.25 a 0.750075,0.750075 0 0 0 0,-1.0625 l -5.25,-5.25 A 0.75,0.75 0 0 0 14.25,1.5 Z m -4.5,9 a 0.75,0.75 0 0 0 -0.53125,0.21875 l -5.25,5.25 a 0.750075,0.750075 0 0 0 0,1.0625 l 5.25,5.25 a 0.75,0.75 0 0 0 1.0625,0 0.75,0.75 0 0 0 0,-1.0625 L 6.3125,17.25 H 19.5 A 0.75,0.75 0 0 0 20.25,16.5 0.75,0.75 0 0 0 19.5,15.75 H 6.3125 l 3.96875,-3.96875 a 0.75,0.75 0 0 0 0,-1.0625 A 0.75,0.75 0 0 0 9.75,10.5 Z"
       id="Vector" />
  </g>
</svg>
