<svg width="22.400391" height="11.199951" viewBox="0 0 22.4004 11.2" fill="none" xmlns="http://www.w3.org/2000/svg" xmlns:xlink="http://www.w3.org/1999/xlink">
	<desc>
			Created with Pixso.
	</desc>
	<defs/>
	<path id="Vector" d="M22.4 4.8L22.4 6.39L20.8 6.39L20.8 9.6L19.19 9.6L19.19 11.2L16.8 11.2L16.8 6.39L5.59 6.39L5.59 11.2L3.19 11.2L3.19 9.6L1.59 9.6L1.59 6.39L0 6.39L0 4.8L1.59 4.8L1.59 1.6L3.19 1.6L3.19 0L5.59 0L5.59 4.8L16.8 4.8L16.8 0L19.19 0L19.19 1.6L20.8 1.6L20.8 4.8L22.4 4.8Z" fill="#112211" fill-opacity="1.000000" fill-rule="nonzero"/>
</svg>
