<?xml version="1.0" encoding="UTF-8" standalone="no"?>
<svg
   width="16.500999"
   height="15.25"
   viewBox="0 0 16.500999 15.25"
   fill="none"
   version="1.1"
   id="svg1"
   sodipodi:docname="heart-border.svg"
   inkscape:version="1.3.2 (091e20e, 2023-11-25, custom)"
   xmlns:inkscape="http://www.inkscape.org/namespaces/inkscape"
   xmlns:sodipodi="http://sodipodi.sourceforge.net/DTD/sodipodi-0.dtd"
   xmlns="http://www.w3.org/2000/svg"
   xmlns:svg="http://www.w3.org/2000/svg">
  <sodipodi:namedview
     id="namedview1"
     pagecolor="#ffffff"
     bordercolor="#000000"
     borderopacity="0.25"
     inkscape:showpageshadow="2"
     inkscape:pageopacity="0.0"
     inkscape:pagecheckerboard="0"
     inkscape:deskcolor="#d1d1d1"
     inkscape:zoom="38.85"
     inkscape:cx="9.047619"
     inkscape:cy="8.4041184"
     inkscape:window-width="1920"
     inkscape:window-height="991"
     inkscape:window-x="-9"
     inkscape:window-y="-9"
     inkscape:window-maximized="1"
     inkscape:current-layer="svg1" />
  <desc
     id="desc1">
			Created with Pixso.
	</desc>
  <defs
     id="defs1">
    <clipPath
       id="clip339_1113">
      <rect
         id="Fill=False"
         width="20"
         height="20"
         fill="#ffffff"
         fill-opacity="0"
         x="0"
         y="0" />
    </clipPath>
  </defs>
  <rect
     id="rect1"
     width="20"
     height="20"
     fill="#ffffff"
     fill-opacity="0"
     x="0"
     y="0" />
  <g
     clip-path="url(#clip339_1113)"
     id="g1"
     transform="translate(-1.7494175,-2.3691406)">
    <path
       style="color:#000000;fill:#000000;stroke-linejoin:round;-inkscape-stroke:none"
       d="M 6.2109375,2.3691406 C 3.734131,2.3691406 1.7748358,4.4399694 1.75,6.890625 1.722625,9.2284848 2.6625857,11.245051 4.0605469,12.951172 5.458508,14.657293 7.3118473,16.087614 9.21875,17.380859 a 0.750075,0.750075 0 0 0 0.019531,0.01172 C 9.4475353,17.52574 9.7161541,17.619141 10,17.619141 c 0.286666,0 0.542699,-0.0934 0.751953,-0.226563 a 0.750075,0.750075 0 0 0 0.01953,-0.01172 c 1.906903,-1.293245 3.759135,-2.723828 5.158204,-4.429687 1.399069,-1.705858 2.34221,-3.7211349 2.320313,-6.0585929 a 0.750075,0.750075 0 0 0 0,-0.00391 C 18.214329,4.4392469 16.25677,2.3691406 13.779297,2.3691406 11.683938,2.3691406 10.618347,3.5311587 10,4.390625 9.3807817,3.5312216 8.3124764,2.3691406 6.2109375,2.3691406 Z m 0,1.5 c 2.047872,0 3.1191406,2.0859375 3.1191406,2.0859375 a 0.750075,0.750075 0 0 0 1.3398439,0 c 0,0 1.073448,-2.0859375 3.109375,-2.0859375 1.641883,0 2.945388,1.3693766 2.970703,3.0390625 10e-6,6.508e-4 -9e-6,0.0013 0,0.00195 C 16.767017,8.8409389 16.014591,10.481922 14.769531,12 13.539157,13.500173 11.823256,14.846129 9.9960938,16.089844 8.1684405,14.845881 6.4499979,13.500275 5.2207031,12 3.9761669,10.481124 3.2273755,8.8403391 3.25,6.9082031 3.2661988,5.2397273 4.5684149,3.8691406 6.2109375,3.8691406 Z"
       id="Vector" />
  </g>
</svg>
