<?xml version="1.0" encoding="UTF-8" standalone="no"?>
<svg
   width="42"
   height="45"
   viewBox="0 0 42 45"
   fill="none"
   version="1.1"
   id="svg1"
   sodipodi:docname="hotel.svg"
   inkscape:version="1.3.2 (091e20e, 2023-11-25, custom)"
   xmlns:inkscape="http://www.inkscape.org/namespaces/inkscape"
   xmlns:sodipodi="http://sodipodi.sourceforge.net/DTD/sodipodi-0.dtd"
   xmlns="http://www.w3.org/2000/svg"
   xmlns:svg="http://www.w3.org/2000/svg">
  <sodipodi:namedview
     id="namedview1"
     pagecolor="#ffffff"
     bordercolor="#000000"
     borderopacity="0.25"
     inkscape:showpageshadow="2"
     inkscape:pageopacity="0.0"
     inkscape:pagecheckerboard="0"
     inkscape:deskcolor="#d1d1d1"
     inkscape:zoom="11.446291"
     inkscape:cx="22.933193"
     inkscape:cy="21.360631"
     inkscape:window-width="1920"
     inkscape:window-height="991"
     inkscape:window-x="-9"
     inkscape:window-y="-9"
     inkscape:window-maximized="1"
     inkscape:current-layer="svg1" />
  <desc
     id="desc1">
			Created with Pixso.
	</desc>
  <defs
     id="defs1">
    <clipPath
       id="clip90_7894">
      <rect
         id="building"
         width="48"
         height="48"
         fill="#ffffff"
         fill-opacity="0"
         x="0"
         y="0" />
    </clipPath>
  </defs>
  <rect
     id="rect1"
     width="48"
     height="48"
     fill="#ffffff"
     fill-opacity="0"
     x="0"
     y="0" />
  <g
     clip-path="url(#clip90_7894)"
     id="g1"
     transform="translate(-3,-1.5)">
    <path
       id="Vector"
       d="M 40.5,16.5 H 30 V 6 C 30,4.8 29.52,3.66 28.68,2.81 27.83,1.97 26.69,1.5 25.5,1.5 H 7.5 C 6.3,1.5 5.16,1.97 4.31,2.81 3.47,3.66 3,4.8 3,6 v 39 c 0,0.39 0.15,0.77 0.43,1.06 0.29,0.28 0.67,0.44 1.07,0.44 h 9.75 c 0.19,0 0.39,-0.08 0.53,-0.22 C 14.92,46.13 15,45.94 15,45.75 v -6.71 c 0,-0.81 0.62,-1.5 1.42,-1.54 0.21,-0.01 0.41,0.02 0.6,0.09 0.19,0.07 0.36,0.18 0.51,0.32 0.15,0.14 0.26,0.31 0.34,0.49 0.08,0.19 0.13,0.39 0.13,0.6 v 6.75 c 0,0.19 0.07,0.38 0.21,0.53 0.14,0.14 0.34,0.22 0.54,0.22 H 43.5 c 0.39,0 0.77,-0.16 1.06,-0.44 C 44.84,45.77 45,45.39 45,45 V 21 C 45,19.8 44.52,18.66 43.68,17.81 42.83,16.97 41.69,16.5 40.5,16.5 Z M 9.19,40.48 C 8.88,40.52 8.56,40.47 8.29,40.32 8.01,40.17 7.79,39.94 7.65,39.66 7.51,39.38 7.46,39.06 7.52,38.75 c 0.05,-0.31 0.19,-0.59 0.41,-0.82 0.23,-0.22 0.51,-0.36 0.82,-0.41 0.31,-0.06 0.63,-0.01 0.91,0.13 0.28,0.14 0.51,0.36 0.66,0.64 0.15,0.27 0.2,0.59 0.16,0.9 -0.04,0.33 -0.19,0.63 -0.42,0.87 -0.24,0.23 -0.54,0.38 -0.87,0.42 z m 0,-7.5 C 8.88,33.02 8.56,32.97 8.29,32.82 8.01,32.67 7.79,32.44 7.65,32.16 7.51,31.88 7.46,31.56 7.52,31.25 c 0.05,-0.31 0.19,-0.59 0.41,-0.82 0.23,-0.22 0.51,-0.36 0.82,-0.41 0.31,-0.06 0.63,-0.01 0.91,0.13 0.28,0.14 0.51,0.36 0.66,0.64 0.15,0.27 0.2,0.59 0.16,0.9 -0.04,0.33 -0.19,0.63 -0.42,0.87 -0.24,0.23 -0.54,0.38 -0.87,0.42 z m 0,-7.5 C 8.88,25.52 8.56,25.47 8.29,25.32 8.01,25.17 7.79,24.94 7.65,24.66 7.51,24.38 7.46,24.06 7.52,23.75 c 0.05,-0.31 0.19,-0.59 0.41,-0.82 0.23,-0.22 0.51,-0.36 0.82,-0.41 0.31,-0.06 0.63,-0.01 0.91,0.13 0.28,0.14 0.51,0.36 0.66,0.64 0.15,0.27 0.2,0.59 0.16,0.9 -0.04,0.33 -0.19,0.63 -0.42,0.87 -0.24,0.23 -0.54,0.38 -0.87,0.42 z m 0,-7.5 C 8.88,18.02 8.56,17.97 8.29,17.82 8.01,17.67 7.79,17.44 7.65,17.16 7.51,16.88 7.46,16.56 7.52,16.25 c 0.05,-0.31 0.19,-0.59 0.41,-0.82 0.23,-0.22 0.51,-0.36 0.82,-0.41 0.31,-0.06 0.63,-0.01 0.91,0.13 0.28,0.14 0.51,0.36 0.66,0.64 0.15,0.27 0.2,0.59 0.16,0.9 -0.04,0.33 -0.19,0.63 -0.42,0.87 -0.24,0.23 -0.54,0.38 -0.87,0.42 z m 0,-7.5 C 8.88,10.52 8.56,10.47 8.29,10.32 8.01,10.17 7.79,9.94 7.65,9.66 7.51,9.38 7.46,9.06 7.52,8.75 7.57,8.44 7.71,8.16 7.93,7.93 8.16,7.71 8.44,7.57 8.75,7.52 9.06,7.46 9.38,7.51 9.66,7.65 c 0.28,0.14 0.51,0.36 0.66,0.64 0.15,0.27 0.2,0.59 0.16,0.9 -0.04,0.33 -0.19,0.63 -0.42,0.87 -0.24,0.23 -0.54,0.38 -0.87,0.42 z m 7.5,22.5 c -0.31,0.04 -0.63,-0.01 -0.9,-0.16 -0.28,-0.15 -0.5,-0.38 -0.64,-0.66 -0.14,-0.28 -0.19,-0.6 -0.13,-0.91 0.05,-0.31 0.19,-0.59 0.41,-0.82 0.23,-0.22 0.51,-0.36 0.82,-0.41 0.31,-0.06 0.63,-0.01 0.91,0.13 0.28,0.14 0.51,0.36 0.66,0.64 0.15,0.27 0.2,0.59 0.16,0.9 -0.04,0.33 -0.19,0.63 -0.42,0.87 -0.24,0.23 -0.54,0.38 -0.87,0.42 z m 0,-7.5 c -0.31,0.04 -0.63,-0.01 -0.9,-0.16 -0.28,-0.15 -0.5,-0.38 -0.64,-0.66 -0.14,-0.28 -0.19,-0.6 -0.13,-0.91 0.05,-0.31 0.19,-0.59 0.41,-0.82 0.23,-0.22 0.51,-0.36 0.82,-0.41 0.31,-0.06 0.63,-0.01 0.91,0.13 0.28,0.14 0.51,0.36 0.66,0.64 0.15,0.27 0.2,0.59 0.16,0.9 -0.04,0.33 -0.19,0.63 -0.42,0.87 -0.24,0.23 -0.54,0.38 -0.87,0.42 z m 0,-7.5 c -0.31,0.04 -0.63,-0.01 -0.9,-0.16 -0.28,-0.15 -0.5,-0.38 -0.64,-0.66 -0.14,-0.28 -0.19,-0.6 -0.13,-0.91 0.05,-0.31 0.19,-0.59 0.41,-0.82 0.23,-0.22 0.51,-0.36 0.82,-0.41 0.31,-0.06 0.63,-0.01 0.91,0.13 0.28,0.14 0.51,0.36 0.66,0.64 0.15,0.27 0.2,0.59 0.16,0.9 -0.04,0.33 -0.19,0.63 -0.42,0.87 -0.24,0.23 -0.54,0.38 -0.87,0.42 z m 0,-7.5 c -0.31,0.04 -0.63,-0.01 -0.9,-0.16 -0.28,-0.15 -0.5,-0.38 -0.64,-0.66 -0.14,-0.28 -0.19,-0.6 -0.13,-0.91 0.05,-0.31 0.19,-0.59 0.41,-0.82 0.23,-0.22 0.51,-0.36 0.82,-0.41 0.31,-0.06 0.63,-0.01 0.91,0.13 0.28,0.14 0.51,0.36 0.66,0.64 0.15,0.27 0.2,0.59 0.16,0.9 -0.04,0.33 -0.19,0.63 -0.42,0.87 -0.24,0.23 -0.54,0.38 -0.87,0.42 z m 7.5,30 c -0.31,0.04 -0.63,-0.01 -0.9,-0.16 -0.28,-0.15 -0.5,-0.38 -0.64,-0.66 -0.14,-0.28 -0.19,-0.6 -0.13,-0.91 0.05,-0.31 0.19,-0.59 0.41,-0.82 0.23,-0.22 0.51,-0.36 0.82,-0.41 0.31,-0.06 0.63,-0.01 0.91,0.13 0.28,0.14 0.51,0.36 0.66,0.64 0.15,0.27 0.2,0.59 0.16,0.9 -0.04,0.33 -0.19,0.63 -0.42,0.87 -0.24,0.23 -0.54,0.38 -0.87,0.42 z m 0,-7.5 c -0.31,0.04 -0.63,-0.01 -0.9,-0.16 -0.28,-0.15 -0.5,-0.38 -0.64,-0.66 -0.14,-0.28 -0.19,-0.6 -0.13,-0.91 0.05,-0.31 0.19,-0.59 0.41,-0.82 0.23,-0.22 0.51,-0.36 0.82,-0.41 0.31,-0.06 0.63,-0.01 0.91,0.13 0.28,0.14 0.51,0.36 0.66,0.64 0.15,0.27 0.2,0.59 0.16,0.9 -0.04,0.33 -0.19,0.63 -0.42,0.87 -0.24,0.23 -0.54,0.38 -0.87,0.42 z m 0,-7.5 c -0.31,0.04 -0.63,-0.01 -0.9,-0.16 -0.28,-0.15 -0.5,-0.38 -0.64,-0.66 -0.14,-0.28 -0.19,-0.6 -0.13,-0.91 0.05,-0.31 0.19,-0.59 0.41,-0.82 0.23,-0.22 0.51,-0.36 0.82,-0.41 0.31,-0.06 0.63,-0.01 0.91,0.13 0.28,0.14 0.51,0.36 0.66,0.64 0.15,0.27 0.2,0.59 0.16,0.9 -0.04,0.33 -0.19,0.63 -0.42,0.87 -0.24,0.23 -0.54,0.38 -0.87,0.42 z m 0,-7.5 c -0.31,0.04 -0.63,-0.01 -0.9,-0.16 -0.28,-0.15 -0.5,-0.38 -0.64,-0.66 -0.14,-0.28 -0.19,-0.6 -0.13,-0.91 0.05,-0.31 0.19,-0.59 0.41,-0.82 0.23,-0.22 0.51,-0.36 0.82,-0.41 0.31,-0.06 0.63,-0.01 0.91,0.13 0.28,0.14 0.51,0.36 0.66,0.64 0.15,0.27 0.2,0.59 0.16,0.9 -0.04,0.33 -0.19,0.63 -0.42,0.87 -0.24,0.23 -0.54,0.38 -0.87,0.42 z m 0,-7.5 c -0.31,0.04 -0.63,-0.01 -0.9,-0.16 -0.28,-0.15 -0.5,-0.38 -0.64,-0.66 -0.14,-0.28 -0.19,-0.6 -0.13,-0.91 0.05,-0.31 0.19,-0.59 0.41,-0.82 0.23,-0.22 0.51,-0.36 0.82,-0.41 0.31,-0.06 0.63,-0.01 0.91,0.13 0.28,0.14 0.51,0.36 0.66,0.64 0.15,0.27 0.2,0.59 0.16,0.9 -0.04,0.33 -0.19,0.63 -0.42,0.87 -0.24,0.23 -0.54,0.38 -0.87,0.42 z M 41.62,43.5 H 30 v -24 h 10.5 c 0.39,0 0.77,0.15 1.06,0.43 C 41.84,20.22 42,20.6 42,21 v 22.12 c 0,0.1 -0.04,0.19 -0.11,0.27 -0.07,0.07 -0.17,0.11 -0.27,0.11 z"
       fill="#000000"
       fill-opacity="1"
       fill-rule="nonzero" />
    <path
       id="path1"
       d="m 37.5,37.5 c -0.3,0 -0.59,0.08 -0.84,0.25 -0.25,0.16 -0.44,0.4 -0.55,0.67 -0.11,0.28 -0.14,0.58 -0.09,0.87 0.06,0.29 0.21,0.56 0.41,0.77 0.21,0.21 0.48,0.35 0.77,0.41 0.29,0.05 0.6,0.02 0.87,-0.09 0.27,-0.11 0.51,-0.3 0.67,-0.55 C 38.91,39.58 39,39.29 39,39 39,38.6 38.84,38.22 38.56,37.93 38.27,37.65 37.89,37.5 37.5,37.5 Z m 0,-7.5 c -0.3,0 -0.59,0.08 -0.84,0.25 -0.25,0.16 -0.44,0.4 -0.55,0.67 -0.11,0.28 -0.14,0.58 -0.09,0.87 0.06,0.29 0.21,0.56 0.41,0.77 0.21,0.21 0.48,0.35 0.77,0.41 0.29,0.05 0.6,0.02 0.87,-0.09 0.27,-0.11 0.51,-0.3 0.67,-0.55 C 38.91,32.08 39,31.79 39,31.5 39,31.1 38.84,30.72 38.56,30.43 38.27,30.15 37.89,30 37.5,30 Z m 0,-7.5 c -0.3,0 -0.59,0.08 -0.84,0.25 -0.25,0.16 -0.44,0.4 -0.55,0.67 -0.11,0.28 -0.14,0.58 -0.09,0.87 0.06,0.29 0.21,0.56 0.41,0.77 0.21,0.21 0.48,0.35 0.77,0.41 0.29,0.05 0.6,0.02 0.87,-0.09 0.27,-0.11 0.51,-0.3 0.67,-0.55 C 38.91,24.58 39,24.29 39,24 39,23.6 38.84,23.22 38.56,22.93 38.27,22.65 37.89,22.5 37.5,22.5 Z m -6,15 c -0.3,0 -0.59,0.08 -0.84,0.25 -0.25,0.16 -0.44,0.4 -0.55,0.67 -0.11,0.28 -0.14,0.58 -0.09,0.87 0.06,0.29 0.21,0.56 0.41,0.77 0.21,0.21 0.48,0.35 0.77,0.41 0.29,0.05 0.6,0.02 0.87,-0.09 0.27,-0.11 0.51,-0.3 0.67,-0.55 C 32.91,39.58 33,39.29 33,39 33,38.6 32.84,38.22 32.56,37.93 32.27,37.65 31.89,37.5 31.5,37.5 Z m 0,-7.5 c -0.3,0 -0.59,0.08 -0.84,0.25 -0.25,0.16 -0.44,0.4 -0.55,0.67 -0.11,0.28 -0.14,0.58 -0.09,0.87 0.06,0.29 0.21,0.56 0.41,0.77 0.21,0.21 0.48,0.35 0.77,0.41 0.29,0.05 0.6,0.02 0.87,-0.09 0.27,-0.11 0.51,-0.3 0.67,-0.55 C 32.91,32.08 33,31.79 33,31.5 33,31.1 32.84,30.72 32.56,30.43 32.27,30.15 31.89,30 31.5,30 Z m 0,-7.5 c -0.3,0 -0.59,0.08 -0.84,0.25 -0.25,0.16 -0.44,0.4 -0.55,0.67 -0.11,0.28 -0.14,0.58 -0.09,0.87 0.06,0.29 0.21,0.56 0.41,0.77 0.21,0.21 0.48,0.35 0.77,0.41 0.29,0.05 0.6,0.02 0.87,-0.09 0.27,-0.11 0.51,-0.3 0.67,-0.55 C 32.91,24.58 33,24.29 33,24 33,23.6 32.84,23.22 32.56,22.93 32.27,22.65 31.89,22.5 31.5,22.5 Z"
       fill="#000000"
       fill-opacity="1"
       fill-rule="nonzero" />
  </g>
</svg>
