<svg width="17.000488" height="17.000000" viewBox="0 0 17.0005 17" fill="none" xmlns="http://www.w3.org/2000/svg" xmlns:xlink="http://www.w3.org/1999/xlink">
	<desc>
			Created with Pixso.
	</desc>
	<defs/>
	<path id="Vector" d="M8.49 5.66C6.93 5.66 5.66 6.93 5.66 8.5C5.66 10.06 6.93 11.33 8.49 11.33C10.05 11.33 11.33 10.06 11.33 8.5C11.33 6.93 10.05 5.66 8.49 5.66ZM16.99 8.5C16.99 7.32 17 6.16 16.94 4.99C16.87 3.63 16.56 2.42 15.57 1.42C14.57 0.43 13.36 0.12 12 0.05C10.83 -0.02 9.67 0 8.5 0C7.32 0 6.16 -0.02 4.99 0.05C3.63 0.12 2.42 0.43 1.42 1.42C0.43 2.42 0.12 3.63 0.05 4.99C-0.01 6.16 0 7.32 0 8.5C0 9.67 -0.01 10.83 0.05 12C0.12 13.36 0.43 14.57 1.42 15.57C2.42 16.56 3.63 16.87 4.99 16.94C6.16 17.01 7.32 16.99 8.5 16.99C9.67 16.99 10.83 17.01 12 16.94C13.36 16.87 14.57 16.56 15.57 15.57C16.56 14.57 16.87 13.36 16.94 12C17.01 10.83 16.99 9.67 16.99 8.5ZM8.49 12.86C6.08 12.86 4.13 10.91 4.13 8.5C4.13 6.08 6.08 4.13 8.49 4.13C10.91 4.13 12.85 6.08 12.85 8.5C12.85 10.91 10.91 12.86 8.49 12.86ZM13.03 4.97C12.47 4.97 12.01 4.52 12.01 3.95C12.01 3.39 12.47 2.94 13.03 2.94C13.6 2.94 14.05 3.39 14.05 3.95C14.05 4.09 14.03 4.22 13.97 4.35C13.92 4.47 13.85 4.58 13.75 4.68C13.66 4.77 13.55 4.85 13.42 4.9C13.3 4.95 13.17 4.97 13.03 4.97Z" fill="#112211" fill-opacity="1.000000" fill-rule="nonzero"/>
</svg>
