<?xml version="1.0" encoding="UTF-8" standalone="no"?>
<svg
   width="22.5"
   height="22.504"
   viewBox="0 0 22.5 22.504"
   fill="none"
   version="1.1"
   id="svg1"
   sodipodi:docname="junk-food.svg"
   inkscape:version="1.3.2 (091e20e, 2023-11-25, custom)"
   xmlns:inkscape="http://www.inkscape.org/namespaces/inkscape"
   xmlns:sodipodi="http://sodipodi.sourceforge.net/DTD/sodipodi-0.dtd"
   xmlns="http://www.w3.org/2000/svg"
   xmlns:svg="http://www.w3.org/2000/svg">
  <sodipodi:namedview
     id="namedview1"
     pagecolor="#ffffff"
     bordercolor="#000000"
     borderopacity="0.25"
     inkscape:showpageshadow="2"
     inkscape:pageopacity="0.0"
     inkscape:pagecheckerboard="0"
     inkscape:deskcolor="#d1d1d1"
     inkscape:zoom="22.892582"
     inkscape:cx="12.121831"
     inkscape:cy="13.126523"
     inkscape:window-width="1920"
     inkscape:window-height="991"
     inkscape:window-x="-9"
     inkscape:window-y="-9"
     inkscape:window-maximized="1"
     inkscape:current-layer="svg1" />
  <desc
     id="desc1">
			Created with Pixso.
	</desc>
  <defs
     id="defs1">
    <clipPath
       id="clip69_5695">
      <rect
         id="ion:fast-food"
         width="24"
         height="24"
         fill="#ffffff"
         fill-opacity="0"
         x="0"
         y="0" />
    </clipPath>
  </defs>
  <rect
     id="rect1"
     width="24"
     height="24"
     fill="#ffffff"
     fill-opacity="0"
     x="0"
     y="0" />
  <g
     clip-path="url(#clip69_5695)"
     id="g1"
     transform="translate(-0.75,-0.74625)">
    <path
       id="Vector"
       d="M 17.25,6 Z M 22.47,4.5 H 18.2 l 0.42,-1.68 1.8,-0.61 C 20.8,2.08 21.03,1.68 20.92,1.29 20.89,1.19 20.84,1.1 20.78,1.02 20.71,0.94 20.64,0.88 20.55,0.83 20.45,0.78 20.36,0.75 20.26,0.75 c -0.11,-0.01 -0.21,0 -0.3,0.03 L 17.75,1.53 C 17.63,1.58 17.53,1.64 17.44,1.74 17.36,1.83 17.3,1.94 17.27,2.06 L 16.66,4.5 h -6.14 c -0.41,0 -0.75,0.31 -0.77,0.71 -0.01,0.1 0.01,0.2 0.04,0.3 0.04,0.09 0.09,0.18 0.16,0.25 0.07,0.08 0.16,0.13 0.25,0.17 C 10.29,5.97 10.39,6 10.5,6 h 0.12 l 0.05,0.4 c 0.01,0.1 0.06,0.18 0.13,0.25 0.07,0.06 0.16,0.1 0.26,0.1 1.83,0 3.45,0.51 4.69,1.47 0.69,0.53 1.25,1.22 1.64,2 0.21,0.44 0.37,0.9 0.47,1.38 0.02,0.09 0.08,0.18 0.15,0.23 0.64,0.43 1.11,1.07 1.34,1.81 0.22,0.73 0.19,1.53 -0.1,2.24 -0.03,0.08 -0.04,0.18 -0.01,0.26 0.17,0.48 0.26,0.98 0.26,1.48 0,1.05 -0.36,2.05 -1.01,2.81 -0.37,0.44 -0.83,0.78 -1.35,1.02 -0.09,0.04 -0.16,0.11 -0.19,0.2 -0.2,0.51 -0.47,0.98 -0.82,1.4 -0.01,0.02 -0.02,0.04 -0.03,0.06 0,0.02 0.01,0.04 0.01,0.07 0.01,0.02 0.03,0.03 0.05,0.04 0.02,0.02 0.04,0.02 0.06,0.02 h 2.31 c 0.56,0 1.11,-0.21 1.52,-0.6 0.42,-0.38 0.67,-0.9 0.72,-1.47 L 22.37,6 H 22.5 C 22.6,6 22.7,5.97 22.79,5.93 22.88,5.89 22.97,5.84 23.04,5.76 23.11,5.69 23.16,5.6 23.2,5.51 23.23,5.41 23.25,5.31 23.25,5.21 23.23,4.81 22.88,4.5 22.47,4.5 Z"
       fill="#112211"
       fill-opacity="1"
       fill-rule="nonzero" />
    <path
       id="path1"
       d="m 5.09,15 c 0.15,-0.01 0.29,0.02 0.43,0.08 0.14,0.06 0.26,0.14 0.37,0.24 l 0.72,0.73 c 0.02,0.02 0.04,0.03 0.06,0.04 0.03,0.01 0.05,0.02 0.08,0.02 0.02,0 0.05,-0.01 0.07,-0.02 0.02,-0.01 0.04,-0.02 0.06,-0.04 L 7.6,15.32 C 7.71,15.22 7.83,15.14 7.97,15.08 8.11,15.02 8.25,14.99 8.4,15 h 9.22 c 0.05,0 0.09,-0.01 0.14,-0.03 0.05,-0.02 0.09,-0.05 0.12,-0.08 0.04,-0.04 0.07,-0.08 0.08,-0.12 0.02,-0.05 0.03,-0.1 0.04,-0.15 v 0 C 17.99,14.19 17.84,13.77 17.57,13.43 17.3,13.1 16.92,12.87 16.5,12.78 16.46,11.39 15.89,10.23 14.83,9.41 13.85,8.65 12.55,8.25 11.06,8.25 H 7.68 c -3.2,0 -5.36,1.81 -5.43,4.53 -0.43,0.09 -0.81,0.32 -1.08,0.65 -0.27,0.34 -0.42,0.76 -0.42,1.19 0,0.1 0.03,0.19 0.1,0.27 C 0.92,14.96 1.02,15 1.12,15 Z m 3.62,1.5 c -0.05,-0.01 -0.1,0 -0.14,0.02 -0.05,0.02 -0.09,0.05 -0.12,0.08 l -1.04,1.04 c -0.18,0.18 -0.42,0.28 -0.66,0.28 -0.25,0 -0.49,-0.1 -0.67,-0.28 L 5.04,16.6 C 5.01,16.57 4.97,16.54 4.92,16.52 4.88,16.5 4.83,16.49 4.78,16.5 H 1.53 c -0.18,-0.01 -0.35,0.06 -0.49,0.17 -0.13,0.11 -0.22,0.27 -0.25,0.44 -0.03,0.17 -0.04,0.34 -0.04,0.51 0,1.43 0.99,2.6 2.21,2.63 0.11,0.7 0.39,1.34 0.8,1.85 0.62,0.74 1.51,1.15 2.52,1.15 h 6.18 c 1.01,0 1.9,-0.41 2.52,-1.16 0.41,-0.5 0.69,-1.14 0.8,-1.85 C 17,20.22 18,19.05 18,17.62 18,17.45 17.98,17.28 17.95,17.11 17.92,16.94 17.83,16.78 17.7,16.67 17.56,16.56 17.39,16.49 17.21,16.5 Z"
       fill="#112211"
       fill-opacity="1"
       fill-rule="nonzero" />
  </g>
</svg>
