<svg width="11.250000" height="15.749413" viewBox="0 0 11.25 15.7494" fill="none" xmlns="http://www.w3.org/2000/svg" xmlns:xlink="http://www.w3.org/1999/xlink">
	<desc>
			Created with Pixso.
	</desc>
	<defs/>
	<path id="Vector" d="M5.62 0C2.52 0 0 2.41 0 5.37C0 6.79 0.64 8.66 1.91 10.96C2.93 12.8 4.11 14.46 4.72 15.29C4.82 15.43 4.96 15.54 5.12 15.62C5.27 15.7 5.45 15.74 5.62 15.74C5.8 15.74 5.97 15.7 6.13 15.62C6.28 15.54 6.42 15.43 6.52 15.29C7.13 14.46 8.31 12.8 9.33 10.96C10.6 8.66 11.25 6.79 11.25 5.37C11.25 2.41 8.72 0 5.62 0ZM5.62 7.87C5.17 7.87 4.74 7.74 4.37 7.49C4 7.24 3.71 6.89 3.54 6.48C3.37 6.07 3.33 5.62 3.41 5.18C3.5 4.74 3.71 4.34 4.03 4.03C4.34 3.71 4.75 3.5 5.18 3.41C5.62 3.33 6.07 3.37 6.48 3.54C6.89 3.71 7.24 4 7.49 4.37C7.74 4.74 7.87 5.17 7.87 5.62C7.87 6.22 7.63 6.79 7.21 7.21C6.79 7.63 6.22 7.87 5.62 7.87Z" fill="#112211" fill-opacity="1.000000" fill-rule="nonzero"/>
</svg>
