<svg width="21.000000" height="16.500000" viewBox="0 0 21 16.5" fill="none" xmlns="http://www.w3.org/2000/svg" xmlns:xlink="http://www.w3.org/1999/xlink">
	<desc>
			Created with Pixso.
	</desc>
	<defs/>
	<path id="Vector" d="M18.37 0L2.62 0C1.92 0 1.26 0.27 0.76 0.76C0.27 1.26 0 1.92 0 2.62L0 13.87C0 14.57 0.27 15.23 0.76 15.73C1.26 16.22 1.92 16.49 2.62 16.5L18.37 16.5C19.07 16.49 19.73 16.22 20.23 15.73C20.72 15.23 20.99 14.57 21 13.87L21 2.62C20.99 1.92 20.72 1.26 20.23 0.76C19.73 0.27 19.07 0 18.37 0ZM17.7 4.34L10.96 9.59C10.82 9.69 10.66 9.74 10.5 9.74C10.33 9.74 10.17 9.69 10.04 9.59L3.29 4.34C3.2 4.28 3.14 4.2 3.09 4.12C3.04 4.03 3.01 3.94 2.99 3.84C2.98 3.74 2.99 3.64 3.01 3.54C3.04 3.45 3.08 3.36 3.14 3.28C3.21 3.2 3.28 3.13 3.37 3.09C3.45 3.04 3.55 3.01 3.65 2.99C3.75 2.98 3.85 2.99 3.94 3.02C4.04 3.04 4.13 3.09 4.2 3.15L10.5 8.04L16.79 3.15C16.94 3.03 17.14 2.98 17.33 3.01C17.53 3.03 17.71 3.14 17.83 3.29C17.95 3.45 18 3.64 17.98 3.84C17.96 4.04 17.86 4.21 17.7 4.34Z" fill="#112211" fill-opacity="1.000000" fill-rule="nonzero"/>
</svg>
