<?xml version="1.0" encoding="UTF-8" standalone="no"?>
<svg
   width="24.000000"
   height="24.000000"
   viewBox="0 0 24 24"
   fill="none"
   version="1.1"
   id="svg1"
   sodipodi:docname="pen.svg"
   inkscape:version="1.3.2 (091e20e, 2023-11-25, custom)"
   xmlns:inkscape="http://www.inkscape.org/namespaces/inkscape"
   xmlns:sodipodi="http://sodipodi.sourceforge.net/DTD/sodipodi-0.dtd"
   xmlns="http://www.w3.org/2000/svg"
   xmlns:svg="http://www.w3.org/2000/svg">
  <sodipodi:namedview
     id="namedview1"
     pagecolor="#ffffff"
     bordercolor="#000000"
     borderopacity="0.25"
     inkscape:showpageshadow="2"
     inkscape:pageopacity="0.0"
     inkscape:pagecheckerboard="0"
     inkscape:deskcolor="#d1d1d1"
     inkscape:zoom="32.375"
     inkscape:cx="12"
     inkscape:cy="9.5289575"
     inkscape:window-width="1920"
     inkscape:window-height="991"
     inkscape:window-x="-9"
     inkscape:window-y="-9"
     inkscape:window-maximized="1"
     inkscape:current-layer="svg1" />
  <desc
     id="desc1">
			Created with Pixso.
	</desc>
  <defs
     id="defs1">
    <clipPath
       id="clip64_5600">
      <rect
         id="Pen"
         width="24.000000"
         height="24.000000"
         fill="white"
         fill-opacity="0" />
    </clipPath>
  </defs>
  <rect
     id="rect1"
     width="24.000000"
     height="24.000000"
     fill="#FFFFFF"
     fill-opacity="0" />
  <g
     clip-path="url(#clip64_5600)"
     id="g1"
     transform="matrix(1.2312395,0,0,1.2312445,-2.7688562,-2.7687611)">
    <path
       style="color:#000000;fill:#000000;stroke-linejoin:round;-inkscape-stroke:none"
       d="m 19.910156,2.2480469 c -0.211951,0 -0.435721,0.051688 -0.648437,0.1347656 -0.280341,0.099758 -0.502065,0.2598774 -0.63086,0.3886719 a 1.0313531,1.0313531 0 0 0 -0.0059,0.00586 l -0.550781,0.5605468 a 1.0313531,1.0313531 0 0 0 0.0039,1.4472656 l 1.119141,1.1308594 a 1.0313531,1.0313531 0 0 0 1.46289,0.00391 L 21.21875,5.359375 c 0.348344,-0.3483436 0.523437,-0.7945317 0.523437,-1.2695313 0,-0.4719042 -0.175093,-0.9309532 -0.523437,-1.2792968 l -0.03906,-0.039063 C 21.050604,2.6424006 20.828196,2.4824927 20.546875,2.3828125 20.337011,2.300496 20.123428,2.2480469 19.910156,2.2480469 Z m -3.099609,2.78125 A 1.0313531,1.0313531 0 0 0 16.080078,5.3320312 L 3.3203125,18.111328 a 1.0313531,1.0313531 0 0 0 -0.2246094,0.335938 l -0.7695312,1.86914 A 1.0313531,1.0313531 0 0 0 3.671875,21.664062 L 5.5429687,20.894531 A 1.0313531,1.0313531 0 0 0 5.8789062,20.669922 L 18.658203,7.9101562 a 1.0313531,1.0313531 0 0 0 0.002,-1.4589843 L 17.539062,5.3300781 A 1.0313531,1.0313531 0 0 0 16.810547,5.0292969 Z"
       id="Vector" />
  </g>
</svg>
