<svg width="22.499512" height="19.500000" viewBox="0 0 22.4995 19.5" fill="none" xmlns="http://www.w3.org/2000/svg" xmlns:xlink="http://www.w3.org/1999/xlink">
	<desc>
			Created with Pixso.
	</desc>
	<defs/>
	<path id="Vector" d="M7.99 19.5L6.74 19.5C6.62 19.5 6.5 19.46 6.39 19.4C6.28 19.34 6.18 19.26 6.11 19.15C6.05 19.05 6.01 18.93 6 18.8C5.99 18.68 6.01 18.55 6.06 18.44L9.08 11.77L4.55 11.67L2.89 13.67C2.58 14.07 2.32 14.25 1.68 14.25L0.84 14.25C0.71 14.25 0.58 14.22 0.46 14.16C0.34 14.11 0.23 14.02 0.15 13.91C0.04 13.76 -0.07 13.51 0.04 13.14L0.97 9.82C0.97 9.79 0.98 9.77 0.99 9.74C0.99 9.74 0.99 9.74 0.99 9.74C0.98 9.71 0.97 9.69 0.97 9.66L0.04 6.31C-0.06 5.96 0.05 5.71 0.16 5.56C0.23 5.46 0.33 5.38 0.44 5.33C0.55 5.27 0.67 5.24 0.8 5.25L1.68 5.25C2.16 5.25 2.63 5.46 2.9 5.81L4.52 7.78L9.08 7.71L6.06 1.05C6.01 0.94 5.99 0.82 6 0.69C6.01 0.57 6.05 0.44 6.11 0.34C6.18 0.23 6.28 0.15 6.39 0.09C6.5 0.03 6.62 0 6.74 0L8.01 0C8.18 0 8.35 0.04 8.51 0.12C8.67 0.2 8.81 0.31 8.91 0.45L14.77 7.58L17.48 7.51C17.68 7.5 18.23 7.49 18.36 7.49C20.95 7.5 22.49 8.34 22.49 9.75C22.49 10.19 22.32 11.01 21.13 11.53C20.43 11.84 19.5 12 18.36 12C18.23 12 17.68 12 17.48 11.99L14.77 11.91L8.9 19.04C8.79 19.18 8.65 19.29 8.5 19.37C8.34 19.45 8.17 19.49 7.99 19.5Z" fill="#FFFFFF" fill-opacity="1.000000" fill-rule="nonzero"/>
</svg>
