<svg width="22.000000" height="20.000000" viewBox="0 0 22 20" fill="none" xmlns="http://www.w3.org/2000/svg" xmlns:xlink="http://www.w3.org/1999/xlink">
	<desc>
			Created with Pixso.
	</desc>
	<defs/>
	<path id="Vector" d="M7.81 20L6.59 20C6.47 20 6.35 19.96 6.24 19.9C6.14 19.84 6.04 19.75 5.98 19.64C5.91 19.53 5.87 19.41 5.86 19.28C5.85 19.15 5.88 19.03 5.93 18.91L8.88 12.07L4.45 11.97L2.83 14.02C2.52 14.43 2.27 14.61 1.64 14.61L0.82 14.61C0.69 14.61 0.56 14.59 0.45 14.53C0.33 14.47 0.23 14.38 0.15 14.27C0.04 14.12 -0.07 13.86 0.04 13.48L0.95 10.07C0.95 10.04 0.96 10.02 0.97 9.99C0.97 9.99 0.97 9.99 0.97 9.99C0.96 9.96 0.95 9.93 0.95 9.91L0.04 6.47C-0.06 6.11 0.05 5.85 0.15 5.7C0.23 5.6 0.32 5.52 0.43 5.46C0.54 5.41 0.66 5.38 0.78 5.38L1.64 5.38C2.11 5.38 2.57 5.6 2.84 5.96L4.42 7.98L8.88 7.91L5.93 1.08C5.88 0.96 5.86 0.84 5.86 0.71C5.87 0.58 5.91 0.46 5.98 0.35C6.05 0.24 6.14 0.15 6.24 0.09C6.35 0.03 6.47 0 6.59 0L7.83 0C8 0 8.17 0.04 8.32 0.12C8.48 0.21 8.61 0.32 8.71 0.47L14.45 7.77L17.09 7.7C17.29 7.69 17.83 7.69 17.95 7.69C20.48 7.69 22 8.55 22 10C22 10.45 21.82 11.29 20.66 11.83C19.98 12.15 19.07 12.31 17.95 12.31C17.83 12.31 17.29 12.3 17.09 12.29L14.45 12.22L8.7 19.53C8.6 19.67 8.46 19.79 8.31 19.87C8.16 19.95 7.99 19.99 7.81 20Z" fill="#FFFFFF" fill-opacity="1.000000" fill-rule="nonzero"/>
</svg>
