<svg width="13.000000" height="13.000000" viewBox="0 0 13 13" fill="none" xmlns="http://www.w3.org/2000/svg" xmlns:xlink="http://www.w3.org/1999/xlink">
	<desc>
			Created with Pixso.
	</desc>
	<defs/>
	<path id="Vector" d="M6.5 0C2.91 0 0 2.91 0 6.5C0 10.08 2.91 13 6.5 13C10.08 13 13 10.08 13 6.5C13 2.91 10.08 0 6.5 0ZM9 7L7 7L7 9C7 9.13 6.94 9.25 6.85 9.35C6.75 9.44 6.63 9.5 6.5 9.5C6.36 9.5 6.24 9.44 6.14 9.35C6.05 9.25 6 9.13 6 9L6 7L4 7C3.86 7 3.74 6.94 3.64 6.85C3.55 6.75 3.5 6.63 3.5 6.5C3.5 6.36 3.55 6.24 3.64 6.14C3.74 6.05 3.86 6 4 6L6 6L6 4C6 3.86 6.05 3.74 6.14 3.64C6.24 3.55 6.36 3.5 6.5 3.5C6.63 3.5 6.75 3.55 6.85 3.64C6.94 3.74 7 3.86 7 4L7 6L9 6C9.13 6 9.25 6.05 9.35 6.14C9.44 6.24 9.5 6.36 9.5 6.5C9.5 6.63 9.44 6.75 9.35 6.85C9.25 6.94 9.13 7 9 7Z" fill="#000000" fill-opacity="1.000000" fill-rule="nonzero"/>
</svg>
