<?xml version="1.0" encoding="UTF-8" standalone="no"?>
<svg
   width="16.000000"
   height="16.000000"
   viewBox="0 0 16 16"
   fill="none"
   version="1.1"
   id="svg1"
   sodipodi:docname="plus.svg"
   inkscape:version="1.3.2 (091e20e, 2023-11-25, custom)"
   xmlns:inkscape="http://www.inkscape.org/namespaces/inkscape"
   xmlns:sodipodi="http://sodipodi.sourceforge.net/DTD/sodipodi-0.dtd"
   xmlns="http://www.w3.org/2000/svg"
   xmlns:svg="http://www.w3.org/2000/svg">
  <sodipodi:namedview
     id="namedview1"
     pagecolor="#ffffff"
     bordercolor="#000000"
     borderopacity="0.25"
     inkscape:showpageshadow="2"
     inkscape:pageopacity="0.0"
     inkscape:pagecheckerboard="0"
     inkscape:deskcolor="#d1d1d1"
     inkscape:zoom="17.169437"
     inkscape:cx="24.491194"
     inkscape:cy="17.676759"
     inkscape:window-width="1920"
     inkscape:window-height="991"
     inkscape:window-x="-9"
     inkscape:window-y="-9"
     inkscape:window-maximized="1"
     inkscape:current-layer="svg1" />
  <desc
     id="desc1">
			Created with Pixso.
	</desc>
  <defs
     id="defs1">
    <clipPath
       id="clip339_1178">
      <rect
         id="add-outline"
         width="16.000000"
         height="16.000000"
         fill="white"
         fill-opacity="0" />
    </clipPath>
  </defs>
  <rect
     id="rect1"
     width="16.000000"
     height="16.000000"
     fill="#FFFFFF"
     fill-opacity="0" />
  <g
     clip-path="url(#clip339_1178)"
     id="g1"
     transform="matrix(1.5238095,0,0,1.5238095,-4.1904762,-4.1904762)">
    <path
       id="Vector"
       d="m 8,3.5 v 9 z M 12.5,8 h -9 z M 7.26,3.51 7.25,3.5 C 7.25,3.07 7.58,2.75 8,2.75 8.41,2.75 8.75,3.07 8.75,3.5 L 8.73,3.51 Z m 1.47,8.97 0.02,0.02 c 0,0.42 -0.34,0.75 -0.75,0.75 -0.42,0 -0.75,-0.33 -0.75,-0.75 L 7.26,12.48 Z M 12.48,7.26 12.5,7.25 c 0.41,0 0.75,0.32 0.75,0.75 0,0.42 -0.34,0.75 -0.75,0.75 L 12.48,8.73 Z M 3.51,8.73 3.5,8.75 C 3.08,8.75 2.75,8.42 2.75,8 2.75,7.57 3.08,7.25 3.5,7.25 l 0.01,0.01 z"
       fill="#112211"
       fill-opacity="1"
       fill-rule="nonzero" />
    <path
       style="color:#000000;fill:#112211;stroke-linecap:round;stroke-linejoin:round;-inkscape-stroke:none"
       d="M 8,2.75 A 0.75,0.75 0 0 0 7.25,3.5 V 7.25 H 3.5 A 0.75,0.75 0 0 0 2.75,8 0.75,0.75 0 0 0 3.5,8.75 H 7.25 V 12.5 A 0.75,0.75 0 0 0 8,13.25 0.75,0.75 0 0 0 8.75,12.5 V 8.75 H 12.5 A 0.75,0.75 0 0 0 13.25,8 0.75,0.75 0 0 0 12.5,7.25 H 8.75 V 3.5 A 0.75,0.75 0 0 0 8,2.75 Z"
       id="path1" />
  </g>
</svg>
