<svg width="20.000000" height="19.000000" viewBox="0 0 20 19" fill="none" xmlns="http://www.w3.org/2000/svg" xmlns:xlink="http://www.w3.org/1999/xlink">
	<desc>
			Created with Pixso.
	</desc>
	<defs/>
	<path id="Vector" d="M0 13C1.66 12.25 3.33 11.5 5 11.16L5 3C5 2.2 5.31 1.44 5.87 0.87C6.44 0.31 7.2 0 8 0C9.31 0 10.41 0.83 10.83 2L8 2C7.73 2 7.48 2.1 7.29 2.29C7.1 2.48 7 2.73 7 3L7 4L12 4L12 3C12 2.2 12.31 1.44 12.87 0.87C13.44 0.31 14.2 0 15 0C16.31 0 17.41 0.83 17.83 2L15 2C14.73 2 14.48 2.1 14.29 2.29C14.1 2.48 14 2.73 14 3L14 12.93C16 12.62 18 11 20 11L20 13C17.77 13 15.56 15 13.33 15C11.1 15 8.89 13 6.66 13C4.43 13 2.22 14 0 15L0 13ZM12 6L7 6L7 8L12 8L12 6ZM12 10L7 10L7 11C8.66 11.15 10.33 12.31 12 12.79L12 10ZM0 17C2.22 16 4.43 15 6.66 15C8.89 15 11.1 17 13.33 17C15.56 17 17.77 15 20 15L20 17C17.77 17 15.56 19 13.33 19C11.1 19 8.89 17 6.66 17C4.43 17 2.22 18 0 19L0 17Z" fill="#112211" fill-opacity="1.000000" fill-rule="nonzero"/>
</svg>
