<svg width="18.000000" height="20.000000" viewBox="0 0 18 20" fill="none" xmlns="http://www.w3.org/2000/svg" xmlns:xlink="http://www.w3.org/1999/xlink">
	<desc>
			Created with Pixso.
	</desc>
	<defs/>
	<path id="Vector" d="M13 4L13 10C13 11.1 13.9 12 15 12L16 12L16 19C16 19.54 16.44 20 17 20C17.55 20 18 19.54 18 19L18 1.12C18 0.47 17.39 0 16.75 0.14C14.59 0.67 13 2.51 13 4ZM8 7L6 7L6 1C6 0.44 5.55 0 5 0C4.44 0 4 0.44 4 1L4 7L2 7L2 1C2 0.44 1.55 0 1 0C0.44 0 0 0.44 0 1L0 7C0 9.2 1.78 11 4 11L4 19C4 19.54 4.44 20 5 20C5.55 20 6 19.54 6 19L6 11C8.21 11 10 9.2 10 7L10 1C10 0.44 9.55 0 9 0C8.44 0 8 0.44 8 1L8 7Z" fill="#112211" fill-opacity="1.000000" fill-rule="nonzero"/>
</svg>
