<svg width="19.456055" height="19.455536" viewBox="0 0 19.4561 19.4555" fill="none" xmlns="http://www.w3.org/2000/svg" xmlns:xlink="http://www.w3.org/1999/xlink">
	<desc>
			Created with Pixso.
	</desc>
	<defs/>
	<path id="Vector" d="M19.15 17.5L14.74 13.09C15.8 11.67 16.38 9.95 16.37 8.18C16.37 3.67 12.7 0 8.19 0C3.67 0 0 3.67 0 8.18C0 12.7 3.67 16.37 8.19 16.37C9.95 16.38 11.67 15.8 13.09 14.74L17.5 19.15C17.72 19.35 18.01 19.46 18.31 19.45C18.61 19.44 18.9 19.32 19.11 19.11C19.32 18.9 19.44 18.61 19.45 18.31C19.46 18.01 19.35 17.72 19.15 17.5ZM2.33 8.18C2.33 7.03 2.68 5.9 3.32 4.93C3.96 3.97 4.88 3.22 5.95 2.78C7.02 2.34 8.19 2.22 9.33 2.45C10.46 2.67 11.5 3.23 12.32 4.05C13.14 4.87 13.7 5.91 13.92 7.04C14.15 8.18 14.03 9.35 13.59 10.42C13.15 11.49 12.4 12.41 11.44 13.05C10.47 13.69 9.34 14.04 8.19 14.04C6.63 14.03 5.15 13.42 4.05 12.32C2.95 11.22 2.34 9.74 2.33 8.18Z" fill="#112211" fill-opacity="1.000000" fill-rule="nonzero"/>
	<path id="Vector" d="M14.74 13.09C15.8 11.67 16.38 9.95 16.37 8.18C16.37 3.67 12.7 0 8.19 0C3.67 0 0 3.67 0 8.18C0 12.7 3.67 16.37 8.19 16.37C9.95 16.38 11.67 15.8 13.09 14.74L17.5 19.15C17.72 19.35 18.01 19.46 18.31 19.45C18.61 19.44 18.9 19.32 19.11 19.11C19.32 18.9 19.44 18.61 19.45 18.31C19.46 18.01 19.35 17.72 19.15 17.5L14.74 13.09ZM18.42 18.18L13.42 13.18L13.94 12.49Q14.29 12.02 14.56 11.51Q14.83 11 15.01 10.45Q15.19 9.9 15.28 9.33Q15.38 8.77 15.37 8.19Q15.37 7.38 15.2 6.61Q15.06 5.99 14.81 5.39Q14.56 4.8 14.21 4.27Q13.81 3.64 13.27 3.1Q12.73 2.56 12.1 2.16Q11.57 1.81 10.98 1.56Q10.38 1.3 9.75 1.16Q8.98 1 8.19 1Q7.39 1 6.62 1.16Q5.99 1.3 5.39 1.56Q4.8 1.81 4.27 2.16Q3.64 2.56 3.1 3.1Q2.56 3.64 2.16 4.27Q1.81 4.8 1.56 5.39Q1.3 5.99 1.16 6.62Q1 7.39 1 8.18Q1 8.98 1.16 9.75Q1.3 10.38 1.56 10.98Q1.81 11.57 2.16 12.1Q2.56 12.73 3.1 13.27Q3.64 13.81 4.27 14.21Q4.8 14.56 5.39 14.81Q5.99 15.07 6.62 15.21Q7.39 15.38 8.19 15.38Q8.78 15.38 9.35 15.28Q9.91 15.19 10.45 15.01Q11 14.82 11.51 14.56Q12.02 14.29 12.49 13.94L13.18 13.42L18.18 18.42Q18.2 18.43 18.22 18.44Q18.25 18.45 18.28 18.45Q18.32 18.45 18.35 18.44Q18.38 18.42 18.4 18.4Q18.42 18.38 18.44 18.35Q18.45 18.32 18.45 18.28Q18.45 18.25 18.44 18.22Q18.43 18.2 18.42 18.18ZM3.11 3.58Q2.77 3.96 2.49 4.38Q2.21 4.8 1.99 5.26Q1.78 5.71 1.63 6.2Q1.49 6.67 1.41 7.15Q1.33 7.66 1.33 8.19Q1.34 8.87 1.47 9.52Q1.6 10.18 1.86 10.81Q2.12 11.43 2.49 11.99Q2.86 12.55 3.34 13.03Q3.83 13.51 4.38 13.88Q4.94 14.25 5.56 14.51Q6.19 14.77 6.83 14.9Q7.5 15.03 8.19 15.04Q8.69 15.04 9.19 14.96Q9.69 14.89 10.17 14.74Q10.66 14.59 11.11 14.38Q11.57 14.16 11.99 13.88Q12.41 13.6 12.79 13.26Q13.16 12.92 13.48 12.53Q13.8 12.14 14.06 11.71Q14.32 11.28 14.51 10.81Q14.71 10.34 14.83 9.85Q14.95 9.36 15 8.86Q15.05 8.35 15.03 7.85Q15 7.35 14.9 6.85Q14.8 6.35 14.63 5.88Q14.47 5.4 14.23 4.96Q13.99 4.51 13.69 4.1Q13.39 3.7 13.03 3.34Q12.67 2.98 12.27 2.68Q11.86 2.38 11.41 2.14Q10.97 1.9 10.49 1.74Q10.02 1.57 9.52 1.47Q9.02 1.37 8.52 1.34Q8.02 1.32 7.51 1.37Q7.01 1.42 6.52 1.54Q6.03 1.66 5.56 1.86Q5.09 2.05 4.66 2.31Q4.23 2.57 3.84 2.89Q3.45 3.21 3.11 3.58ZM2.33 8.18C2.33 7.03 2.68 5.9 3.32 4.93C3.96 3.97 4.88 3.22 5.95 2.78C7.02 2.34 8.19 2.22 9.33 2.45C10.46 2.67 11.5 3.23 12.32 4.05C13.14 4.87 13.7 5.91 13.92 7.04C14.15 8.18 14.03 9.35 13.59 10.42C13.15 11.49 12.4 12.41 11.44 13.05C10.47 13.69 9.34 14.04 8.19 14.04C6.63 14.03 5.15 13.42 4.05 12.32C2.95 11.22 2.34 9.74 2.33 8.18Z" fill="#112211" fill-opacity="1.000000" fill-rule="evenodd"/>
</svg>
