<?xml version="1.0" encoding="UTF-8" standalone="no"?>
<svg
   width="19.451"
   height="19.451"
   viewBox="0 0 19.451 19.451"
   fill="none"
   version="1.1"
   id="svg1"
   sodipodi:docname="search.svg"
   inkscape:version="1.3.2 (091e20e, 2023-11-25, custom)"
   xmlns:inkscape="http://www.inkscape.org/namespaces/inkscape"
   xmlns:sodipodi="http://sodipodi.sourceforge.net/DTD/sodipodi-0.dtd"
   xmlns="http://www.w3.org/2000/svg"
   xmlns:svg="http://www.w3.org/2000/svg">
  <sodipodi:namedview
     id="namedview1"
     pagecolor="#ffffff"
     bordercolor="#000000"
     borderopacity="0.25"
     inkscape:showpageshadow="2"
     inkscape:pageopacity="0.0"
     inkscape:pagecheckerboard="0"
     inkscape:deskcolor="#d1d1d1"
     inkscape:zoom="32.375"
     inkscape:cx="12"
     inkscape:cy="12"
     inkscape:window-width="1920"
     inkscape:window-height="991"
     inkscape:window-x="-9"
     inkscape:window-y="-9"
     inkscape:window-maximized="1"
     inkscape:current-layer="svg1" />
  <desc
     id="desc1">
			Created with Pixso.
	</desc>
  <defs
     id="defs1">
    <clipPath
       id="clip339_1068">
      <rect
         id="Fill=True"
         width="24"
         height="24"
         fill="#ffffff"
         fill-opacity="0"
         x="0"
         y="0" />
    </clipPath>
  </defs>
  <rect
     id="rect1"
     width="24"
     height="24"
     fill="#ffffff"
     fill-opacity="0"
     x="0"
     y="0" />
  <g
     clip-path="url(#clip339_1068)"
     id="g1"
     transform="translate(-2.25,-2.25)">
    <path
       id="Vector"
       d="m 21.4,19.75 -4.41,-4.41 c 1.06,-1.42 1.64,-3.14 1.63,-4.9 0,-4.52 -3.67,-8.19 -8.18,-8.19 -4.52,0 -8.19,3.67 -8.19,8.19 0,4.51 3.67,8.18 8.19,8.18 1.76,0.01 3.48,-0.57 4.9,-1.63 l 4.41,4.41 c 0.22,0.2 0.51,0.31 0.81,0.3 0.3,-0.01 0.59,-0.13 0.8,-0.34 0.21,-0.21 0.33,-0.5 0.34,-0.8 0.01,-0.3 -0.1,-0.59 -0.3,-0.81 z M 4.58,10.44 C 4.58,9.28 4.93,8.15 5.57,7.18 6.21,6.22 7.13,5.47 8.2,5.03 9.27,4.59 10.44,4.47 11.58,4.7 c 1.13,0.22 2.17,0.78 2.99,1.6 0.82,0.82 1.38,1.86 1.6,2.99 0.23,1.14 0.11,2.31 -0.33,3.38 -0.44,1.07 -1.19,1.99 -2.15,2.63 -0.97,0.64 -2.1,0.99 -3.25,0.99 C 8.88,16.28 7.4,15.67 6.3,14.57 5.2,13.47 4.59,11.99 4.58,10.44 Z"
       fill="#112211"
       fill-opacity="1"
       fill-rule="nonzero" />
    <path
       id="path1"
       d="m 16.99,15.34 c 1.06,-1.42 1.64,-3.14 1.63,-4.9 0,-4.52 -3.67,-8.19 -8.18,-8.19 -4.52,0 -8.19,3.67 -8.19,8.19 0,4.51 3.67,8.18 8.19,8.18 1.76,0.01 3.48,-0.57 4.9,-1.63 l 4.41,4.41 c 0.22,0.2 0.51,0.31 0.81,0.3 0.3,-0.01 0.59,-0.13 0.8,-0.34 0.21,-0.21 0.33,-0.5 0.34,-0.8 0.01,-0.3 -0.1,-0.59 -0.3,-0.81 z m 3.68,5.09 -5,-5 0.52,-0.69 q 0.35,-0.47 0.62,-0.98 0.27,-0.51 0.45,-1.06 0.18,-0.55 0.27,-1.12 0.1,-0.56 0.09,-1.14 0,-0.81 -0.17,-1.58 Q 17.31,8.24 17.06,7.64 16.81,7.05 16.46,6.52 16.06,5.89 15.52,5.35 14.98,4.81 14.35,4.41 13.82,4.06 13.23,3.81 12.63,3.55 12,3.41 11.23,3.25 10.44,3.25 9.64,3.25 8.87,3.41 8.24,3.55 7.64,3.81 7.05,4.06 6.52,4.41 5.89,4.81 5.35,5.35 4.81,5.89 4.41,6.52 4.06,7.05 3.81,7.64 3.55,8.24 3.41,8.87 3.25,9.64 3.25,10.44 q 0,0.79 0.16,1.56 0.14,0.63 0.4,1.23 0.25,0.59 0.6,1.12 0.4,0.63 0.94,1.17 0.54,0.54 1.17,0.94 0.53,0.35 1.12,0.6 0.6,0.26 1.23,0.4 0.77,0.16 1.57,0.16 0.59,0.01 1.16,-0.09 0.56,-0.09 1.1,-0.27 0.55,-0.19 1.06,-0.45 0.51,-0.27 0.98,-0.62 l 0.69,-0.52 5,5 q 0.02,0.01 0.04,0.02 0.03,0.01 0.06,0.01 0.04,0 0.07,-0.01 0.03,-0.02 0.05,-0.04 0.02,-0.02 0.04,-0.05 0.01,-0.03 0.01,-0.07 0,-0.03 -0.01,-0.06 -0.01,-0.02 -0.02,-0.04 z M 5.36,5.83 Q 5.02,6.21 4.74,6.63 4.46,7.05 4.24,7.51 4.03,7.96 3.88,8.45 3.74,8.92 3.66,9.4 3.58,9.91 3.58,10.44 q 0.01,0.68 0.14,1.33 0.13,0.66 0.39,1.29 0.26,0.62 0.63,1.18 0.37,0.56 0.85,1.04 0.49,0.48 1.04,0.85 0.56,0.37 1.18,0.63 0.63,0.26 1.27,0.39 0.67,0.13 1.36,0.14 0.5,0 1,-0.08 0.5,-0.07 0.98,-0.22 0.49,-0.15 0.94,-0.36 0.46,-0.22 0.88,-0.5 0.42,-0.28 0.8,-0.62 0.37,-0.34 0.69,-0.73 0.32,-0.39 0.58,-0.82 0.26,-0.43 0.45,-0.9 0.2,-0.47 0.32,-0.96 0.12,-0.49 0.17,-0.99 Q 17.3,10.6 17.28,10.1 17.25,9.6 17.15,9.1 17.05,8.6 16.88,8.13 16.72,7.65 16.48,7.21 16.24,6.76 15.94,6.35 15.64,5.95 15.28,5.59 14.92,5.23 14.52,4.93 14.11,4.63 13.66,4.39 13.22,4.15 12.74,3.99 12.27,3.82 11.77,3.72 11.27,3.62 10.77,3.59 10.27,3.57 9.76,3.62 9.26,3.67 8.77,3.79 8.28,3.91 7.81,4.11 7.34,4.3 6.91,4.56 6.48,4.82 6.09,5.14 5.7,5.46 5.36,5.83 Z M 4.58,10.44 C 4.58,9.28 4.93,8.15 5.57,7.18 6.21,6.22 7.13,5.47 8.2,5.03 9.27,4.59 10.44,4.47 11.58,4.7 c 1.13,0.22 2.17,0.78 2.99,1.6 0.82,0.82 1.38,1.86 1.6,2.99 0.23,1.14 0.11,2.31 -0.33,3.38 -0.44,1.07 -1.19,1.99 -2.15,2.63 -0.97,0.64 -2.1,0.99 -3.25,0.99 C 8.88,16.28 7.4,15.67 6.3,14.57 5.2,13.47 4.59,11.99 4.58,10.44 Z"
       fill="#112211"
       fill-opacity="1"
       fill-rule="evenodd" />
  </g>
</svg>
