<svg width="15.580078" height="19.077515" viewBox="0 0 15.5801 19.0775" fill="none" xmlns="http://www.w3.org/2000/svg" xmlns:xlink="http://www.w3.org/1999/xlink">
	<desc>
			Created with Pixso.
	</desc>
	<defs/>
	<path id="Vector" d="M3.58 3.41C2.8 2.63 2.8 1.36 3.58 0.58C4.37 -0.2 5.63 -0.2 6.41 0.58C7.2 1.36 7.2 2.63 6.41 3.41C5.62 4.2 4.37 4.2 3.58 3.41ZM2 14L2 6C2 5.45 1.54 5 1 5C0.45 5 0 5.45 0 6L0 14C0 16.76 2.24 19 5 19L10 19C10.54 19 11 18.55 11 18C11 17.45 10.54 17 10 17L5 17C3.33 17 2 15.66 2 14ZM15.28 17.35L11.5 13.58C11.13 13.21 10.62 13 10.09 13L7.5 13L7.5 9.32C8.58 10.21 10.16 11.02 11.7 11.34C12.37 11.48 13 10.98 13 10.3C13 9.77 12.61 9.34 12.08 9.25C10.66 9.01 9.2 8.24 8.33 7.28L6.92 5.73C6.74 5.52 6.5 5.35 6.24 5.23C5.95 5.09 5.62 5 5.28 5L5.25 5C4 5 3 6.01 3 7.25L3 13C3 14.66 4.33 16 6 16L11.07 16L13.84 18.78C14.24 19.17 14.88 19.17 15.28 18.78C15.67 18.39 15.67 17.75 15.28 17.35Z" fill="#112211" fill-opacity="1.000000" fill-rule="nonzero"/>
</svg>
