<svg width="13.999512" height="13.999298" viewBox="0 0 13.9995 13.9993" fill="none" xmlns="http://www.w3.org/2000/svg" xmlns:xlink="http://www.w3.org/1999/xlink">
	<desc>
			Created with Pixso.
	</desc>
	<defs/>
	<path id="Vector" d="M13.78 0.21C13.67 0.11 13.54 0.04 13.4 0.01C13.26 -0.02 13.11 -0.01 12.98 0.04L0.48 4.78L0.48 4.78C0.33 4.83 0.21 4.93 0.12 5.06C0.04 5.19 -0.01 5.34 0 5.49C0 5.65 0.05 5.8 0.14 5.92C0.23 6.04 0.36 6.14 0.51 6.19L0.52 6.19L4.81 8.02C4.89 8.05 4.98 8.05 5.07 8.03C5.15 8.01 5.23 7.97 5.3 7.91L12.18 1.49C12.2 1.47 12.23 1.46 12.25 1.45C12.28 1.44 12.31 1.43 12.34 1.43C12.37 1.43 12.4 1.44 12.42 1.45C12.45 1.46 12.47 1.47 12.5 1.49C12.52 1.51 12.53 1.54 12.54 1.57C12.55 1.59 12.56 1.62 12.56 1.65C12.56 1.68 12.55 1.71 12.54 1.74C12.53 1.76 12.52 1.79 12.5 1.81L6.08 8.69C6.02 8.75 5.98 8.83 5.96 8.92C5.94 9 5.94 9.09 5.97 9.18L7.8 13.47C7.8 13.47 7.8 13.48 7.8 13.49C7.9 13.78 8.16 13.98 8.46 13.99L8.5 13.99C8.65 14 8.8 13.95 8.93 13.86C9.06 13.78 9.16 13.65 9.21 13.51L13.94 1.01C14 0.88 14.01 0.73 13.98 0.59C13.95 0.45 13.88 0.32 13.78 0.21Z" fill="#000000" fill-opacity="1.000000" fill-rule="nonzero"/>
	<path id="Vector" d="" fill="#112211" fill-opacity="1.000000" fill-rule="evenodd"/>
</svg>
