<svg width="15.001953" height="16.241875" viewBox="0 0 15.002 16.2419" fill="none" xmlns="http://www.w3.org/2000/svg" xmlns:xlink="http://www.w3.org/1999/xlink">
	<desc>
			Created with Pixso.
	</desc>
	<defs/>
	<path id="Vector" d="M12.5 11.24C12.16 11.24 11.83 11.3 11.52 11.44C11.21 11.57 10.93 11.76 10.7 12.01L4.91 8.75C5.03 8.33 5.03 7.89 4.91 7.47L10.7 4.22C11.12 4.65 11.68 4.92 12.29 4.97C12.89 5.02 13.49 4.85 13.98 4.49C14.46 4.12 14.8 3.6 14.93 3C15.05 2.41 14.96 1.79 14.66 1.26C14.36 0.73 13.88 0.33 13.31 0.13C12.74 -0.07 12.11 -0.05 11.55 0.18C10.99 0.41 10.53 0.83 10.26 1.38C9.99 1.92 9.92 2.54 10.08 3.13L4.3 6.38C3.95 6.02 3.51 5.77 3.02 5.67C2.53 5.56 2.03 5.61 1.56 5.79C1.1 5.98 0.7 6.3 0.42 6.71C0.14 7.13 0 7.61 0 8.11C0 8.61 0.14 9.1 0.42 9.51C0.7 9.92 1.1 10.25 1.56 10.43C2.03 10.62 2.53 10.66 3.02 10.56C3.51 10.45 3.95 10.2 4.3 9.84L10.08 13.1C9.95 13.6 9.97 14.13 10.16 14.62C10.34 15.11 10.68 15.53 11.11 15.82C11.55 16.11 12.06 16.25 12.58 16.24C13.1 16.22 13.61 16.04 14.02 15.72C14.43 15.4 14.74 14.96 14.89 14.46C15.04 13.96 15.03 13.43 14.86 12.93C14.7 12.44 14.38 12.01 13.95 11.7C13.53 11.4 13.02 11.24 12.5 11.24Z" fill="#000000" fill-opacity="1.000000" fill-rule="nonzero"/>
	<path id="Vector" d="" fill="#112211" fill-opacity="1.000000" fill-rule="evenodd"/>
</svg>
