<?xml version="1.0" encoding="UTF-8" standalone="no"?>
<svg
   width="22.500999"
   height="15"
   viewBox="0 0 22.500999 15"
   fill="none"
   version="1.1"
   id="svg1"
   sodipodi:docname="show.svg"
   inkscape:version="1.3.2 (091e20e, 2023-11-25, custom)"
   xmlns:inkscape="http://www.inkscape.org/namespaces/inkscape"
   xmlns:sodipodi="http://sodipodi.sourceforge.net/DTD/sodipodi-0.dtd"
   xmlns="http://www.w3.org/2000/svg"
   xmlns:svg="http://www.w3.org/2000/svg">
  <sodipodi:namedview
     id="namedview1"
     pagecolor="#ffffff"
     bordercolor="#000000"
     borderopacity="0.25"
     inkscape:showpageshadow="2"
     inkscape:pageopacity="0.0"
     inkscape:pagecheckerboard="0"
     inkscape:deskcolor="#d1d1d1"
     inkscape:zoom="32.375"
     inkscape:cx="12"
     inkscape:cy="9.5289575"
     inkscape:window-width="1920"
     inkscape:window-height="991"
     inkscape:window-x="-9"
     inkscape:window-y="-9"
     inkscape:window-maximized="1"
     inkscape:current-layer="svg1" />
  <desc
     id="desc1">
			Created with Pixso.
	</desc>
  <defs
     id="defs1">
    <clipPath
       id="clip339_1326">
      <rect
         id="Fill=True"
         width="24"
         height="24"
         fill="#ffffff"
         fill-opacity="0"
         x="0"
         y="0" />
    </clipPath>
  </defs>
  <rect
     id="rect1"
     width="24"
     height="24"
     fill="#ffffff"
     fill-opacity="0"
     x="0"
     y="0" />
  <g
     clip-path="url(#clip339_1326)"
     id="g1"
     transform="translate(-0.74916494,-4.5)">
    <path
       id="Vector"
       d="m 15,12 c 0,1.65 -1.35,3 -3,3 -1.66,0 -3,-1.35 -3,-3 0,-1.66 1.34,-3 3,-3 1.65,0 3,1.34 3,3 z"
       fill="#000000"
       fill-opacity="1"
       fill-rule="evenodd" />
    <path
       id="path1"
       d="M 23,11.18 C 21.76,9.26 20.16,7.63 18.35,6.47 16.35,5.18 14.15,4.5 11.98,4.5 9.99,4.5 8.03,5.06 6.16,6.19 4.25,7.33 2.52,9.01 1.01,11.16 0.84,11.4 0.75,11.69 0.75,11.99 c -0.01,0.29 0.07,0.59 0.23,0.84 1.24,1.93 2.84,3.56 4.61,4.71 2,1.3 4.15,1.96 6.39,1.96 2.19,0 4.4,-0.68 6.38,-1.96 1.81,-1.16 3.41,-2.8 4.65,-4.73 0.15,-0.24 0.24,-0.53 0.24,-0.82 0,-0.29 -0.09,-0.57 -0.25,-0.81 z M 12,16.5 C 11.11,16.5 10.24,16.23 9.5,15.74 8.76,15.24 8.18,14.54 7.84,13.72 7.5,12.89 7.41,11.99 7.58,11.12 7.76,10.24 8.18,9.44 8.81,8.81 9.44,8.18 10.25,7.76 11.12,7.58 c 0.87,-0.17 1.78,-0.08 2.6,0.26 0.82,0.34 1.52,0.91 2.02,1.65 0.49,0.75 0.76,1.62 0.76,2.51 0,1.19 -0.48,2.33 -1.32,3.18 -0.85,0.84 -1.99,1.31 -3.18,1.32 z"
       fill="#000000"
       fill-opacity="1"
       fill-rule="nonzero" />
  </g>
</svg>
