<svg width="19.908203" height="19.376953" viewBox="0 0 19.9082 19.377" fill="none" xmlns="http://www.w3.org/2000/svg" xmlns:xlink="http://www.w3.org/1999/xlink">
	<desc>
			Created with Pixso.
	</desc>
	<defs/>
	<path id="Vector" d="M10.93 18.28C10.96 18.6 10.86 18.87 10.61 19.1C10.37 19.32 10.1 19.41 9.8 19.36C6.9 18.92 4.6 17.8 2.9 16C1.2 14.19 0.24 11.73 0 8.61C-0.03 8.28 0.06 8 0.29 7.77C0.51 7.55 0.79 7.46 1.13 7.51C4.18 7.92 6.53 9.1 8.18 11.03C9.83 12.97 10.74 15.38 10.93 18.28ZM9.15 0.41C9.35 0.12 9.61 -0.01 9.94 0C10.26 0 10.53 0.15 10.73 0.43C11.48 1.48 12.13 2.63 12.69 3.88C13.25 5.13 13.58 6.18 13.7 7.03C13.05 7.33 12.33 7.82 11.53 8.5C10.73 9.17 10.2 9.69 9.95 10.06C9.72 9.69 9.18 9.15 8.34 8.45C7.5 7.74 6.78 7.27 6.2 7.03C6.33 6.2 6.67 5.15 7.21 3.87C7.76 2.6 8.4 1.44 9.15 0.41ZM18.8 7.51C19.12 7.47 19.39 7.56 19.6 7.77C19.82 7.98 19.92 8.25 19.9 8.58C19.77 11.27 19.04 13.45 17.71 15.12C16.39 16.8 14.78 17.97 12.9 18.63C12.87 17.62 12.71 16.46 12.44 15.17C12.16 13.88 11.74 12.77 11.15 11.83C11.87 10.73 12.93 9.78 14.34 8.98C15.75 8.18 17.24 7.69 18.8 7.51Z" fill="#112211" fill-opacity="1.000000" fill-rule="nonzero"/>
</svg>
