<svg width="32.000000" height="31.999817" viewBox="0 0 32 31.9998" fill="none" xmlns="http://www.w3.org/2000/svg" xmlns:xlink="http://www.w3.org/1999/xlink">
	<desc>
			Created with Pixso.
	</desc>
	<defs/>
	<path id="Vector" d="M13 31.99C12.68 32 12.37 31.9 12.11 31.72C11.85 31.54 11.65 31.29 11.54 30.99L9.05 24.52C9 24.39 8.92 24.27 8.82 24.17C8.72 24.07 8.6 24 8.47 23.95L2 21.45C1.7 21.34 1.45 21.14 1.27 20.88C1.09 20.62 0.99 20.31 0.99 19.99C0.99 19.68 1.09 19.37 1.27 19.11C1.45 18.85 1.7 18.65 2 18.54L8.47 16.05C8.6 16 8.72 15.92 8.82 15.82C8.92 15.72 8.99 15.6 9.04 15.47L11.54 8.99C11.65 8.7 11.85 8.45 12.11 8.27C12.37 8.09 12.68 7.99 13 7.99C13.31 7.99 13.62 8.09 13.88 8.27C14.14 8.45 14.34 8.7 14.45 8.99L16.94 15.47C17 15.6 17.07 15.72 17.17 15.82C17.27 15.92 17.39 15.99 17.52 16.04L23.96 18.52C24.26 18.63 24.53 18.84 24.71 19.11C24.9 19.38 25 19.7 25 20.03C24.99 20.34 24.89 20.64 24.71 20.89C24.54 21.15 24.29 21.34 24 21.45L17.52 23.94C17.39 23.99 17.27 24.07 17.17 24.17C17.07 24.27 17 24.39 16.95 24.52L14.45 30.99C14.34 31.29 14.14 31.54 13.88 31.72C13.62 31.9 13.31 32 13 31.99ZM5.5 10.99C5.31 10.99 5.13 10.94 4.98 10.83C4.82 10.73 4.71 10.58 4.64 10.41L3.58 7.67C3.56 7.61 3.53 7.55 3.48 7.51C3.44 7.46 3.38 7.43 3.32 7.4L0.58 6.35C0.41 6.28 0.26 6.17 0.16 6.01C0.05 5.86 0 5.68 0 5.49C0 5.31 0.05 5.13 0.16 4.98C0.26 4.82 0.41 4.71 0.58 4.64L3.32 3.59C3.38 3.56 3.44 3.53 3.48 3.48C3.53 3.44 3.56 3.38 3.58 3.32L4.63 0.61C4.69 0.45 4.79 0.31 4.92 0.2C5.06 0.09 5.22 0.02 5.38 0C5.59 -0.02 5.79 0.02 5.97 0.13C6.14 0.23 6.28 0.39 6.35 0.58L7.41 3.32C7.43 3.38 7.46 3.44 7.51 3.48C7.55 3.53 7.61 3.56 7.67 3.59L10.41 4.64C10.58 4.71 10.73 4.82 10.83 4.98C10.94 5.13 11 5.31 11 5.49C11 5.68 10.94 5.86 10.83 6.01C10.73 6.17 10.58 6.28 10.41 6.35L7.67 7.4C7.61 7.43 7.55 7.46 7.51 7.51C7.46 7.55 7.43 7.61 7.41 7.67L6.35 10.41C6.28 10.58 6.17 10.73 6.01 10.83C5.86 10.94 5.68 10.99 5.5 10.99ZM25 15.99C24.79 15.99 24.59 15.93 24.43 15.82C24.26 15.7 24.13 15.54 24.06 15.35L22.63 11.64C22.61 11.58 22.57 11.52 22.52 11.47C22.47 11.42 22.41 11.38 22.35 11.36L18.64 9.93C18.45 9.86 18.29 9.73 18.17 9.56C18.06 9.39 18 9.2 18 8.99C18 8.79 18.06 8.6 18.17 8.43C18.29 8.26 18.45 8.13 18.64 8.06L22.35 6.63C22.41 6.61 22.47 6.57 22.52 6.52C22.57 6.47 22.61 6.41 22.63 6.35L24.05 2.66C24.12 2.49 24.23 2.33 24.37 2.22C24.52 2.1 24.69 2.03 24.87 2C25.09 1.97 25.32 2.02 25.51 2.14C25.7 2.25 25.85 2.43 25.93 2.64L27.36 6.35C27.38 6.41 27.42 6.47 27.47 6.52C27.52 6.57 27.58 6.61 27.64 6.63L31.35 8.06C31.54 8.13 31.7 8.26 31.82 8.43C31.93 8.6 32 8.79 32 8.99C32 9.2 31.93 9.39 31.82 9.56C31.7 9.73 31.54 9.86 31.35 9.93L27.64 11.36C27.58 11.38 27.52 11.42 27.47 11.47C27.42 11.52 27.38 11.58 27.36 11.64L25.93 15.35C25.86 15.54 25.73 15.7 25.56 15.82C25.39 15.93 25.2 15.99 25 15.99Z" fill="#000000" fill-opacity="1.000000" fill-rule="nonzero"/>
</svg>
