<svg width="16.500000" height="16.500000" viewBox="0 0 16.5 16.5" fill="none" xmlns="http://www.w3.org/2000/svg" xmlns:xlink="http://www.w3.org/1999/xlink">
	<desc>
			Created with Pixso.
	</desc>
	<defs/>
	<path id="Vector" d="M8.25 0C3.69 0 0 3.69 0 8.25C0 12.8 3.69 16.5 8.25 16.5C12.8 16.5 16.5 12.8 16.5 8.25C16.5 3.69 12.8 0 8.25 0ZM12.05 9.51L8.25 9.51C8.08 9.51 7.91 9.45 7.8 9.33C7.68 9.21 7.61 9.05 7.61 8.88L7.61 3.17C7.61 3 7.68 2.84 7.8 2.72C7.91 2.6 8.08 2.53 8.25 2.53C8.41 2.53 8.58 2.6 8.69 2.72C8.81 2.84 8.88 3 8.88 3.17L8.88 8.25L12.05 8.25C12.22 8.25 12.38 8.31 12.5 8.43C12.62 8.55 12.69 8.71 12.69 8.88C12.69 9.05 12.62 9.21 12.5 9.33C12.38 9.45 12.22 9.51 12.05 9.51Z" fill="#8DD3BB" fill-opacity="1.000000" fill-rule="nonzero"/>
</svg>
