<svg width="18.921875" height="15.382080" viewBox="0 0 18.9219 15.3821" fill="none" xmlns="http://www.w3.org/2000/svg" xmlns:xlink="http://www.w3.org/1999/xlink">
	<desc>
			Created with Pixso.
	</desc>
	<defs/>
	<path id="Vector" d="M18.92 1.82C18.22 2.13 17.47 2.34 16.69 2.43C17.5 1.95 18.1 1.18 18.39 0.28C17.63 0.73 16.8 1.05 15.93 1.22C15.34 0.6 14.57 0.19 13.73 0.05C12.88 -0.09 12.02 0.05 11.26 0.45C10.51 0.86 9.91 1.5 9.56 2.28C9.2 3.06 9.12 3.93 9.31 4.77C7.77 4.69 6.26 4.29 4.88 3.59C3.5 2.89 2.29 1.91 1.31 0.71C0.98 1.28 0.79 1.95 0.79 2.66C0.79 3.3 0.94 3.93 1.25 4.49C1.55 5.06 1.98 5.54 2.51 5.89C1.9 5.87 1.29 5.71 0.76 5.41L0.76 5.46C0.76 6.35 1.07 7.22 1.63 7.92C2.2 8.61 2.99 9.09 3.87 9.26C3.3 9.42 2.7 9.44 2.12 9.33C2.36 10.1 2.85 10.78 3.5 11.26C4.15 11.74 4.93 12.01 5.74 12.02C4.37 13.1 2.67 13.69 0.92 13.69C0.61 13.69 0.3 13.67 0 13.63C1.77 14.77 3.84 15.38 5.95 15.38C13.09 15.38 16.99 9.46 16.99 4.33C16.99 4.17 16.99 4 16.98 3.83C17.74 3.28 18.39 2.6 18.91 1.82L18.92 1.82Z" fill="#112211" fill-opacity="1.000000" fill-rule="nonzero"/>
</svg>
