<svg width="22.501953" height="17.986450" viewBox="0 0 22.502 17.9865" fill="none" xmlns="http://www.w3.org/2000/svg" xmlns:xlink="http://www.w3.org/1999/xlink">
	<desc>
			Created with Pixso.
	</desc>
	<defs/>
	<path id="Vector" d="M19.5 17.98C19.4 17.98 19.3 17.96 19.21 17.92C19.12 17.89 19.03 17.83 18.97 17.76L2.47 1.26C2.33 1.12 2.26 0.93 2.26 0.74C2.26 0.54 2.34 0.35 2.48 0.21C2.62 0.08 2.8 0 3 6.1e-5C3.19 -0.01 3.38 0.07 3.52 0.2L20.02 16.7C20.13 16.81 20.2 16.94 20.23 17.09C20.26 17.23 20.25 17.38 20.19 17.52C20.13 17.66 20.03 17.77 19.91 17.85C19.79 17.94 19.64 17.98 19.5 17.98ZM10.87 11.79L8.44 9.36C8.43 9.35 8.41 9.34 8.39 9.33C8.37 9.33 8.35 9.33 8.33 9.34C8.32 9.35 8.3 9.36 8.29 9.38C8.28 9.4 8.28 9.42 8.28 9.44C8.38 10.07 8.68 10.65 9.13 11.1C9.58 11.55 10.16 11.85 10.79 11.95C10.81 11.95 10.83 11.94 10.85 11.94C10.86 11.93 10.88 11.91 10.89 11.89C10.9 11.88 10.9 11.86 10.9 11.84C10.89 11.82 10.88 11.8 10.87 11.79ZM11.62 6.18L14.05 8.61C14.07 8.62 14.08 8.63 14.1 8.63C14.12 8.64 14.14 8.63 14.16 8.62C14.18 8.62 14.19 8.6 14.2 8.58C14.21 8.57 14.21 8.55 14.21 8.53C14.11 7.9 13.82 7.31 13.37 6.86C12.91 6.41 12.33 6.11 11.7 6.02C11.68 6.01 11.66 6.02 11.64 6.03C11.63 6.04 11.61 6.05 11.6 6.07C11.59 6.08 11.59 6.1 11.59 6.12C11.6 6.14 11.61 6.16 11.62 6.18Z" fill="#000000" fill-opacity="1.000000" fill-rule="nonzero"/>
	<path id="Vector" d="M22.26 9.8C22.41 9.55 22.5 9.27 22.5 8.98C22.5 8.69 22.41 8.41 22.26 8.17C21.02 6.25 19.41 4.62 17.6 3.45C15.6 2.16 13.4 1.48 11.23 1.48C10.08 1.48 8.95 1.67 7.86 2.03C7.83 2.04 7.81 2.06 7.78 2.09C7.76 2.11 7.75 2.14 7.74 2.17C7.73 2.2 7.73 2.23 7.74 2.26C7.75 2.29 7.77 2.32 7.79 2.34L10 4.56C10.03 4.58 10.06 4.6 10.09 4.61C10.12 4.62 10.15 4.62 10.18 4.61C10.93 4.43 11.72 4.44 12.46 4.65C13.21 4.86 13.89 5.25 14.43 5.8C14.98 6.34 15.37 7.02 15.58 7.77C15.79 8.51 15.8 9.3 15.62 10.05C15.61 10.08 15.61 10.11 15.62 10.14C15.63 10.17 15.65 10.2 15.67 10.22L18.86 13.41C18.89 13.45 18.93 13.46 18.98 13.47C19.03 13.47 19.07 13.45 19.11 13.42C20.33 12.38 21.4 11.16 22.26 9.8ZM11.25 13.48C10.56 13.48 9.89 13.33 9.28 13.03C8.67 12.73 8.13 12.3 7.71 11.76C7.29 11.23 6.99 10.6 6.85 9.94C6.7 9.27 6.71 8.58 6.87 7.92C6.88 7.89 6.88 7.86 6.87 7.82C6.86 7.79 6.84 7.77 6.82 7.74L3.69 4.61C3.66 4.57 3.61 4.55 3.57 4.55C3.52 4.55 3.47 4.57 3.44 4.6C2.29 5.57 1.23 6.76 0.26 8.15C0.09 8.39 0 8.68 0 8.97C-0.01 9.27 0.07 9.56 0.23 9.81C1.47 11.75 3.07 13.38 4.84 14.53C6.84 15.83 8.99 16.48 11.23 16.48C12.39 16.48 13.53 16.3 14.64 15.94C14.66 15.93 14.69 15.91 14.72 15.89C14.74 15.87 14.75 15.84 14.76 15.81C14.77 15.77 14.77 15.74 14.76 15.71C14.75 15.68 14.73 15.65 14.71 15.63L12.49 13.4C12.46 13.38 12.43 13.36 12.4 13.36C12.37 13.35 12.34 13.35 12.31 13.35C11.96 13.44 11.6 13.48 11.25 13.48Z" fill="#000000" fill-opacity="1.000000" fill-rule="nonzero"/>
</svg>
