<svg width="19.500977" height="21.000122" viewBox="0 0 19.501 21.0001" fill="none" xmlns="http://www.w3.org/2000/svg" xmlns:xlink="http://www.w3.org/1999/xlink">
	<desc>
			Created with Pixso.
	</desc>
	<defs/>
	<path id="Vector" d="M13.34 1.52C12.43 0.54 11.15 0 9.75 0C8.33 0 7.05 0.53 6.15 1.51C5.23 2.5 4.78 3.85 4.89 5.3C5.09 8.16 7.27 10.5 9.75 10.5C12.22 10.5 14.39 8.16 14.6 5.3C14.71 3.86 14.26 2.52 13.34 1.52ZM18 21L1.5 21C1.28 21 1.07 20.95 0.87 20.86C0.67 20.77 0.5 20.64 0.36 20.47C0.06 20.11 -0.07 19.61 0.02 19.11C0.42 16.91 1.65 15.07 3.6 13.78C5.32 12.63 7.5 12 9.75 12C11.99 12 14.17 12.63 15.9 13.78C17.84 15.07 19.07 16.91 19.47 19.11C19.56 19.61 19.43 20.11 19.13 20.47C18.99 20.64 18.82 20.77 18.62 20.86C18.43 20.95 18.21 21 18 21Z" fill="#112211" fill-opacity="1.000000" fill-rule="nonzero"/>
</svg>
