<svg width="32.000000" height="20.095947" viewBox="0 0 32 20.0959" fill="none" xmlns="http://www.w3.org/2000/svg" xmlns:xlink="http://www.w3.org/1999/xlink">
	<desc>
			Created with Pixso.
	</desc>
	<defs/>
	<path id="Vector" d="M1.28 0C0.57 0 0 0.57 0 1.28L0 18.81C0 19.52 0.57 20.09 1.28 20.09L30.71 20.09C31.42 20.09 32 19.52 32 18.81L32 1.28C32 0.57 31.42 0 30.71 0L1.28 0ZM19.11 5.98C19.89 5.98 20.51 6.16 20.91 6.32L20.64 8.03L20.46 7.94C20.08 7.78 19.61 7.62 18.95 7.63C18.17 7.63 17.8 7.98 17.8 8.31C17.8 8.68 18.23 8.93 18.93 9.29C20.09 9.85 20.62 10.54 20.62 11.44C20.6 13.07 19.23 14.13 17.12 14.13C16.22 14.12 15.35 13.93 14.88 13.71L15.16 11.95L15.42 12.07C16.08 12.37 16.51 12.49 17.31 12.49C17.89 12.49 18.51 12.24 18.51 11.71C18.52 11.37 18.25 11.12 17.47 10.74C16.71 10.36 15.7 9.72 15.71 8.59C15.72 7.06 17.12 5.98 19.11 5.98ZM2.83 6.23L6.07 6.23C6.5 6.25 6.86 6.39 6.98 6.87L7.68 10.47C7.68 10.47 7.68 10.48 7.68 10.48L7.89 11.56L9.86 6.23L11.99 6.23L8.82 14.03L6.69 14.03L5 7.74C6.01 8.28 6.87 8.89 7.36 9.74C7.23 9.47 7.07 9.17 6.85 8.87C6.6 8.52 6.05 8.07 5.83 7.88C5.04 7.21 3.96 6.68 2.8 6.39L2.83 6.23ZM12.83 6.24L14.92 6.24L13.61 14.02L11.53 14.02L12.83 6.24ZM24.6 6.24L26.18 6.24L27.83 14.02L25.94 14.02C25.94 14.02 25.75 13.13 25.69 12.86C25.39 12.86 23.31 12.85 23.07 12.85C22.99 13.06 22.64 14.02 22.64 14.02L20.5 14.02L23.53 6.89C23.75 6.38 24.11 6.24 24.6 6.24ZM24.75 8.34C24.65 8.63 24.47 9.09 24.49 9.07C24.49 9.07 23.84 10.78 23.68 11.23L25.36 11.23C25.2 10.48 25.05 9.74 24.89 9L24.75 8.34L24.75 8.34Z" fill="#000000" fill-opacity="1.000000" fill-rule="nonzero"/>
</svg>
