<svg viewBox="0 0 400 305" xmlns="http://www.w3.org/2000/svg" xmlns:xlink="http://www.w3.org/1999/xlink" width="400.000000" height="305.000000" fill="none">
	<rect id="emojione-v1:open-mailbox-with-lowered-flag" width="400.000000" height="305.000000" x="0.000000" y="0.000000" fill="rgb(255,255,255)" fill-opacity="0" />
	<path id="Vector" d="M157.25 376.763L239.462 376.763C240.137 376.763 240.706 374.956 240.706 372.856L240.706 121.256C240.706 119.144 240.137 117.35 239.462 117.35L157.25 117.35C156.875 117.35 156.6 117.756 156.394 118.4L156.381 118.531C156.381 118.531 156.356 118.544 156.344 118.663C156.094 119.508 155.982 120.388 156.012 121.269L156.012 372.869C156.012 374.956 156.569 376.763 157.25 376.763Z" fill="rgb(223,173,146)" fill-rule="nonzero" />
	<g id="Group">
		<path id="Vector" d="M194.438 376.763L239.994 376.763C240.381 376.763 240.688 374.956 240.688 372.856L240.688 121.256C240.688 119.144 240.375 117.35 239.994 117.35L194.444 117.35C194.238 117.35 194.081 117.756 193.981 118.4L193.969 118.531C193.969 118.531 193.956 118.544 193.944 118.663C193.803 119.524 193.742 120.396 193.763 121.269L193.763 372.869C193.763 374.956 194.063 376.763 194.438 376.763Z" fill="rgb(164,128,109)" fill-rule="nonzero" />
		<path id="Vector" d="M157.25 268.231L239.438 268.231C240.125 268.231 240.694 267.844 240.694 267.388L240.694 212.438C240.694 211.975 240.125 211.575 239.438 211.575L157.238 211.575C156.943 211.567 156.654 211.647 156.406 211.806L156.369 211.831L156.319 211.869C156.223 211.928 156.143 212.011 156.088 212.109C156.032 212.208 156.002 212.318 156 212.431L156 267.381C156 267.85 156.544 268.231 157.238 268.231" fill="rgb(164,128,109)" fill-rule="nonzero" />
	</g>
	<g id="Group">
		<path id="Vector" d="M133.688 47L63.0188 47C28.225 47 0 85.575 0 133.144L0 238.156L70.6688 238.156L70.6688 133.144C70.6688 85.575 98.875 47 133.688 47Z" fill="rgb(124,156,159)" fill-rule="nonzero" />
		<path id="Vector" d="M298.269 47L133.688 47C98.875 47 70.6875 85.575 70.6875 133.144L70.6875 238.156L361.294 238.156L361.294 133.144C361.294 85.575 333.081 47 298.294 47" fill="rgb(17,34,17)" fill-rule="nonzero" />
	</g>
	<path id="Vector" d="M145.313 47L63.0313 47C28.2313 47 0.03125 85.575 0.03125 133.144L0.03125 238.156L208.356 238.156L208.356 133.144C208.356 85.575 180.144 47 145.356 47" fill="rgb(101.298,180.694,153.473)" fill-rule="nonzero" />
	<path id="Vector" d="M399.394 154.987C399.419 155.025 399.569 155.037 399.569 155.075L399.569 230.469C399.578 230.736 399.518 231.001 399.394 231.237C399.394 231.237 399.369 231.237 399.369 231.25L399.344 231.25C399.262 231.406 399.112 231.544 398.938 231.544L358.119 231.544C357.756 231.544 357.475 231.031 357.475 230.4L357.475 189.356L233.5 189.356C232.144 189.356 230.969 189.112 230.969 188.844L230.969 155.006C230.969 154.712 232.144 154.481 233.5 154.481L398.938 154.481C399.125 154.481 399.294 154.669 399.394 154.925" fill="rgb(255,134,130)" fill-rule="nonzero" />
	<path id="Vector" d="M140.426 59L66.5675 59C35.3409 59 10 95.1164 10 139.668L10 238L197 238L197 139.668C197 95.1164 171.683 59 140.426 59Z" fill="rgb(84.4447,104.311,105.257)" fill-rule="nonzero" />
</svg>
