<svg width="20.000000" height="20.000000" viewBox="0 0 20 20" fill="none" xmlns="http://www.w3.org/2000/svg" xmlns:xlink="http://www.w3.org/1999/xlink">
	<desc>
			Created with Pixso.
	</desc>
	<defs/>
	<path id="Vector" d="M19.8 8.04L19 8.04L19 8L10 8L10 12L15.65 12C14.82 14.32 12.61 16 10 16C6.68 16 4 13.31 4 10C4 6.68 6.68 4 10 4C11.52 4 12.92 4.57 13.98 5.51L16.8 2.69C15.02 1.02 12.63 0 10 0C4.47 0 0 4.47 0 10C0 15.52 4.47 20 10 20C15.52 20 20 15.52 20 10C20 9.32 19.93 8.67 19.8 8.04Z" fill="#FFC107" fill-opacity="1.000000" fill-rule="nonzero"/>
	<path id="Vector" d="M1.15 5.34L4.43 7.75C5.32 5.55 7.47 4 9.99 4C11.52 4 12.92 4.57 13.98 5.51L16.8 2.69C15.02 1.02 12.63 0 9.99 0C6.15 0 2.82 2.16 1.15 5.34Z" fill="#FF3D00" fill-opacity="1.000000" fill-rule="nonzero"/>
	<path id="Vector" d="M10 20C12.58 20 14.93 19.01 16.7 17.4L13.6 14.78C12.57 15.57 11.3 16 10 16C7.39 16 5.19 14.34 4.35 12.02L1.09 14.53C2.75 17.77 6.11 20 10 20Z" fill="#4CAF50" fill-opacity="1.000000" fill-rule="nonzero"/>
	<path id="Vector" d="M19.8 8.04L19 8.04L19 8L10 8L10 12L15.65 12C15.25 13.1 14.54 14.07 13.6 14.78L13.6 14.78L16.7 17.4C16.48 17.6 20 15 20 10C20 9.32 19.93 8.67 19.8 8.04Z" fill="#1976D2" fill-opacity="1.000000" fill-rule="nonzero"/>
</svg>
